<svg xmlns="http://www.w3.org/2000/svg" viewBox="0 0 154.81 158.02"><defs><style>.cls-1{fill:#3a4e5c;}.cls-2{fill:#153441;}.cls-3{fill:#3a4d5c;}.cls-4{fill:#e2405c;}.cls-5{fill:#7d8d9c;}.cls-6{fill:#b11f49;}</style></defs><g id="Layer_2"><![CDATA[
    Layer 2
    ]]><g id="Layer_1-2"><path class="cls-1" d="M27,73.45l.13,0c.9.41,1.44-.24,2-.52,6.09-2.78,12.11-5.67,18.26-8.38,2.13-.94,3.33-2,3.71-4C53.21,49.61,57.92,39,57.28,27.76H97.53c.07,2.88-.34,5.83.27,8.64,1.86,8.51,4.11,17,6.19,25.46a2.74,2.74,0,0,0,1.75,1.94c6.71,3,13.37,6.16,20.07,9.22.55.26,1,.84,1.86.46l.12,0c.18,5.42.2,10.84,0,16.26a2.64,2.64,0,0,1-1.27-1.31c-2.6-4.28-7-6.19-12.74-6.19q-36.59,0-73.17,0c-5.53,0-9.65,2.06-12.27,6-.36.54-.55,1.18-1.31,1.48C26.83,84.29,26.84,78.87,27,73.45Z"/><path class="cls-2" d="M26.89,92.49,28,88.08c.11-.18.21-.37.32-.54,2.62-4,6.74-6,12.27-6q36.58,0,73.17,0c5.74,0,10.14,1.92,12.74,6.19l.23.37,1.17,4.38c-.09,5-.61,5.38-6.88,5.38H33.77C27.51,97.84,27,97.46,26.89,92.49Z"/><path class="cls-3" d="M67.48,125.43h20.2c4,.06,8-.26,12,.5,11.49,2.23,18.42,8.1,21.06,17.36-3.55-1.54-7.16-2.19-11-.54-.86.37-1.71.76-2.56,1.15-2.72-5.39-7.67-7.8-15-7.6-10,.28-20,.13-30,0-7.09-.1-11.91,2.32-14.57,7.61a13.93,13.93,0,0,0-13.51-.63c2.63-9.27,9.61-15.11,21.07-17.34C59.23,125.15,63.37,125.52,67.48,125.43Z"/><path class="cls-4" d="M127.67,73.14c-.82.38-1.31-.21-1.86-.46-6.7-3.06-13.36-6.17-20.07-9.22a2.75,2.75,0,0,1-1.75-2C101.91,53,99.66,44.57,97.8,36.06c-.61-2.81-.2-5.76-.27-8.64q0-6.8,0-13.58c5.26,3.39,10.5,6.79,15.79,10.13a2.11,2.11,0,0,1,1.09,2c0,5.49,0,11,0,16.48a5.38,5.38,0,0,0,.46,2.32Z"/><path class="cls-4" d="M57.28,27.42c.64,11.25-4.07,21.85-6.12,32.77-.38,2-1.58,3.11-3.71,4-6.15,2.7-12.17,5.6-18.26,8.38-.6.27-1.14.93-2,.52Q33.49,59,39.86,45a5.83,5.83,0,0,0,.53-2.48c0-5.5,0-11,0-16.5a2.11,2.11,0,0,1,1.14-2c5.24-3.32,10.43-6.69,15.64-10Z"/><path class="cls-5" d="M57.28,27.76l-.15-13.49,0,0c.62,0,1.24-.13,1.87-.13H97.62l0,0q0,6.78,0,13.57Z"/><path class="cls-6" d="M97.62,13.82H59c-.63,0-1.25.09-1.87.14a31.41,31.41,0,0,1,.28-4.23c1-5.18,5.33-8.84,11.76-9.37a96.52,96.52,0,0,1,16.57,0c7.2.66,11.8,5.2,11.89,11.08C97.62,12.23,97.62,13,97.62,13.82Z"/><path class="cls-5" d="M27,89.37c-.05,1.12-.1,2.24-.14,3.35a41.37,41.37,0,0,1-4.6-.08c-5.3-.63-8.82-4-8.84-8.32,0-8.08,0-16.15,0-24.23l13.4,0q.09,6.49.17,13C26.84,78.53,26.83,84,27,89.37Z"/><path class="cls-5" d="M127.93,92.72c-.05-1.11-.1-2.23-.14-3.35.2-5.42.18-10.84,0-16.26q.09-6.49.17-13l13.4,0q0,11.7,0,23.38c0,6-4.07,9.28-11.56,9.27Z"/><path class="cls-2" d="M34.11,143.24a14,14,0,0,1,13.51.62c.38.54.74,1.09,1.14,1.61,2.85,3.73,1.84,8.33-2.39,10.92a11.68,11.68,0,0,1-13.33-1c-3.6-3.07-3.61-7.62-.06-10.94C33.39,144.07,33.73,143.64,34.11,143.24Z"/><path class="cls-2" d="M107.19,143.87c.85-.39,1.7-.78,2.56-1.15,3.79-1.66,7.4-1,11,.54.43.45.84.9,1.29,1.33,3.32,3.15,3.29,7.7-.09,10.69a11.71,11.71,0,0,1-13.3,1.21c-4.09-2.37-5.35-6.79-3-10.43C106.13,145.32,106.67,144.6,107.19,143.87Z"/><path class="cls-3" d="M26.85,60.11l-13.4,0c-2.18,0-4.35,0-6.52,0C3,60,0,57.57,0,54.6s3-5.33,7-5.38a53.67,53.67,0,0,1,8.6.18C22.31,50.42,26.64,54.55,26.85,60.11Z"/><path class="cls-3" d="M141.36,60.09l-13.4,0c.22-6.15,5.79-10.72,13.33-10.9,2.17-.06,4.35-.05,6.52,0,4,.09,7,2.41,7,5.4s-2.94,5.34-6.93,5.45C145.71,60.12,143.54,60.09,141.36,60.09Z"/><path class="cls-1" d="M70.61,97.85H84.2q0,8.2,0,16.4H70.59Q70.6,106,70.61,97.85Z"/><path class="cls-5" d="M70.48,114.25H84.33c3.42.13,3.42.13,3.42,2.88s0,5.54,0,8.31H67.07c0-3.06.1-6.12,0-9.17-.07-1.52.37-2.28,2.4-2A5.4,5.4,0,0,0,70.48,114.25Z"/></g></g></svg>