<svg xmlns="http://www.w3.org/2000/svg" width="50" height="50" viewBox="0 0 50 50">
  <path id="github" d="M25,7.874c-13.8,0-25,11.475-25,25.629A25.585,25.585,0,0,0,17.1,57.822c1.25.237,1.71-.557,1.71-1.235,0-.611-.025-2.63-.035-4.77-6.955,1.551-8.422-3.025-8.422-3.025-1.137-2.963-2.776-3.751-2.776-3.751-2.268-1.592.173-1.557.173-1.557a5.266,5.266,0,0,1,3.831,2.639c2.231,3.918,5.85,2.784,7.276,2.13a5.514,5.514,0,0,1,1.587-3.428c-5.553-.646-11.39-2.845-11.39-12.666a10.065,10.065,0,0,1,2.575-6.879,9.418,9.418,0,0,1,.241-6.782s2.1-.69,6.877,2.627a23.155,23.155,0,0,1,12.517,0c4.771-3.315,6.869-2.627,6.869-2.627a9.419,9.419,0,0,1,.246,6.782,10.036,10.036,0,0,1,2.573,6.878C40.947,42,35.1,44.168,29.532,44.8a6.2,6.2,0,0,1,1.7,4.744c0,3.427-.029,6.19-.029,7.033,0,.682.45,1.48,1.718,1.23A25.583,25.583,0,0,0,50,33.494C50,19.342,38.807,7.865,25,7.865l0,.009Z" transform="translate(0 -7.865)" fill="#fff" fill-rule="evenodd"/>
</svg>
