<svg xmlns="http://www.w3.org/2000/svg" xmlns:xlink="http://www.w3.org/1999/xlink" width="50" height="50" viewBox="0 0 50 50">
  <defs>
    <clipPath id="clip-path">
      <ellipse id="Ellipse_11" data-name="Ellipse 11" cx="25" cy="25" rx="25" ry="25" fill="none"/>
    </clipPath>
    <radialGradient id="radial-gradient" cx="0.5" cy="0.5" r="0.5" gradientUnits="objectBoundingBox">
      <stop offset="0" stop-color="#ffd676"/>
      <stop offset="0.25" stop-color="#f2a454"/>
      <stop offset="0.38" stop-color="#f05c3c"/>
      <stop offset="0.7" stop-color="#c22f86"/>
      <stop offset="0.96" stop-color="#6666ad"/>
      <stop offset="0.99" stop-color="#5c6cb2"/>
    </radialGradient>
  </defs>
  <g id="Group_36" data-name="Group 36" transform="translate(-1521.184 -445.771)" opacity="0.65">
    <g id="Group_29" data-name="Group 29" transform="translate(1521.184 445.771)" clip-path="url(#clip-path)">
      <ellipse id="Ellipse_10" data-name="Ellipse 10" cx="53.711" cy="53.711" rx="53.711" ry="53.711" transform="translate(-42.969 -6.25)" fill="url(#radial-gradient)"/>
    </g>
    <ellipse id="Ellipse_19" data-name="Ellipse 19" cx="1.953" cy="1.953" rx="1.953" ry="1.953" transform="translate(1551.262 461.787)" fill="#fff"/>
    <path id="Path_81" data-name="Path 81" d="M54.25,48a6.25,6.25,0,1,0,6.25,6.25A6.25,6.25,0,0,0,54.25,48Zm0,9.375a3.125,3.125,0,1,1,3.125-3.125A3.125,3.125,0,0,1,54.25,57.375Z" transform="translate(1491.934 416.521)" fill="#fff"/>
    <rect id="Rectangle_5" data-name="Rectangle 5" width="25" height="25" rx="5" transform="translate(1533.684 458.271)" fill="none" stroke="#fff" stroke-miterlimit="10" stroke-width="4"/>
  </g>
</svg>
