<svg xmlns="http://www.w3.org/2000/svg" width="50" height="50" viewBox="0 0 50 50">
  <g id="icons8-linkedin-circled" transform="translate(-4 -4)">
    <path id="Path_86" data-name="Path 86" d="M29,4A25,25,0,1,0,54,29,25,25,0,0,0,29,4Z" fill="#0288d1"/>
    <path id="Path_87" data-name="Path 87" d="M14,20.5h5V39.25H14ZM16.485,18h-.028A2.393,2.393,0,0,1,14,15.5,2.4,2.4,0,0,1,16.514,13,2.4,2.4,0,0,1,19,15.5,2.407,2.407,0,0,1,16.485,18ZM40.25,27.375a6.871,6.871,0,0,0-12.5-3.945V20.5h-5V39.25h5v-10a3.75,3.75,0,0,1,7.5,0v10h5Z" transform="translate(2.5 2.25)" fill="#fff"/>
  </g>
</svg>
