<svg xmlns="http://www.w3.org/2000/svg" width="161.102" height="107.095" viewBox="0 0 161.102 107.095">
  <g id="Layer_2" transform="translate(0.038 0.017)">
    <g id="Layer_1" transform="translate(-0.038 -0.017)">
      <path id="Path_1" d="M132.718,98.861a17.807,17.807,0,0,1-15.475,7.213,74.554,74.554,0,0,0-9.564.03c-14.558,1.457-29.151.807-43.732.946-7.758-1.757-15.677-.462-23.48-1.205A16.178,16.178,0,0,1,29.717,99.98c-.376-.421-.751-.841-1.1-1.258-.038-.038-.116-.041-.176-.06-4.39,6.237-10.345,8.558-17.739,6.823C4.625,104.065.131,97.794-.023,90.862a121.189,121.189,0,0,1,1.585-19.4C3.014,61.2,5.14,51.092,8.992,41.419c2.6-6.508,5.824-12.576,10.886-17.529a17.356,17.356,0,0,1,4.1-3.248c1.4-.713,1.641-1.694,1.63-3.132A17.186,17.186,0,0,1,38.372.613a11.641,11.641,0,0,1,2.91-.552C47.613.008,53.929.023,60.249.027a1.921,1.921,0,0,1,2.088,2.114c.045,1.5,0,2.982,0,4.585,1.532-.432,1.694-1.637,1.851-2.779C64.658.639,65.315.023,68.6.023H93.928c2.685,0,3.154.428,3.316,3.068.086,1.393.248,2.734,1.945,3.733,0-1.532-.023-2.854,0-4.172.041-1.878.751-2.629,2.6-2.629,6.008,0,12.016-.09,18.024,0,8.291.146,15.922,7.8,16.072,16.286a6.021,6.021,0,0,0,2.734,5.471c6.436,4.743,10.139,11.562,13.079,18.8,4.191,10.281,6.444,21.058,7.886,32.027a121.821,121.821,0,0,1,1.472,17.72c-.105,7.213-4.224,13.143-10.251,15.043-6.5,2.035-13.361-.338-17.7-6.117A4.384,4.384,0,0,0,132.718,98.861Zm-2.5-89.746c.09.158.18.315.274.473l.439.683a17.277,17.277,0,0,1,1.69,7.8c-.034.751-.218,1.374-1.085,1.476-.954.116-1.348-.492-1.532-1.292a5.153,5.153,0,0,1-.045-.935c-.259-6.785-4.882-11.231-11.716-11.243-4.882,0-9.763.053-14.645-.034-1.442-.023-1.878.319-1.878,1.844q.079,43.822.049,87.64c0,1.127-.424,2.411.244,3.274.541.7,1.769.165,2.685.285a1.218,1.218,0,0,1,1.235,1.348,1.2,1.2,0,0,1-1.153,1.247c-.488.071-1-.019-1.5.049-.582.083-1.5-.4-1.5.789s.875.841,1.476.845c5.129.023,10.259.038,15.4,0A14.623,14.623,0,0,0,133.33,88.542V17.417a13.826,13.826,0,0,0-2.062-7.476l-.5-.642-.248-.458-.541-.627a4.626,4.626,0,0,0-1.84-1.93l-.6-.5a12.865,12.865,0,0,0-8.408-3.135c-5.355-.083-10.725-.03-16.094-.03-.417,0-1.029-.263-1.2.5.514.544,1.168.3,1.746.3,4.131.026,8.261.128,12.362-.019A19.612,19.612,0,0,1,127.21,6.122l.593.514,1.878,1.878Zm28.227,81a44.323,44.323,0,0,0-.451-8.2,174.531,174.531,0,0,0-2.929-20.229C152.9,51.543,150.209,41.566,144.7,32.625a28.093,28.093,0,0,0-7.559-8.67c-.349-.244-.969-.965-1.093-.15-.207,1.348-.642,2.929.815,3.973,3.609,2.591,5.794,6.3,7.829,10.09,4.619,8.592,7.011,17.945,9.17,27.367.214.946.1,1.878-.886,2.2-1.127.376-1.5-.567-1.731-1.449-.5-1.99-.924-4-1.446-5.978-2.629-9.97-5.43-19.861-12.305-27.968-.357-.421-.59-1.172-1.183-1.01-.687.184-.376.969-.376,1.5q-.026,12.287,0,24.569c0,10.74-.026,21.479,0,32.219a12.914,12.914,0,0,1-1.127,5.633,2.062,2.062,0,0,0,.165,2.253c3.642,5.419,8.314,6.936,14.04,5.847C154.686,101.955,158.441,96.517,158.441,90.111ZM25.556,56.691V31.04a3.413,3.413,0,0,0-1.637,1.239,12.016,12.016,0,0,0-1.356,1.54c-4.551,6.23-7.183,13.342-9.388,20.653A95.756,95.756,0,0,0,10.461,65.7c-.15.875-.612,2.035-1.784,1.784-1.235-.27-1.127-1.273-.882-2.407a117.962,117.962,0,0,1,7.424-24.032c2.031-4.6,4.469-9.061,8.3-12.328a5.2,5.2,0,0,0,1.911-5.479,6.887,6.887,0,0,0-2.974,1.844c-6.064,5.738-9.56,13-12.223,20.717A132.356,132.356,0,0,0,4.483,70.469,133.691,133.691,0,0,0,2.661,90.111c.079,4.386,1.374,8.31,5.051,10.927a12.858,12.858,0,0,0,17.487-2.5c1.228-1.5,1.851-3.045,1.078-4.979a14.6,14.6,0,0,1-.751-5.524C25.575,77.6,25.556,67.153,25.556,56.691ZM73.621,6.035a1.179,1.179,0,0,1-.631-1.709c.4-.875,1.2-.95,2.062-.946q8.716.023,17.431,0c.631,0,1.326.192,1.911-.248-.165-.612-.608-.466-.916-.469q-12.459,0-24.922-.023c-1.179,0-1.588.432-1.727,1.63-.233,2.013-.807,4.131-2.94,4.844-1.412.484-1.543,1.2-1.54,2.426q.045,21.832.023,43.664,0,20.9-.034,41.805c0,1.551.267,2.174,2.02,2.159q16.4-.124,32.8,0c1.757,0,2.031-.608,2.024-2.159-.053-13.935-.034-27.87-.034-41.805V11.232c0-.623.376-1.5-.56-1.776-1.352-.376-2.058-1.573-3.135-2.294-.169-1.254-1.127-1.127-1.994-1.127Zm-42.432,78c1.878.586,1.269,2.253,1.382,3.481C33.186,94.321,38.2,99.03,45,99.045c4.187,0,8.381-.075,12.568.041,1.679.049,2.182-.376,2.178-2.129Q59.652,50.8,59.7,4.646a6.257,6.257,0,0,1,0-.751c.113-.935-.2-1.326-1.232-1.314-5.565.056-11.141-.173-16.691.124A13.161,13.161,0,0,0,30.731,9.377a11.436,11.436,0,0,0-2.523,7.461q-.075,36.2,0,72.4A14.491,14.491,0,0,0,42.45,103.325c5.19.064,10.379.03,15.569,0,.631,0,1.712.451,1.652-.841s-1.127-.725-1.742-.732c-4.251-.049-8.5.034-12.767-.038-8.329-.143-15.155-5.554-15.4-15.625-.019-1.066.252-1.855,1.442-2.039Zm49.462,19.218q8.336,0,16.673-.019c.638,0,1.739.443,1.716-.777-.019-1.059-1.021-.687-1.622-.687q-16.68-.034-33.353,0c-.6,0-1.6-.376-1.622.687,0,1.22,1.081.774,1.72.777C69.659,103.273,75.153,103.254,80.651,103.254Z" transform="translate(0.038 0.017)" fill="#202020"/>
      <path id="Path_2" d="M300.383,20a13.826,13.826,0,0,1,2.062,7.476q0,35.564,0,71.125a14.616,14.616,0,0,1-14.686,14.821c-5.129.034-10.259.019-15.4,0-.6,0-1.5.33-1.476-.845s.931-.706,1.5-.789c.492-.068,1.006.023,1.5-.049a1.2,1.2,0,0,0,1.153-1.247,1.224,1.224,0,0,0-1.235-1.348c-.916-.12-2.144.413-2.685-.285-.668-.864-.244-2.163-.244-3.274q-.038-43.818-.038-87.655c0-1.525.432-1.878,1.878-1.844,4.882.086,9.763.026,14.645.034,6.827,0,11.457,4.457,11.716,11.243a5.156,5.156,0,0,0,.045.935c.184.8.578,1.408,1.532,1.292.867-.1,1.051-.71,1.085-1.476a17.277,17.277,0,0,0-1.69-7.8ZM286.59,78.424a9.426,9.426,0,0,0,.18-18.85,9.426,9.426,0,1,0-.18,18.85Zm-6.432,17.611a4.209,4.209,0,0,0,4.2-4.318,4.3,4.3,0,1,0-8.592.161,4.209,4.209,0,0,0,4.39,4.157ZM294.1,45a4.014,4.014,0,0,0,4.131-3.92,4.131,4.131,0,0,0-4.082-4.217,4.262,4.262,0,0,0-4.086,4.082A4.093,4.093,0,0,0,294.1,45Zm-7.42,7.51a4.1,4.1,0,1,0-4.07-4,4.025,4.025,0,0,0,4.07,4ZM279.167,45a4.029,4.029,0,0,0,4.093-3.958,4.131,4.131,0,0,0-4.131-4.179,4.213,4.213,0,0,0-4.018,4.131A4.007,4.007,0,0,0,279.163,45Zm7.446-7.51a4,4,0,0,0,4.131-3.89,4.067,4.067,0,1,0-8.13-.154,3.98,3.98,0,0,0,4,4.044Zm-8.558-17.273a1.2,1.2,0,0,0-1.217,1.28c.045,1.006-.263,1.464-1.363,1.416a1.265,1.265,0,0,0-1.4,1.4,1.209,1.209,0,0,0,1.378,1.213c.89-.041,1.453.173,1.363,1.228a1.235,1.235,0,0,0,1.269,1.5,1.292,1.292,0,0,0,1.359-1.457c-.045-.973.312-1.341,1.288-1.288a1.176,1.176,0,0,0,1.359-1.205,1.2,1.2,0,0,0-1.232-1.363c-1.2.041-1.449-.488-1.464-1.543-.011-.653-.544-1.089-1.341-1.183ZM301.712,31.3c-.038-.8-.492-1.322-1.262-1.28a1.278,1.278,0,0,0-1.3,1.461,1.2,1.2,0,0,0,1.389,1.16,1.148,1.148,0,0,0,1.172-1.337Z" transform="translate(-169.065 -10.038)" fill="#8e949d"/>
      <path id="Path_3" d="M81.9,13.669A13.122,13.122,0,0,1,92.97,7.011c5.55-.3,11.126-.068,16.691-.124,1.033,0,1.344.376,1.232,1.314a6.254,6.254,0,0,0,0,.751q0,46.154.045,92.311c0,1.761-.5,2.178-2.178,2.129-4.187-.116-8.381-.03-12.568-.041-6.8,0-11.81-4.724-12.426-11.528-.113-1.232.5-2.9-1.382-3.481V87.7a1.556,1.556,0,0,0,1.3-1.54,1.351,1.351,0,0,0-1.288-1.3q0-34.46-.038-68.921C82.339,15.171,82.707,14.3,81.9,13.669ZM95.231,28.453A9.506,9.506,0,0,0,95.3,47.464a9.659,9.659,0,0,0,9.467-9.643,9.553,9.553,0,0,0-9.534-9.361ZM105.178,86.3h.083a9.093,9.093,0,0,0-.173-2.771c-1.063-2.707-3.534-1.66-5.52-1.832-1.5-.131-2.929.33-3.181,1.926a12.123,12.123,0,0,0,.038,5.186c.92,3.094,3.755,1.5,5.779,1.825a2.34,2.34,0,0,0,2.944-1.911,11.76,11.76,0,0,0,.03-2.415Zm1.585-19.74a3.917,3.917,0,0,0-3.928-4.074,4.04,4.04,0,0,0-4.176,4.078,4.232,4.232,0,0,0,4.093,4.044,4.029,4.029,0,0,0,4.01-4.04Zm-22.966,0a4,4,0,0,0,4.01,4.07A4.078,4.078,0,0,0,91.8,66.5a3.954,3.954,0,0,0-4.059-4.014,3.808,3.808,0,0,0-3.924,4.071Zm15.46-7.454a4,4,0,1,0-8.006-.158,4.052,4.052,0,0,0,3.935,4.164,3.988,3.988,0,0,0,4.07-4.007ZM95.238,78.02A4.01,4.01,0,1,0,91.25,73.96a3.917,3.917,0,0,0,3.988,4.067Zm9.132-58.252h2.6a1.16,1.16,0,0,0,1.333-1.209,1.186,1.186,0,0,0-1.187-1.386c-1.855-.068-3.718-.075-5.573,0a1.206,1.206,0,0,0-1.157,1.419c.053.822.6,1.164,1.374,1.172C102.632,19.775,103.5,19.767,104.37,19.767Z" transform="translate(-51.132 -4.275)" fill="#8e949d"/>
      <path id="Path_4" d="M166.073,59.583q0-21.832-.023-43.664c0-1.224.128-1.941,1.54-2.426,2.133-.728,2.707-2.831,2.94-4.844.139-1.2.548-1.633,1.727-1.63,8.306.026,16.616,0,24.922.023.327,0,.77-.143.954.484-.586.439-1.28.244-1.911.248q-8.716.023-17.431,0c-.86,0-1.663.071-2.062.946a1.172,1.172,0,0,0,.631,1.7c.623,1.1,1.686,1.127,2.76,1.127h19.027c1.078.721,1.784,1.908,3.135,2.294.928.267.556,1.153.56,1.776.023,7.484,0,14.968,0,22.455V59.595H192.7a3.537,3.537,0,0,0,.777-1.855c-.041-3.755,0-7.51-.03-11.265a2.1,2.1,0,0,0-2.373-2.276c-1.378,0-2.752.03-4.131,0-1.5-.045-2.152.646-2.137,2.148.038,3.755,0,7.51,0,11.265a3.252,3.252,0,0,0,.376,1.618c-.4.552-.988.323-1.5.376a1.648,1.648,0,0,0,.225-.511c.334-4.487.131-8.982.105-13.473,0-1.04-.856-1.423-1.878-1.412h-4.131c-1.855.03-2.58.751-2.595,2.629,0,3.184.03,6.384-.023,9.557a5.565,5.565,0,0,0,.77,3.214Zm7.886-49.169c.661.034,1.127-.376,1.127-1.326,0-.706-.248-1.243-1.033-1.269a1.4,1.4,0,0,0-1.543,1.3c-.139.856.342,1.273,1.434,1.311Z" transform="translate(-103.683 -4.378)" fill="#2c2d32"/>
      <path id="Path_5" d="M183.694,146.426c.522-.053,1.127.176,1.5-.376,2.467.792,5,.188,7.51.376h10.139c0,13.935-.019,27.87.034,41.805,0,1.551-.267,2.174-2.024,2.159q-16.4-.124-32.8,0c-1.754,0-2.028-.608-2.02-2.159.053-13.935.034-27.87.034-41.805h17.649Zm1.093,5.633h-8.794a2.146,2.146,0,0,0-2.426,2.411v2.253c0,2.445.608,3.181,3,3.207,5.366.056,10.732.068,16.1,0,3-.041,4.262-1.829,3.612-4.806s-.751-3.053-3.83-3.053q-3.823-.03-7.657-.011Zm.034-1.127h9.553c.86,0,1.731-.03,1.671-1.213-.053-1.051-.882-1.04-1.656-1.04h-19.11c-.86,0-1.727.038-1.671,1.213.053,1.055.882,1.044,1.656,1.044Z" transform="translate(-103.67 -91.201)" fill="#27282b"/>
      <path id="Path_6" d="M7.148,128.772a135,135,0,0,1,1.81-19.65,132.356,132.356,0,0,1,5.764-24.66c2.662-7.724,6.158-14.99,12.223-20.728a6.887,6.887,0,0,1,2.974-1.844,5.174,5.174,0,0,1-1.911,5.479c-3.834,3.278-6.271,7.735-8.3,12.32a118.4,118.4,0,0,0-7.424,24.032c-.24,1.127-.353,2.137.882,2.407,1.172.252,1.633-.909,1.784-1.784a95.754,95.754,0,0,1,2.726-11.231c2.193-7.3,4.825-14.408,9.388-20.653a12.017,12.017,0,0,1,1.344-1.517A3.413,3.413,0,0,1,30.043,69.7V95.351c-.541.053-.657.394-.751.882a94.041,94.041,0,0,1-4.131,14.329c-2.144,5.6-4.942,10.785-9.545,14.769A12.524,12.524,0,0,1,7.148,128.772Zm6.759-19.62c.045-.912-.357-1.4-1.3-1.4-.852,0-1.528.376-1.6,1.228s.593,1.314,1.416,1.389,1.461-.229,1.476-1.213Z" transform="translate(-4.449 -38.644)" fill="#2c2d32"/>
      <path id="Path_7" d="M361.873,96.054V71.485c0-.514-.319-1.3.376-1.5.593-.161.826.59,1.183,1.01,6.876,8.141,9.684,18.032,12.313,28,.522,1.983.946,3.988,1.446,5.978.222.882.6,1.821,1.731,1.449.984-.319,1.1-1.254.886-2.2-2.159-9.421-4.551-18.775-9.17-27.367-2.028-3.789-4.228-7.5-7.837-10.09-1.457-1.044-1.021-2.629-.815-3.973.124-.815.751-.094,1.093.15a28.007,28.007,0,0,1,7.559,8.67c5.512,8.941,8.2,18.907,10.364,29.057a174.53,174.53,0,0,1,2.933,20.236,44.326,44.326,0,0,1,.451,8.2,9.031,9.031,0,0,1-4.649-1.22c-4.882-2.384-7.916-6.56-10.349-11.194-3.064-5.828-4.882-12.1-6.444-18.475C362.763,97.478,363.041,96.37,361.873,96.054Zm17.45,14.645c.841,0,1.547-.394,1.592-1.228.049-.965-.691-1.371-1.607-1.389a1.119,1.119,0,0,0-1.3,1.22C378,110.226,378.373,110.722,379.323,110.7Z" transform="translate(-225.903 -38.971)" fill="#2c2d32"/>
      <path id="Path_8" d="M7.15,184.445a12.712,12.712,0,0,0,8.471-3.432c4.615-3.977,7.4-9.166,9.545-14.761A94.042,94.042,0,0,0,29.3,151.922c.1-.488.218-.83.751-.882v31.34A14.273,14.273,0,0,0,30.8,187.9c.774,1.934.15,3.488-1.078,4.979a12.858,12.858,0,0,1-17.487,2.5C8.524,192.763,7.229,188.839,7.15,184.445Z" transform="translate(-4.451 -94.317)" fill="#27282b"/>
      <path id="Path_9" d="M359.756,152c1.168.3.89,1.408,1.07,2.148a79.474,79.474,0,0,0,6.444,18.475c2.433,4.634,5.464,8.809,10.349,11.194a9.031,9.031,0,0,0,4.649,1.22c0,6.384-3.778,11.836-9.433,12.906-5.727,1.089-10.4-.428-14.04-5.847a2.061,2.061,0,0,1-.165-2.253,12.914,12.914,0,0,0,1.127-5.633C359.733,173.494,359.752,162.755,359.756,152Z" transform="translate(-223.786 -94.917)" fill="#27282b"/>
      <path id="Path_10" d="M77.6,25c.807.623.439,1.5.443,2.253q.041,34.46.038,68.921c-.83.1-1.442.526-1.442,1.389s.65,1.262,1.434,1.446v.646c-1.183.184-1.461.973-1.434,2.039.252,10.071,7.078,15.482,15.4,15.625,4.251.071,8.5,0,12.767.038.616,0,1.682-.526,1.742.732s-1.021.837-1.652.841c-5.19.038-10.379.071-15.569,0A14.442,14.442,0,0,1,75.078,104.87q-.135-36.2,0-72.4A11.446,11.446,0,0,1,77.6,25Z" transform="translate(-46.829 -15.606)" fill="#7c8083"/>
      <path id="Path_11" d="M184.558,272.426q-8.246,0-16.489-.019c-.638,0-1.735.443-1.72-.777.019-1.055,1.021-.687,1.622-.687q16.68-.034,33.353,0c.6,0,1.6-.375,1.622.687.023,1.22-1.078.774-1.716.777C195.673,272.445,190.116,272.426,184.558,272.426Z" transform="translate(-103.87 -169.155)" fill="#27282b"/>
      <path id="Path_12" d="M217.957,17.227H198.93c-1.074,0-2.137-.023-2.76-1.127h19.793C216.834,16.115,217.788,15.972,217.957,17.227Z" transform="translate(-122.493 -10.048)" fill="#4c4d53"/>
      <path id="Path_13" d="M296.593,10.466a19.555,19.555,0,0,0-11.265-2.722c-4.131.146-8.242.045-12.362.019-.578,0-1.232.244-1.746-.3.169-.751.781-.5,1.2-.5,5.37,0,10.74-.064,16.106.023a12.865,12.865,0,0,1,8.408,3.135Z" transform="translate(-169.361 -4.317)" fill="#8e949d"/>
      <path id="Path_14" d="M342.278,18.983,340.4,17.106l.376-.376a4.626,4.626,0,0,1,1.84,1.93Z" transform="translate(-212.563 -10.442)" fill="#8e949d"/>
      <path id="Path_15" d="M347.853,24.8l.5.642-.353.327-.439-.683Z" transform="translate(-217.035 -15.481)" fill="#8e949d"/>
      <path id="Path_16" d="M345.715,21.91c.18.21.376.417.537.627l-.315.27-.537-.59Z" transform="translate(-215.686 -13.676)" fill="#8e949d"/>
      <path id="Path_17" d="M339.383,16.3l-.593-.514.353-.345.6.5Z" transform="translate(-211.558 -9.636)" fill="#8e949d"/>
      <path id="Path_18" d="M347.1,24.324c-.094-.158-.184-.315-.274-.473l.315-.27.252.458Z" transform="translate(-216.579 -14.719)" fill="#8e949d"/>
      <path id="Path_19" d="M297.414,150.75a9.426,9.426,0,1,1,.18-18.85,9.426,9.426,0,0,1-.18,18.85Zm2.67-6.8a3.748,3.748,0,0,0,.417-4.994c-1.288-1.626-3.3-1.878-5.295-.631-1.847,1.9-2,4.157-.375,5.742A3.635,3.635,0,0,0,300.084,143.953Zm-9.406-3.135c.376-.176.563-.2.6-.282,1.074-2.253,2.422-4.191,4.953-5a.676.676,0,0,0,.312-.593c-.169-.511-.578-.278-.924-.18C292.66,135.59,291.372,137.783,290.678,140.818Zm.33,1.078c.244,3.6,2.959,6.278,5.974,5.783-2.97-.954-4.66-3.184-5.993-5.783Zm12.812-1.416c-.3-3.545-2.576-5.719-5.584-5.426A9.219,9.219,0,0,1,303.821,140.48Zm-5.809,7.649c3.181-.792,5.2-2.114,6.008-4.882.1-.376.334-.792-.105-.976s-.665.222-.785.593A5.829,5.829,0,0,1,299,147.043c-.244.075-.4.436-.973,1.085Z" transform="translate(-179.889 -82.364)" fill="#1f1f1f"/>
      <path id="Path_20" d="M288.535,214.722a4.209,4.209,0,0,1-4.375-4.168,4.3,4.3,0,1,1,8.592-.161,4.209,4.209,0,0,1-4.217,4.33Zm.09-2.629c.931,0,1.412-.774,1.423-1.667s-.751-1.359-1.679-1.333c-.852.023-1.536.466-1.521,1.3A1.606,1.606,0,0,0,288.625,212.094Z" transform="translate(-177.442 -128.725)" fill="#212222"/>
      <path id="Path_21" d="M326.223,79.547a4.093,4.093,0,0,1-4.033-4.055,4.262,4.262,0,0,1,4.086-4.082,4.131,4.131,0,0,1,4.082,4.217,4.014,4.014,0,0,1-4.134,3.92Zm1.5-3.871a1.416,1.416,0,0,0-1.311-1.348c-.845-.1-1.265.376-1.28,1.2s.248,1.367,1.127,1.359a1.539,1.539,0,0,0,1.491-1.209Z" transform="translate(-201.191 -44.589)" fill="#212222"/>
      <path id="Path_22" d="M306.422,99.426a4.025,4.025,0,0,1-4.055-4.01,4.069,4.069,0,1,1,4.055,4.01Zm1.438-4.131a1.57,1.57,0,0,0-1.476-1.1c-.894,0-1.149.582-1.127,1.367s.447,1.307,1.292,1.19A1.479,1.479,0,0,0,307.861,95.3Z" transform="translate(-188.811 -56.961)" fill="#212222"/>
      <path id="Path_23" d="M286.434,79.516a4.007,4.007,0,0,1-4.044-4.025,4.213,4.213,0,0,1,4.018-4.131,4.131,4.131,0,0,1,4.131,4.179,4.029,4.029,0,0,1-4.1,3.977Zm1.442-3.9a1.423,1.423,0,0,0-1.337-1.322c-.852-.083-1.247.4-1.254,1.232s.285,1.356,1.164,1.333A1.506,1.506,0,0,0,287.876,75.615Z" transform="translate(-176.336 -44.558)" fill="#212222"/>
      <path id="Path_24" d="M306.367,59.559a3.98,3.98,0,0,1-3.988-4.044,4.067,4.067,0,1,1,8.13.154,4,4,0,0,1-4.142,3.89Zm1.5-3.905a1.464,1.464,0,0,0-1.352-1.318c-.852-.079-1.243.413-1.247,1.243s.3,1.352,1.179,1.326A1.516,1.516,0,0,0,307.869,55.653Z" transform="translate(-188.819 -32.11)" fill="#212222"/>
      <path id="Path_25" d="M283.567,27.09c.8.094,1.329.529,1.341,1.187,0,1.055.263,1.585,1.464,1.543a1.2,1.2,0,0,1,1.232,1.363,1.181,1.181,0,0,1-1.359,1.205c-.976-.053-1.333.315-1.288,1.288a1.292,1.292,0,0,1-1.359,1.457,1.236,1.236,0,0,1-1.269-1.5c.09-1.055-.473-1.269-1.363-1.228a1.209,1.209,0,0,1-1.378-1.217,1.265,1.265,0,0,1,1.4-1.4c1.1.049,1.408-.409,1.363-1.416A1.2,1.2,0,0,1,283.567,27.09Z" transform="translate(-174.581 -16.911)" fill="#222324"/>
      <path id="Path_26" d="M348.931,54.486c0,.8-.338,1.28-1.172,1.341a1.2,1.2,0,0,1-1.389-1.16,1.257,1.257,0,0,1,1.3-1.461C348.484,53.16,348.893,53.682,348.931,54.486Z" transform="translate(-216.284 -33.219)" fill="#27282b"/>
      <path id="Path_27" d="M101.675,64.39a9.495,9.495,0,1,1-9.455,9.6A9.553,9.553,0,0,1,101.675,64.39Zm2.9,11.892c1.277-1.926,1.2-3.721-.214-5.208-1.228-1.284-3.154-1.307-5.047-.049-1.878,1.971-1.971,3.826-.267,5.531S102.625,78.167,104.57,76.282Zm-8.892-3.4c.578-3.421,3.849-3.988,6.181-5.9C97.9,67.326,94.942,70.113,95.678,72.88Zm7.063,7.266c2.411.1,5.3-2.227,5.55-4.345.038-.312.079-.695-.237-.819-.443-.18-.71.184-.792.548a7.225,7.225,0,0,1-1.8,2.749c-.676.871-2.013.852-2.719,1.863Zm-.071-12.523c1.014.665,1.949,1.22,2.816,1.878a5.49,5.49,0,0,1,1.915,2.925.469.469,0,0,0,.6.315c.278-.1.293-.376.255-.616C108,70.394,105.355,66.921,102.67,67.623Zm-1.99,12.309c-2.629-.751-4.2-2.561-5.081-5.591-.593,3.218,2.463,6.267,5.081,5.606Z" transform="translate(-57.576 -40.205)" fill="#202020"/>
      <path id="Path_28" d="M128.832,210.677a11.8,11.8,0,0,1-.03,2.418,2.349,2.349,0,0,1-2.944,1.911c-2.028-.327-4.859,1.269-5.779-1.825a12.124,12.124,0,0,1-.038-5.186c.252-1.6,1.686-2.058,3.181-1.926,1.986.173,4.457-.875,5.52,1.832a9.093,9.093,0,0,1,.173,2.771Zm-2.568-1.633c-.785-.751-1.754-.27-2.629-.376-.511-.06-1.089.049-1.055.713.053,1-.428,2.08.345,3C126.8,212.341,126.245,213,126.264,209.044Z" transform="translate(-74.786 -128.645)" fill="#202020"/>
      <path id="Path_29" d="M134.633,159.078a4.029,4.029,0,0,1-4.01,4.055,4.232,4.232,0,0,1-4.093-4.044A4.04,4.04,0,0,1,130.705,155a3.917,3.917,0,0,1,3.928,4.082ZM132,158.962c-.207-.706-.6-1.341-1.5-1.228a1.168,1.168,0,0,0-1.127,1.4c.083.852.567,1.157,1.359,1.127a1.141,1.141,0,0,0,1.254-1.3Z" transform="translate(-79.002 -96.786)" fill="#202020"/>
      <path id="Path_30" d="M87,159.093a3.817,3.817,0,0,1,3.943-4.055,3.954,3.954,0,0,1,4.059,4,4.078,4.078,0,0,1-3.992,4.131,4,4,0,0,1-4.01-4.07Zm5.313-.041a1.342,1.342,0,0,0-1.28-1.3,1.3,1.3,0,0,0-1.3,1.5c0,.781.544,1.051,1.254,1.059a1.142,1.142,0,0,0,1.311-1.262Z" transform="translate(-54.316 -96.813)" fill="#202020"/>
      <path id="Path_31" d="M114.8,139.223a3.988,3.988,0,0,1-4.07,4.007,4.052,4.052,0,0,1-3.935-4.157,4,4,0,0,1,8.006.158Zm-2.629,0a1.331,1.331,0,0,0-1.194-1.393c-.882-.079-1.348.556-1.386,1.4-.038.751.421,1.127,1.164,1.127s1.329-.2,1.4-1.13Z" transform="translate(-66.679 -84.393)" fill="#202020"/>
      <path id="Path_32" d="M110.784,183.076a3.917,3.917,0,0,1-3.988-4.059,4,4,0,1,1,3.988,4.059Zm.109-5.351c-.71.146-1.326.353-1.341,1.239,0,.789.282,1.311,1.127,1.352.751.034,1.382-.146,1.446-1.025A1.443,1.443,0,0,0,110.892,177.725Z" transform="translate(-66.677 -109.324)" fill="#202020"/>
      <path id="Path_33" d="M135.114,36.833h-2.606c-.777,0-1.322-.315-1.374-1.172a1.191,1.191,0,0,1,1.157-1.419c1.855-.083,3.718-.075,5.573,0a1.2,1.2,0,0,1,1.187,1.386,1.173,1.173,0,0,1-1.333,1.209C136.848,36.84,135.981,36.833,135.114,36.833Z" transform="translate(-81.875 -21.34)" fill="#222324"/>
      <path id="Path_34" d="M80.774,217.425c-.785-.184-1.434-.582-1.434-1.446s.612-1.288,1.442-1.389a1.329,1.329,0,0,1,1.288,1.3A1.549,1.549,0,0,1,80.774,217.425Z" transform="translate(-49.533 -134.004)" fill="#27282b"/>
      <path id="Path_35" d="M199.28,121.44h-7.51a5.565,5.565,0,0,1-.77-3.214c.053-3.184,0-6.384.023-9.557,0-1.878.751-2.587,2.595-2.629h4.131c1.006,0,1.855.376,1.878,1.412.026,4.506.229,8.986-.105,13.473A1.648,1.648,0,0,1,199.28,121.44Z" transform="translate(-119.256 -66.215)" fill="#1d1d1e"/>
      <path id="Path_36" d="M223.943,121.424c-2.5-.188-5.032.417-7.51-.376a3.252,3.252,0,0,1-.376-1.618c0-3.755.034-7.51,0-11.265,0-1.5.623-2.193,2.137-2.148,1.374.041,2.749,0,4.131,0a2.1,2.1,0,0,1,2.373,2.276c.034,3.755,0,7.51.03,11.265A3.457,3.457,0,0,1,223.943,121.424Z" transform="translate(-134.911 -66.199)" fill="#1d1d1e"/>
      <path id="Path_37" d="M184.632,11.772c-1.093-.034-1.573-.454-1.446-1.3a1.4,1.4,0,0,1,1.543-1.3c.785.026,1.025.563,1.033,1.269C185.774,11.393,185.293,11.806,184.632,11.772Z" transform="translate(-114.372 -5.72)" fill="#1d1d1e"/>
      <path id="Path_38" d="M197.346,162.033h7.675c3.064,0,3.188.1,3.83,3.053s-.616,4.765-3.62,4.814c-5.366.071-10.732.06-16.1,0-2.411-.026-3-.751-3-3.207V164.44a2.143,2.143,0,0,1,2.426-2.411Q192.945,162.014,197.346,162.033Z" transform="translate(-116.223 -101.175)" fill="#1d1d1e"/>
      <path id="Path_39" d="M197.418,155.3h-9.557c-.774,0-1.6,0-1.656-1.044-.056-1.175.811-1.213,1.671-1.213h19.11c.774,0,1.6,0,1.656,1.04.06,1.183-.811,1.213-1.671,1.213Q202.195,155.278,197.418,155.3Z" transform="translate(-116.268 -95.566)" fill="#1d1d1e"/>
      <path id="Path_40" d="M20.283,185.446c0,.984-.608,1.288-1.476,1.213s-1.5-.514-1.427-1.382.751-1.22,1.6-1.228C19.926,184.03,20.328,184.534,20.283,185.446Z" transform="translate(-10.836 -114.931)" fill="#1d1d1e"/>
      <path id="Path_41" d="M406.348,186.646c-.95,0-1.337-.484-1.311-1.4a1.116,1.116,0,0,1,1.3-1.22c.916.019,1.656.424,1.607,1.389C407.9,186.271,407.19,186.646,406.348,186.646Z" transform="translate(-252.928 -114.918)" fill="#1d1d1e"/>
      <path id="Path_42" d="M309.454,154.645a3.658,3.658,0,0,1-5.257.116c-1.615-1.585-1.461-3.838.375-5.742,0,.785.627,1.157,1.078,1.637C306.912,152.017,308.185,153.327,309.454,154.645Z" transform="translate(-189.259 -93.056)" fill="#3a3a3a"/>
      <path id="Path_43" d="M311.938,153.344c-1.269-1.329-2.542-2.651-3.8-3.988-.451-.481-1.085-.852-1.078-1.637,1.99-1.235,4.007-1,5.295.631A3.746,3.746,0,0,1,311.938,153.344Z" transform="translate(-191.743 -91.754)" fill="#484849"/>
      <path id="Path_44" d="M295,145.353c.713-3.034,2-5.227,4.945-6.053.345-.1.751-.33.924.18a.676.676,0,0,1-.312.593c-2.531.807-3.879,2.76-4.953,5C295.544,145.154,295.375,145.176,295,145.353Z" transform="translate(-184.211 -86.899)" fill="#3f3f40"/>
      <path id="Path_45" d="M295.83,158.52c1.333,2.6,3.023,4.829,5.974,5.783C298.789,164.8,296.074,162.121,295.83,158.52Z" transform="translate(-184.73 -98.988)" fill="#3a3a3a"/>
      <path id="Path_46" d="M320.714,145.682a9.219,9.219,0,0,0-5.584-5.426C318.153,139.963,320.428,142.138,320.714,145.682Z" transform="translate(-196.782 -87.566)" fill="#454546"/>
      <path id="Path_47" d="M314.57,165.335c.571-.65.728-1.01.965-1.074a5.791,5.791,0,0,0,4.131-4.179c.12-.376.375-.751.785-.593s.207.62.105.976C319.767,163.221,317.736,164.539,314.57,165.335Z" transform="translate(-196.433 -99.57)" fill="#3f3f40"/>
      <path id="Path_48" d="M293.1,217.008a1.586,1.586,0,0,1-1.776-1.7c-.019-.886.668-1.28,1.521-1.3.927-.026,1.69.376,1.679,1.333S294.027,217.035,293.1,217.008Z" transform="translate(-181.912 -133.639)" fill="#3f3f40"/>
      <path id="Path_49" d="M332.707,80.507a1.512,1.512,0,0,1-1.453,1.209c-.89,0-1.153-.575-1.127-1.359s.436-1.3,1.28-1.2A1.416,1.416,0,0,1,332.707,80.507Z" transform="translate(-206.147 -49.42)" fill="#404041"/>
      <path id="Path_50" d="M312.669,100.24a1.479,1.479,0,0,1-1.311,1.457c-.845.116-1.265-.353-1.292-1.19s.233-1.356,1.127-1.367A1.59,1.59,0,0,1,312.669,100.24Z" transform="translate(-193.619 -61.906)" fill="#404041"/>
      <path id="Path_51" d="M292.691,80.477a1.493,1.493,0,0,1-1.427,1.243c-.879.023-1.172-.537-1.164-1.333s.4-1.314,1.254-1.232a1.423,1.423,0,0,1,1.337,1.322Z" transform="translate(-181.151 -49.42)" fill="#404041"/>
      <path id="Path_52" d="M312.678,60.475a1.5,1.5,0,0,1-1.419,1.25c-.882.026-1.183-.529-1.179-1.326s.394-1.322,1.247-1.243A1.465,1.465,0,0,1,312.678,60.475Z" transform="translate(-193.629 -36.932)" fill="#3f3f40"/>
      <path id="Path_53" d="M113.9,87.317c-1.945,1.878-3.826,1.979-5.527.274s-1.615-3.56.267-5.531A42.686,42.686,0,0,0,113.9,87.317Z" transform="translate(-66.906 -51.24)" fill="#3a3a3a"/>
      <path id="Path_54" d="M116.367,85.772a42.684,42.684,0,0,1-5.257-5.257c1.878-1.258,3.819-1.235,5.047.049C117.569,82.051,117.644,83.846,116.367,85.772Z" transform="translate(-69.373 -49.694)" fill="#484849"/>
      <path id="Path_55" d="M101.236,77.183c-.751-2.764,2.219-5.55,6.181-5.9C105.085,73.191,101.826,73.758,101.236,77.183Z" transform="translate(-63.134 -44.508)" fill="#3f3f40"/>
      <path id="Path_56" d="M120.24,97.654c.706-1.01,2.024-.95,2.719-1.878s1.543-1.592,1.8-2.749c.083-.376.349-.728.792-.548.315.124.274.507.237.819C125.538,95.427,122.651,97.755,120.24,97.654Z" transform="translate(-75.075 -57.716)" fill="#3a3a3a"/>
      <path id="Path_57" d="M120.05,72.84c2.685-.717,5.328,2.756,5.588,4.506.038.255.023.514-.255.616a.469.469,0,0,1-.6-.315,5.49,5.49,0,0,0-1.915-2.925C122,74.076,121.064,73.52,120.05,72.84Z" transform="translate(-74.956 -45.422)" fill="#454546"/>
      <path id="Path_58" d="M106.176,96.521c-2.629.661-5.674-2.388-5.081-5.591C101.974,93.96,103.54,95.759,106.176,96.521Z" transform="translate(-63.072 -56.779)" fill="#3a3a3a"/>
      <path id="Path_59" d="M127.409,216.724c-.774-.924-.293-2-.345-3-.034-.665.544-.774,1.055-.713.879.105,1.848-.375,2.629.376A17.078,17.078,0,0,0,127.409,216.724Z" transform="translate(-79.274 -132.98)" fill="#3a3a3a"/>
      <path id="Path_60" d="M128.15,217.442a17.078,17.078,0,0,1,3.342-3.342C131.473,218.05,132.033,217.393,128.15,217.442Z" transform="translate(-80.015 -133.698)" fill="#484849"/>
      <path id="Path_61" d="M136.7,163.517c0,.9-.424,1.3-1.247,1.318s-1.277-.289-1.359-1.127a1.168,1.168,0,0,1,1.127-1.4C136.1,162.18,136.489,162.811,136.7,163.517Z" transform="translate(-83.709 -101.342)" fill="#3f3f40"/>
      <path id="Path_62" d="M96.8,163.557c0,.931-.522,1.258-1.329,1.254-.71,0-1.235-.278-1.254-1.059,0-.864.451-1.5,1.3-1.5A1.355,1.355,0,0,1,96.8,163.557Z" transform="translate(-58.826 -101.318)" fill="#3f3f40"/>
      <path id="Path_63" d="M116.8,143.666c-.075.928-.638,1.168-1.416,1.127s-1.2-.376-1.164-1.127c.038-.841.5-1.476,1.386-1.4A1.349,1.349,0,0,1,116.8,143.666Z" transform="translate(-71.312 -88.836)" fill="#404041"/>
      <path id="Path_64" d="M115.5,182.14a1.458,1.458,0,0,1,1.247,1.566c-.064.875-.7,1.059-1.446,1.025-.86-.041-1.153-.563-1.127-1.352C114.177,182.493,114.793,182.286,115.5,182.14Z" transform="translate(-71.288 -113.739)" fill="#404041"/>
    </g>
  </g>
</svg>
