<svg fill="white" xmlns="http://www.w3.org/2000/svg" width="58.646" height="47.459" viewBox="0 0 58.646 47.459">
  <g id="mail-142" transform="translate(126.036 94.496)">
    <g id="Group_27" data-name="Group 27" transform="translate(-126.036 -94.496)">
      <path id="Path_68" data-name="Path 68" d="M49.227,79H9.419C4.225,79,0,74.438,0,68.832V41.707C0,36.1,4.226,31.54,9.419,31.54H49.227c5.193,0,9.419,4.561,9.419,10.167V68.832C58.646,74.438,54.421,79,49.227,79ZM9.419,34.513a6.952,6.952,0,0,0-6.665,7.194V68.832a6.953,6.953,0,0,0,6.665,7.194H49.227a6.953,6.953,0,0,0,6.665-7.194V41.707a6.952,6.952,0,0,0-6.665-7.194Z" transform="translate(0 -31.54)" fill="#fff"/>
      <path id="Path_69" data-name="Path 69" d="M29.521,64.795l21.12,22.214c1.312,1.38,3.327-.789,2.012-2.172L31.534,62.624c-1.312-1.381-3.327.789-2.012,2.171Z" transform="translate(-22.325 -54.487)" fill="#fff"/>
      <path id="Path_70" data-name="Path 70" d="M122.314,87.009,143.434,64.8c1.314-1.382-.7-3.553-2.012-2.172L120.3,84.837c-1.314,1.382.7,3.553,2.012,2.172Z" transform="translate(-91.985 -54.487)" fill="#fff"/>
      <path id="Path_71" data-name="Path 71" d="M166.376,137.732l-14.054-14.385c-1.329-1.36-3.344.808-2.012,2.172L164.363,139.9c1.329,1.36,3.344-.809,2.012-2.172Z" transform="translate(-115.004 -99.969)" fill="#fff"/>
      <path id="Path_72" data-name="Path 72" d="M32.383,139.9l14.054-14.385c1.331-1.363-.683-3.532-2.012-2.172L30.371,137.728c-1.331,1.363.683,3.533,2.012,2.172Z" transform="translate(-22.97 -99.966)" fill="#fff"/>
    </g>
  </g>
</svg>
