<svg xmlns="http://www.w3.org/2000/svg" viewBox="0 0 171.73 175.31"><defs><style>.cls-1{fill:#565a6d;}.cls-2{fill:#473e4c;}.cls-3{fill:#4b3e4d;}.cls-4{fill:#49404f;}.cls-5{fill:#d36786;}.cls-6{fill:#d86888;}.cls-7{fill:#3cadb4;}.cls-8{fill:#4b3141;}.cls-9{fill:#575b6e;}.cls-10{fill:#4a596b;}.cls-11{fill:#5c5166;}.cls-12{fill:#40c0c5;}.cls-13{fill:#299ac1;}.cls-14{fill:#2c93b8;}</style></defs><g id="Layer_2"><g id="Layer_1-2"><path class="cls-1" d="M.39,93.76C.26,91.67,0,89.59,0,87.5Q0,54.86,0,22.22c0-7.87,2.1-10.41,8.58-10.41,21.07,0,42.14-.08,63.21.06,3.14,0,5.73-.6,7.63-3.8C83.4,1.41,88.72-.15,95.36,0c20.53.48,41.07.17,61.61.16,7.45,0,14.74,8.72,14.75,17.71q0,34.82,0,69.63c0,2.09-.21,4.18-.32,6.26-2.9,2.61-6.16,3.19-9.72,3.18q-76-.12-152,0C6.26,97,3.16,96.26.39,93.76ZM57.13,85.3c13.91,0,27.82,0,41.73,0,5.22,0,6.07-1,6.09-7.26q0-23.68,0-47.38c0-6.23-.87-7.27-6.08-7.27q-41.52,0-83.06,0c-5.48,0-6.27.95-6.29,7.5q0,23.44,0,46.9c0,6.57.8,7.5,6.28,7.51C29.58,85.32,43.35,85.3,57.13,85.3ZM162.21,54.46c0-8.06,0-16.11,0-24.16,0-5.73-.94-6.88-5.57-6.91q-19.86-.08-39.72,0c-4.65,0-5.56,1.15-5.58,6.89q-.06,24.17,0,48.32c0,5.44,1,6.64,5.36,6.66q20.05.09,40.12,0c4.41,0,5.33-1.2,5.37-6.64C162.26,70.57,162.21,62.51,162.21,54.46Zm-63-40v-.06c1.71,0,3.43.11,5.13,0a2.45,2.45,0,0,0,2.46-2.54,2.35,2.35,0,0,0-2.31-2.67C101.07,9,97.65,9,94.24,9.1a2.35,2.35,0,0,0-2.4,2.57,2.5,2.5,0,0,0,2.64,2.8C96.05,14.59,97.64,14.49,99.21,14.49ZM124.58,8.8v.28c-1.71,0-3.43-.12-5.13,0a2.39,2.39,0,0,0-2.29,2.7,2.31,2.31,0,0,0,2,2.52,39.19,39.19,0,0,0,11-.08,2.31,2.31,0,0,0,2-2.56,2.33,2.33,0,0,0-2.06-2.47C128.27,9,126.42,8.93,124.58,8.8Zm25.36,5.63c1.71,0,3.42.1,5.13,0a2.48,2.48,0,0,0,2.52-2.48,2.33,2.33,0,0,0-2.25-2.73c-3.54-.15-7.1-.13-10.64,0a2.22,2.22,0,0,0-2.09,2.41,2.39,2.39,0,0,0,2.2,2.79C146.51,14.55,148.23,14.42,149.94,14.43Z"/><path class="cls-2" d="M.39,93.76C3.16,96.26,6.26,97,9.7,97q76-.13,152,0c3.56,0,6.82-.57,9.72-3.18-.61,4.43-13.64,21.54-17,22.31a12.78,12.78,0,0,1-2.77.15c-14,0-28-.07-42.07.07-3,0-5.46-.83-7.32-3.74a8.24,8.24,0,0,0-8-4.14c-5.54.26-11.11.22-16.66,0-3.13-.12-5.74.68-7.7,3.8s-4.7,4.12-8,4.08q-20.64-.25-41.27,0a8.82,8.82,0,0,1-7.69-3.94c-3.23-4.25-6.7-8.23-10.06-12.34C1.39,98.3.06,96.5.39,93.76Z"/><path class="cls-3" d="M57.13,85.3c-13.78,0-27.55,0-41.33,0-5.48,0-6.26-.94-6.28-7.51q0-23.44,0-46.9c0-6.55.81-7.49,6.29-7.5q41.54,0,83.06,0c5.21,0,6.07,1,6.08,7.27q0,23.7,0,47.38c0,6.24-.87,7.25-6.09,7.26C85,85.32,71,85.3,57.13,85.3ZM57,79.12v0c4.89,0,9.78,0,14.68,0,4.44,0,5.73-1.57,5.89-6.81.08-2.73.09-5.46,0-8.2-.09-5.76-1.43-7.38-6.25-7.42-7.41-.06-14.81,0-22.22,0-13.54-.14-12.24,0-12.28,16.06,0,4.37,1.91,6.46,5.46,6.46ZM99.79,68.19h.09V65.31c0-7.07-1.18-8.4-6.95-8.49-12.94-.2-11.46.47-11.49,16.4,0,3.85,1.76,5.94,4.93,6,2.9.09,5.8.07,8.7,0s4.58-2.1,4.71-5.74C99.84,71.72,99.79,70,99.79,68.19ZM33,41.12h.11c0-1.12,0-2.24,0-3.36,0-6.65-1.25-8-6.85-8.13-13-.19-11.61.24-11.56,16.77,0,3.62,1.85,5.57,4.81,5.66s6.06.11,9.09-.05c2.6-.13,4.15-1.95,4.37-5.12C33.07,45,33,43.05,33,41.12ZM46.4,29.58v0H43.63c-5.39.09-6.37,1.44-6.56,7.92-.48,16.47.54,14.59,14.24,14.33,2.62,0,4-2.29,4.11-5.42.11-3.68.14-7.38,0-11.06s-1.75-5.59-4.72-5.78C49.3,29.5,47.85,29.58,46.4,29.58ZM59.17,40.35C59,51.55,59.51,52.16,68.6,52c1.45,0,2.9,0,4.35-.06,2.79-.2,4.47-2,4.54-5.45C77.83,29.05,78.67,29.24,65,29.6c-.4,0-.79,0-1.19,0-3,.29-4.52,2.28-4.61,5.9C59.13,37.14,59.17,38.75,59.17,40.35Zm22.29.11H81.4c0,1.29,0,2.57,0,3.85.06,6.36,1.3,7.83,6.63,7.88,2.37,0,4.75.05,7.12-.07,2.78-.14,4.46-1.93,4.58-5.37.14-3.84.19-7.7.05-11.54-.11-3.39-1.82-5.3-4.58-5.41a93.66,93.66,0,0,0-9.48.11c-2.63.16-4,2.12-4.25,5.27C81.37,36.93,81.46,38.7,81.46,40.46ZM33,68.19h.11c0-1.12,0-2.24,0-3.36,0-6.65-1.26-8-6.84-8.13-13-.2-11.61.31-11.57,16.77,0,3.62,1.85,5.57,4.81,5.66s6.06.1,9.09,0c2.61-.13,4.14-2,4.38-5.12C33.08,72.05,33,70.11,33,68.19Z"/><path class="cls-2" d="M162.21,54.46c0,8,0,16.11,0,24.16,0,5.44-1,6.62-5.37,6.64q-20.06.1-40.12,0c-4.38,0-5.34-1.22-5.36-6.66q-.07-24.15,0-48.32c0-5.74.93-6.87,5.58-6.89q19.86-.09,39.72,0c4.63,0,5.53,1.18,5.57,6.91C162.25,38.35,162.21,46.4,162.21,54.46ZM135,74.71A22.45,22.45,0,0,0,135,61a9,9,0,0,0-3.76-4.57,12.81,12.81,0,0,0-11.25,0c-2.92,1.61-3.75,4.44-3.74,8.2,0,14.65,0,14.57,12,14.63C131.39,79.26,133.72,78.26,135,74.71ZM138.49,61a22.51,22.51,0,0,0,0,13.66c1.34,3.49,3.61,4.83,6.71,4.52,1.71-.17,3.43,0,5.14,0,5.44,0,6.8-1.62,6.87-8.17.15-14.61.09-14.6-12-14.53C142.11,56.51,139.8,57.51,138.49,61Zm-8.1-31.8a10.49,10.49,0,0,0-9.51,0c-3.52,1.12-4.82,4-4.57,8.26.12,2.08,0,4.17,0,6.26,0,6.6,1.4,8.35,6.71,8.37,12.13.06,12.23-.18,11.93-15.05C134.88,32.94,133.7,30.3,130.39,29.24Zm26.79,11.88h-.1c0-2.25.1-4.51,0-6.75s-1.09-4.28-3-4.62c-4.42-.82-9.16-2-13.24.54-3.76,2.32-1.89,7.52-2.23,11.51a29.24,29.24,0,0,0,0,3.86c.19,3.8,1.83,6,5,6.1,2.9.11,5.82.13,8.73,0s4.6-2.2,4.81-5.79C157.26,44.35,157.18,42.73,157.18,41.12Z"/><path class="cls-4" d="M99.21,14.49c-1.57,0-3.16.1-4.73,0a2.5,2.5,0,0,1-2.64-2.8,2.34,2.34,0,0,1,2.4-2.57c3.41-.09,6.83-.08,10.25.08a2.35,2.35,0,0,1,2.31,2.67,2.45,2.45,0,0,1-2.46,2.54c-1.7.15-3.42,0-5.13,0Z"/><path class="cls-4" d="M124.58,8.8c1.84.13,3.69.15,5.51.43a2.33,2.33,0,0,1,2.06,2.47,2.31,2.31,0,0,1-2,2.56,39.19,39.19,0,0,1-11,.08,2.31,2.31,0,0,1-2-2.52,2.39,2.39,0,0,1,2.29-2.7c1.7-.16,3.42,0,5.13,0Z"/><path class="cls-4" d="M149.94,14.43c-1.71,0-3.43.12-5.13,0a2.39,2.39,0,0,1-2.2-2.79,2.22,2.22,0,0,1,2.09-2.41c3.54-.12,7.1-.14,10.64,0a2.33,2.33,0,0,1,2.25,2.73,2.48,2.48,0,0,1-2.52,2.48C153.36,14.53,151.65,14.43,149.94,14.43Z"/><path class="cls-5" d="M57,79.12H42.29c-3.55,0-5.47-2.09-5.46-6.46,0-16.07-1.26-16.2,12.28-16.06,7.41.07,14.81,0,22.22,0,4.82,0,6.16,1.66,6.25,7.42,0,2.74,0,5.47,0,8.2-.16,5.24-1.45,6.76-5.89,6.81-4.9.07-9.79,0-14.68,0Zm16.19-18c-10.6-.63-21.2-.37-31.8-.07-.52.07-.8.42-.86,1.05a65,65,0,0,0,.06,11.59c0,.59.29.9.77.94,10.61.62,21.21.38,31.81.06.52-.06.8-.4.84-1a59.16,59.16,0,0,0,0-11.6C73.89,61.47,73.63,61.16,73.15,61.12Z"/><path class="cls-6" d="M99.79,68.19c0,1.77,0,3.53,0,5.29-.13,3.64-1.71,5.64-4.71,5.74s-5.8.12-8.7,0c-3.17-.09-4.93-2.18-4.93-6,0-15.93-1.45-16.6,11.49-16.4,5.77.09,6.91,1.42,6.95,8.49v2.88ZM85.87,74.65a34.57,34.57,0,0,0,9.53,0c.53-.06.81-.41.86-1a57.45,57.45,0,0,0-.05-11.58c0-.61-.3-.93-.8-1a26.49,26.49,0,0,0-7.9-.12c-1-.17-2-.44-2.49,1.1a62.43,62.43,0,0,0,0,11.6C85.1,74.29,85.37,74.61,85.87,74.65Z"/><path class="cls-6" d="M33,41.12c0,1.93.11,3.86,0,5.77-.22,3.17-1.77,5-4.37,5.12-3,.16-6.06.14-9.09.05s-4.8-2-4.81-5.66c-.05-16.53-1.43-17,11.56-16.77,5.6.08,6.8,1.48,6.85,8.13,0,1.12,0,2.24,0,3.36Zm-3.5,5.43A58.09,58.09,0,0,0,29.4,35c0-.61-.29-.93-.79-1A32.32,32.32,0,0,0,19.09,34c-.54.06-.83.41-.88,1.06a63.09,63.09,0,0,0,.06,11.58c0,.61.29.93.79,1a35.29,35.29,0,0,0,9.52.07C29.11,47.56,29.41,47.21,29.46,46.55Z"/><path class="cls-6" d="M46.4,29.58c1.45,0,2.9-.08,4.35,0,3,.19,4.63,2.16,4.72,5.78s.06,7.38,0,11.06c-.1,3.13-1.49,5.37-4.11,5.42-13.7.26-14.72,2.14-14.24-14.33.19-6.48,1.17-7.83,6.56-7.92H46.4Zm5.32,17a57.45,57.45,0,0,0,0-11.58c0-.61-.3-.93-.79-1A32,32,0,0,0,41.36,34c-.54.06-.83.42-.88,1.07a63,63,0,0,0,.06,11.57c0,.61.29.93.79,1a35.7,35.7,0,0,0,9.52.07C51.38,47.56,51.67,47.21,51.72,46.56Z"/><path class="cls-6" d="M59.17,40.35c0-1.6,0-3.21,0-4.81.09-3.62,1.63-5.61,4.61-5.9.4,0,.79,0,1.19,0,13.69-.36,12.85-.55,12.51,16.9C77.42,49.91,75.74,51.75,73,52c-1.45.1-2.9,0-4.35.06C59.51,52.16,59,51.55,59.17,40.35Zm4.43,7.21a35.29,35.29,0,0,0,9.52.07c.53-.07.82-.42.87-1.07a57.45,57.45,0,0,0,0-11.58c0-.61-.3-.93-.8-1A31.65,31.65,0,0,0,63.62,34c-.53.06-.82.42-.87,1.07a62.11,62.11,0,0,0,.06,11.57C62.84,47.2,63.1,47.52,63.6,47.56Z"/><path class="cls-6" d="M81.46,40.46c0-1.76-.09-3.53,0-5.28.2-3.15,1.62-5.11,4.25-5.27a93.66,93.66,0,0,1,9.48-.11c2.76.11,4.47,2,4.58,5.41.14,3.84.09,7.7-.05,11.54-.12,3.44-1.8,5.23-4.58,5.37-2.37.12-4.75.1-7.12.07-5.33,0-6.57-1.52-6.63-7.88,0-1.28,0-2.56,0-3.85ZM85,35a63,63,0,0,0,.06,11.57c0,.61.3.93.8,1a34.89,34.89,0,0,0,9.52,0q.8-.07.87-1A56.73,56.73,0,0,0,96.21,35c0-.61-.3-.93-.8-1A31.65,31.65,0,0,0,85.89,34C85.36,34,85.07,34.37,85,35Z"/><path class="cls-6" d="M33,68.19c0,1.92.12,3.86,0,5.77-.24,3.15-1.77,5-4.38,5.12-3,.15-6.06.14-9.09,0s-4.8-2-4.81-5.66c0-16.46-1.45-17,11.57-16.77,5.58.09,6.79,1.48,6.84,8.13,0,1.12,0,2.24,0,3.36Zm-4.38,6.53c.53-.07.83-.42.88-1.08a58.85,58.85,0,0,0-.06-11.57c0-.61-.29-.93-.79-1A33,33,0,0,0,19.09,61c-.54.07-.83.43-.88,1.08a63,63,0,0,0,.06,11.57c0,.61.29.93.79,1A35.7,35.7,0,0,0,28.58,74.72Z"/><path class="cls-7" d="M130.39,29.24c3.31,1.06,4.49,3.7,4.58,7.81.3,14.87.2,15.11-11.93,15.05-5.31,0-6.71-1.77-6.71-8.37,0-2.09.1-4.18,0-6.26-.25-4.26,1-7.14,4.57-8.26Zm-4.93,18.47c6.54-.13,5.81,1,5.85-8.31,0-5.6,0-5.6-6.91-5.53-4.5,0-4.23.06-4.58,9C119.58,49,122.73,47.63,125.46,47.71Z"/><path class="cls-7" d="M157.18,41.12c0,1.61.08,3.23,0,4.83-.21,3.59-1.86,5.64-4.81,5.79s-5.83.13-8.73,0c-3.17-.13-4.81-2.3-5-6.1a29.24,29.24,0,0,1,0-3.86c.34-4-1.53-9.19,2.23-11.51,4.08-2.51,8.82-1.36,13.24-.54,1.86.34,2.83,2.34,3,4.62s0,4.5,0,6.75ZM153.59,41c0-7.1,0-7.13-5.23-7.09-7.35,0-5.8-.8-6.24,8.89-.19,4.18,1.13,5.22,4.32,5C154,47.33,153.52,49.06,153.59,41Z"/><path class="cls-7" d="M138.17,61c1.31-3.53,3.62-4.53,6.71-4.55,12.1-.07,12.16-.08,12,14.53-.07,6.94-1.59,8.34-7.88,8.16-1.55-.05-3.11,0-4.66.08-2.84.1-4.92-1.28-6.18-4.56Zm9.48,13.76c6.63-.14,5.89,1,5.93-8.21,0-5.69,0-5.69-6.83-5.63-4.68,0-4.45,0-4.65,9.42C142,76.26,145.13,74.61,147.65,74.8Z"/><path class="cls-7" d="M131.27,56.45A9,9,0,0,1,135,61q0,6.85,0,13.69c-1.32,3.55-3.65,4.55-6.74,4.54-12-.06-12,0-12-14.63,0-3.76.82-6.59,3.74-8.2ZM125.9,61c-7.1.09-5.65-.72-6,8.66-.15,3.86.64,5.5,4.1,5.28,7.89-.51,7.3,1.25,7.34-7.07C131.34,61,131.32,61,125.9,61Z"/><path class="cls-8" d="M135,74.71q0-6.84,0-13.69A22.45,22.45,0,0,1,135,74.71Z"/><path class="cls-8" d="M138.17,61V74.7A22.51,22.51,0,0,1,138.17,61Z"/><path class="cls-8" d="M131.27,56.45l-11.25,0A12.81,12.81,0,0,1,131.27,56.45Z"/><path class="cls-8" d="M130.39,29.24l-9.51,0A10.49,10.49,0,0,1,130.39,29.24Z"/><path class="cls-9" d="M41.35,61.05c10.6-.3,21.2-.56,31.8.07l.77.94a59.16,59.16,0,0,1,0,11.6l-.84,1c-10.6.32-21.2.56-31.81-.06l-.77-.94a65,65,0,0,1-.06-11.59Z"/><path class="cls-10" d="M73.13,74.69l.84-1C73.93,74.29,73.65,74.63,73.13,74.69Z"/><path class="cls-10" d="M73.92,62.06l-.77-.94C73.63,61.16,73.89,61.47,73.92,62.06Z"/><path class="cls-10" d="M41.35,61.05l-.86,1.05C40.55,61.47,40.83,61.12,41.35,61.05Z"/><path class="cls-10" d="M40.55,73.69l.77.94C40.84,74.59,40.58,74.28,40.55,73.69Z"/><path class="cls-9" d="M87.51,61a26.49,26.49,0,0,1,7.9.12l.8,1a57.45,57.45,0,0,1,.05,11.58l-.86,1a34.57,34.57,0,0,1-9.53,0l-.8-1a62.43,62.43,0,0,1,0-11.6Z"/><path class="cls-10" d="M87.51,61,85,62.08C85.5,60.54,86.52,60.81,87.51,61Z"/><path class="cls-10" d="M96.21,62.07l-.8-1C95.91,61.14,96.18,61.46,96.21,62.07Z"/><path class="cls-10" d="M85.07,73.68l.8,1C85.37,74.61,85.1,74.29,85.07,73.68Z"/><path class="cls-10" d="M95.4,74.7l.86-1C96.21,74.29,95.93,74.64,95.4,74.7Z"/><path class="cls-9" d="M19.09,34a32.32,32.32,0,0,1,9.52.06l.79,1a58.09,58.09,0,0,1,.06,11.57l-.88,1.08a35.29,35.29,0,0,1-9.52-.07l-.79-1A63.09,63.09,0,0,1,18.21,35Z"/><path class="cls-10" d="M19.09,34,18.21,35C18.26,34.36,18.55,34,19.09,34Z"/><path class="cls-10" d="M29.4,35l-.79-1C29.11,34.05,29.37,34.37,29.4,35Z"/><path class="cls-10" d="M28.58,47.63l.88-1.08C29.41,47.21,29.11,47.56,28.58,47.63Z"/><path class="cls-10" d="M18.27,46.59l.79,1C18.56,47.52,18.3,47.2,18.27,46.59Z"/><path class="cls-9" d="M51.67,35a57.45,57.45,0,0,1,0,11.58l-.87,1.07a35.7,35.7,0,0,1-9.52-.07l-.79-1A63,63,0,0,1,40.48,35c.29-.36.58-.72.88-1.07a32,32,0,0,1,9.52.06Z"/><path class="cls-10" d="M51.67,35l-.79-1C51.37,34.05,51.64,34.37,51.67,35Z"/><path class="cls-10" d="M50.85,47.63l.87-1.07C51.67,47.21,51.38,47.56,50.85,47.63Z"/><path class="cls-10" d="M40.54,46.59l.79,1C40.83,47.52,40.57,47.2,40.54,46.59Z"/><path class="cls-10" d="M41.36,34c-.3.35-.59.71-.88,1.07C40.53,34.37,40.82,34,41.36,34Z"/><path class="cls-9" d="M62.81,46.59A62.11,62.11,0,0,1,62.75,35L63.62,34a31.65,31.65,0,0,1,9.52.06l.8,1a57.45,57.45,0,0,1,0,11.58l-.87,1.07a35.29,35.29,0,0,1-9.52-.07Z"/><path class="cls-10" d="M62.81,46.59l.79,1C63.1,47.52,62.84,47.2,62.81,46.59Z"/><path class="cls-10" d="M73.12,47.63,74,46.56C73.94,47.21,73.65,47.56,73.12,47.63Z"/><path class="cls-10" d="M73.94,35l-.8-1C73.64,34.05,73.91,34.37,73.94,35Z"/><path class="cls-10" d="M63.62,34,62.75,35C62.8,34.37,63.09,34,63.62,34Z"/><path class="cls-9" d="M85.89,34a31.65,31.65,0,0,1,9.52.06l.8,1a56.73,56.73,0,0,1,.05,11.58l-.87,1a34.89,34.89,0,0,1-9.52,0l-.8-1A63,63,0,0,1,85,35Z"/><path class="cls-10" d="M85.07,46.59l.8,1C85.37,47.52,85.1,47.2,85.07,46.59Z"/><path class="cls-10" d="M95.39,47.61l.87-1Q96.18,47.54,95.39,47.61Z"/><path class="cls-10" d="M85.89,34,85,35C85.07,34.37,85.36,34,85.89,34Z"/><path class="cls-10" d="M96.21,35l-.8-1C95.91,34.05,96.18,34.37,96.21,35Z"/><path class="cls-9" d="M18.27,73.68a63,63,0,0,1-.06-11.57L19.09,61a33,33,0,0,1,9.52.07l.79,1a58.85,58.85,0,0,1,.06,11.57l-.88,1.08a35.7,35.7,0,0,1-9.52-.07Z"/><path class="cls-10" d="M18.27,73.68l.79,1C18.56,74.61,18.3,74.29,18.27,73.68Z"/><path class="cls-10" d="M28.58,74.72l.88-1.08C29.41,74.3,29.11,74.65,28.58,74.72Z"/><path class="cls-10" d="M29.4,62.07l-.79-1C29.11,61.14,29.37,61.46,29.4,62.07Z"/><path class="cls-10" d="M19.09,61l-.88,1.08C18.26,61.46,18.55,61.1,19.09,61Z"/><path class="cls-11" d="M125.47,47.7c-2.74-.07-5.89,1.28-5.65-4.8.35-9,.08-9,4.58-9,6.89-.07,6.93-.07,6.91,5.53C131.27,48.72,132,47.58,125.47,47.7Zm.41-1.19c4,.7,4.52-2.2,4.58-6.15.07-4.39-1.66-5.38-4.88-5.47-3.72-.1-4.79,1.82-4.79,6.08C120.78,45.54,122.39,47.12,125.88,46.51Z"/><path class="cls-11" d="M153.59,41c-.07,8.09.44,6.36-7.15,6.82-3.19.2-4.51-.84-4.32-5,.44-9.69-1.11-8.84,6.24-8.89C153.59,33.84,153.59,33.87,153.59,41Zm-6,5.54c3.38.56,5.28-.72,5.17-5.42-.09-3.7-.5-6.27-4.29-6.17-3.11.08-5.49.34-5.37,5.32C143.17,44.08,143.45,47.18,147.56,46.51Z"/><path class="cls-11" d="M147.65,74.8c-2.52-.19-5.68,1.46-5.55-4.42.2-9.38,0-9.38,4.65-9.42,6.81-.06,6.85-.06,6.83,5.63C153.54,75.85,154.28,74.66,147.65,74.8Zm-4.45-6.94c-.57,4.55,1.26,5.92,4.78,5.9,3.36,0,4.76-1.4,4.76-5.63s-1-6.22-4.73-6.15C144.53,62,142.62,63.26,143.2,67.86Z"/><path class="cls-11" d="M125.9,61c5.42,0,5.44,0,5.41,6.87,0,8.32.55,6.56-7.34,7.07-3.46.22-4.25-1.42-4.1-5.28C120.25,60.24,118.8,61.05,125.9,61Zm-.43,1.22c-3.76-.86-4.64,1.66-4.67,5.84s1.21,5.73,4.65,5.75,5.08-1.24,5-5.79C130.43,63.71,129.36,61.46,125.47,62.18Z"/><path class="cls-1" d="M125.88,46.51c-3.49.61-5.1-1-5.09-5.54,0-4.26,1.07-6.18,4.79-6.08,3.22.09,5,1.08,4.88,5.47C130.4,44.31,129.9,47.21,125.88,46.51Z"/><path class="cls-1" d="M147.56,46.51c-4.11.67-4.39-2.43-4.49-6.27-.12-5,2.26-5.24,5.37-5.32,3.79-.1,4.2,2.47,4.29,6.17C152.84,45.79,150.94,47.07,147.56,46.51Z"/><path class="cls-1" d="M143.2,67.86c-.58-4.6,1.33-5.82,4.81-5.88,3.77-.07,4.73,2,4.73,6.15s-1.4,5.62-4.76,5.63C144.46,73.78,142.63,72.41,143.2,67.86Z"/><path class="cls-1" d="M125.47,62.18c3.89-.72,5,1.53,5,5.8.05,4.55-1.56,5.8-5,5.79s-4.68-1.63-4.65-5.75S121.71,61.32,125.47,62.18Z"/><path class="cls-2" d="M159.8,162.31c-1.39,9.33-4.85,12.9-12.67,13-5.85,0-11.71.06-17.57,0-7.56-.07-11.06-3.8-12.26-13q.06-16.11.13-32.22c3.77.26,6.35,2.58,7.94,6.69.46,1.2.94,2.42,1.51,3.55,1.27,2.47,5.17,3.65,8,2.49,2.38-1,1.58-3.48,1.65-5.44.12-3.2,0-6.4,0-9.61l3.94,0c0,2.8,0,5.6,0,8.4,0,6.76,1.51,8.2,6.89,6.71,2.4-.67,3.16-3.13,4-5.39,1.66-4.32,4.12-7.18,8.25-7.31.08.25.15.51-.35.76V143a22.06,22.06,0,0,1,.66,3.26v4c-.06.82-.07,1.64-.08,2.45C159.85,155.92,159.82,159.12,159.8,162.31Zm-21.53,3.31c2.9.17,5.38-2.53,5.56-6,.2-3.68-2.17-6.8-5.2-6.87-2.87-.06-5.31,2.76-5.4,6.24S135.4,165.45,138.27,165.62Z"/><path class="cls-1" d="M136.57,127.78c0,3.21.11,6.41,0,9.61-.07,2,.73,4.47-1.65,5.44-2.86,1.16-6.76,0-8-2.49-.57-1.13-1-2.35-1.51-3.55-1.59-4.11-4.17-6.43-7.94-6.69-.05-3.2-.1-6.41-.14-9.61,0-4.28,0-8.56.06-12.83.18-7.42,3.77-13.33,9.27-15.42,4.95-1.89,6.39-.69,6.67,5.51.09,3.29-.54,6.63.5,9.85-.84,2.83-.62,5.75-.48,8.67C133.07,120.66,132.67,125.12,136.57,127.78Z"/><path class="cls-1" d="M159.64,130.17c-4.13.13-6.59,3-8.25,7.31-.87,2.26-1.63,4.72-4,5.39-5.38,1.49-6.89,0-6.89-6.71,0-2.8,0-5.6,0-8.4a7.92,7.92,0,0,0,3.18-8.16c.17-4,.56-8.08-.49-12,1.19-3.19.45-6.53.58-9.81.29-6.2,1.76-7.42,6.67-5.52,5.52,2.14,9.1,8,9.27,15.42.09,4.27.06,8.55.08,12.82,0,2.14.07,4.27.1,6.4Z"/><path class="cls-12" d="M117.29,120.49c0,3.2.09,6.41.14,9.61q-.06,16.11-.13,32.22c-5.21-.73-7.91-4.25-7.94-10.48q-.06-10.43,0-20.84C109.39,124.75,112.05,121.28,117.29,120.49Z"/><path class="cls-13" d="M159.85,162.31c0-3.19.05-6.39.07-9.59,2.13.44,2.94,3.62,5.77,4.26-1.8-3.18-3.38-5.43-5.74-6.71v-4c3.19-1.43,4.46-5.9,7.69-7.27l0,14.54-.43,1.87C166.21,160,163.55,162,159.85,162.31Z"/><path class="cls-2" d="M143.78,97.9c-.13,3.28.61,6.63-.58,9.81-1.21-1.78-2.51-3.36-4.64-3.1-2.21-.34-3.58,1.2-4.77,3.14-1-3.21-.41-6.56-.5-9.85Z"/><path class="cls-13" d="M159.9,126.87c0-2.13-.07-4.26-.1-6.4,6.21,1.21,8.16,4.62,7.8,13.67C164.36,132.77,163.1,128.3,159.9,126.87Z"/><path class="cls-14" d="M160.53,127c2.94,1.59,4.23,5.78,7.35,7.1V139c-3.24,1.37-4.5,5.84-7.7,7.27l0-3.26c1.83-.08,2.91-1.63,4.06-3s2.25-2.84.86-4.78-2.57-4.06-4.92-4.25l-.86-2.9Z"/><path class="cls-14" d="M167.14,155.41l.43-1.87A2.2,2.2,0,0,1,167.14,155.41Z"/><path class="cls-12" d="M138.27,165.62c-2.87-.17-5.13-3.15-5-6.67s2.53-6.3,5.4-6.24c3,.07,5.4,3.19,5.2,6.87C143.65,163.09,141.17,165.79,138.27,165.62Z"/><path class="cls-14" d="M143.69,119.6a7.92,7.92,0,0,1-3.18,8.16l-3.94,0c-3.9-2.66-3.5-7.12-3.26-11.51l.56.17c2.92,6.68,4.43,7.24,9.21,3.47A2.69,2.69,0,0,1,143.69,119.6Z"/><path class="cls-13" d="M160,130.93c2.35.19,3.58,2.38,4.92,4.25s.26,3.41-.86,4.78-2.23,3-4.06,3Z"/><path class="cls-14" d="M159.91,150.27c2.35,1.28,3.93,3.53,5.73,6.71-2.83-.64-3.64-3.82-5.77-4.26Z"/><path class="cls-12" d="M133.87,116.44l-.56-.17c-.14-2.92-.36-5.84.48-8.67,1.19-1.94,2.56-3.48,4.77-3.14C138.65,109.41,139.06,114.55,133.87,116.44Z"/><path class="cls-13" d="M133.87,116.44c5.19-1.89,4.78-7,4.69-12,2.13-.26,3.43,1.32,4.64,3.09,1.05,4,.66,8,.49,12a2.69,2.69,0,0,0-.61.31C138.3,123.68,136.79,123.12,133.87,116.44Z"/></g></g></svg>