<svg xmlns="http://www.w3.org/2000/svg" viewBox="0 0 161.2 161.09"><defs><style>.cls-1{fill:#2a539b;}.cls-2{fill:#fbe06a;}.cls-3{fill:#fadf6b;}.cls-4{fill:#f1db64;}.cls-5{fill:#9c9f7d;}.cls-6{fill:#5a77ba;}.cls-7{fill:#5f84c3;}.cls-8{fill:#234d94;}.cls-9{fill:#1c4a9c;}.cls-10{fill:#29539c;}.cls-11{fill:#58c5d0;}.cls-12{fill:#2f5499;}.cls-13{fill:#e0f2f4;}.cls-14{fill:#e89056;}</style></defs><g id="Layer_2" data-name="Layer 2"><g id="Layer_1-2" data-name="Layer 1"><path class="cls-1" d="M118.52,151.37c-.7,5.27-2.55,6.91-7.83,6.95l-10.64.09-1.6-.31a.82.82,0,0,0-1.37,0,.22.22,0,0,0,0,.32H95.82q-15.22-.5-30.43,0h-1.3a.23.23,0,0,0,0-.32.81.81,0,0,0-1.36,0l-1.56.32c-3.61,0-7.23,0-10.84-.09-5.15,0-7-1.73-7.67-6.95,1.65-4.52,3.13-5.6,7.77-5.63s9.38-.12,14.06,0c2.18.08,2.79-.67,2.66-2.73a65.4,65.4,0,0,1,0-7.54c.11-2-.33-2.8-2.59-2.79-15,.14-29.95.11-44.93.14-4.3-.51-8.63.33-13-.74C2,131,1.1,127.29.15,123.52a9.51,9.51,0,0,1-.06-2.39C.08,94,.15,66.89,0,39.77a14.05,14.05,0,0,1,3-9.18c1.44-1.74,4.43-2.38,7.08-2.4,3.2,0,6.4-.08,9.6-.13l69.15.09c1.52,0,3.3-.5,4.13,1.5-.36,3.34-3,2.64-5,2.64q-38.13.06-76.27,0c-5.4,0-7.5,2.09-7.51,7.43q0,40.71,0,81.43c0,5.23,2.24,7.45,7.58,7.45q68.88,0,137.77,0c5.09,0,7.39-2.29,7.4-7.29q0-40.87,0-81.77c0-5.11-2.17-7.23-7.35-7.24q-12.36,0-24.73,0c-2,0-3.75-.14-3.89-2.71.61-1.71,2.07-1.47,3.42-1.48l17-.08c4.41.61,8.85-.3,13.31.78,4.86,1.18,5.35,5,6.27,8.66a10.1,10.1,0,0,1,.06,2.4c0,27-.08,54.06.09,81.08a16.8,16.8,0,0,1-2.69,9.36c-1.25,1.89-4.7,2.2-7.35,2.37-3.2.21-6.41.12-9.61.16-12.47,0-24.93-.1-37.39-.05-3.28,0-7.76-1.48-9.5.63s-.42,6.32-.63,9.61c-.13,2.06.48,2.81,2.66,2.73,4.68-.17,9.37-.07,14.06,0S116.87,146.85,118.52,151.37ZM49.61,154.7c1.06,1,2.36.73,3.59.73H108c1.24,0,2.54.22,3.59-.73,1.36-.6,3-1.07,2.59-3s-2.11-1.78-3.59-1.78h-60c-1.47,0-3.18-.19-3.59,1.77S48.26,154.09,49.61,154.7Zm31.23-21.95c-10.26,0-10.26,0-9.8,10.14,0,.11,0,.23,0,.34-.15,1.92.76,2.63,2.64,2.6,4.34-.08,8.68-.16,13,0,2.7.11,3.53-.81,3.54-3.51C90.24,132.75,90.33,132.75,80.84,132.75Z"/><path class="cls-2" d="M93,29.65c-.83-2-2.61-1.49-4.13-1.5l-69.15-.09A74.35,74.35,0,0,1,60.59,2.59c31-7.3,57.6.89,79.67,23.82a14.28,14.28,0,0,1,1.21,1.65l-17,.08c-1.35,0-2.81-.23-3.42,1.48Z"/><path class="cls-3" d="M19.65,132.87c15,0,30,0,44.93-.14,2.26,0,2.7.81,2.59,2.79a65.4,65.4,0,0,0,0,7.54c.13,2.06-.48,2.81-2.66,2.73-4.68-.17-9.37-.07-14.06,0s-6.12,1.11-7.77,5.63A70.44,70.44,0,0,1,19.65,132.87Z"/><path class="cls-3" d="M118.52,151.37c-1.65-4.52-3.12-5.61-7.77-5.63s-9.38-.12-14.06,0c-2.18.08-2.79-.67-2.66-2.73.21-3.29-1-7.62.63-9.61s6.22-.61,9.5-.63c12.46,0,24.92,0,37.39.05A70.44,70.44,0,0,1,118.52,151.37Z"/><path class="cls-4" d="M64.09,158.42h1.3c4.53.92,9.11.38,13.67.36,5.58,0,11.19.56,16.76-.36h1.29c.11.39.2.79.75.5a69.76,69.76,0,0,1-34.45,0C64,159.18,64,158.78,64.09,158.42Z"/><path class="cls-5" d="M64.09,158.74c-.08.36-.14.76-.68.52a3.12,3.12,0,0,1-2.22-.53l1.56-.32h1.36A.25.25,0,0,1,64.09,158.74Z"/><path class="cls-5" d="M97.86,159.24c-.55.28-.64-.12-.75-.5a.24.24,0,0,1,0-.33h1.37l1.6.32A3,3,0,0,1,97.86,159.24Z"/><path class="cls-6" d="M93,29.65l28,0c.14,2.57,1.91,2.71,3.89,2.71q12.36,0,24.73,0c5.18,0,7.34,2.13,7.35,7.24q0,40.89,0,81.77c0,5-2.31,7.29-7.4,7.29q-68.88,0-137.77,0c-5.34,0-7.57-2.22-7.58-7.45q0-40.71,0-81.43c0-5.34,2.11-7.42,7.51-7.43q38.14,0,76.27,0C90,32.29,92.64,33,93,29.65ZM80.59,37.87H21.83c-8.67,0-12.69,4-12.69,12.55q0,30.06,0,60.13c0,8.55,4,12.54,12.71,12.54H139.36c8.66,0,12.69-4,12.7-12.56q0-30.06,0-60.13c0-8.57-4-12.53-12.72-12.53Z"/><path class="cls-7" d="M49.61,155c-1.35-.6-3-1.08-2.59-3s2.12-1.78,3.59-1.78q30,0,60,0c1.48,0,3.19-.18,3.59,1.78s-1.23,2.44-2.59,3Z"/><path class="cls-6" d="M80.84,132.75c9.49,0,9.4,0,9.38,9.6,0,2.7-.84,3.62-3.54,3.51-4.32-.19-8.66-.11-13,0-1.88,0-2.79-.68-2.64-2.6,0-.11,0-.23,0-.34C70.58,132.75,70.58,132.75,80.84,132.75Z"/><path class="cls-8" d="M49.61,155h62c-1,.95-2.35.74-3.59.74H53.2C52,155.71,50.67,155.92,49.61,155Z"/><path class="cls-5" d="M95.82,158.43c-5.57.92-11.18.33-16.76.36-4.56,0-9.14.56-13.67-.36Q80.6,157.94,95.82,158.43Z"/><path class="cls-9" d="M64.11,158.41H62.75A.81.81,0,0,1,64.11,158.41Z"/><path class="cls-9" d="M98.45,158.41H97.08A.83.83,0,0,1,98.45,158.41Z"/><path class="cls-10" d="M80.59,37.87h58.75c8.69,0,12.71,4,12.72,12.53q0,30.06,0,60.13c0,8.57-4,12.56-12.7,12.56H21.85c-8.67,0-12.71-4-12.71-12.54q0-30.08,0-60.13c0-8.58,4-12.55,12.69-12.55ZM80.75,42Q51,42,21.3,42c-5.84,0-8,2.21-8,8.14q0,30.24,0,60.49c0,6.09,2.22,8.34,8.23,8.34q59.1,0,118.21,0c5.87,0,8.19-2.27,8.19-8q0-30.4,0-60.82c0-5.92-2.19-8.1-8.06-8.11Q110.3,42,80.75,42Z"/><path class="cls-11" d="M80.75,42q29.55,0,59.11,0c5.87,0,8,2.19,8.06,8.11q0,30.41,0,60.82c0,5.77-2.32,8-8.19,8q-59.1,0-118.21,0c-6,0-8.23-2.25-8.23-8.34q0-30.25,0-60.49c0-5.93,2.18-8.13,8-8.14Q51,42,80.75,42Zm-.18,61.78a.94.94,0,0,0,.89-1,31.51,31.51,0,0,0,.07-4.45c-.24-2.47.22-3.77,3.14-4.43A11.85,11.85,0,0,0,94,84.76c.72-3.29,2.33-3.51,5-3.48,1.63,0,4.62,1,4.64-.92,0-1.67-3.11-.89-4.8-.85-2.56.06-4-.32-4.77-3.33A12.16,12.16,0,0,0,84.73,67c-2.83-.7-3.23-2-3.26-4.52,0-1.73,1.18-4.89-1-4.93-1.75,0-.86,3.3-.8,5.07.09,2.63-.7,3.83-3.4,4.41-3.07.65-6.07,2.43-7.22,5.35-2,5-4.44,8.6-10.6,7.2a.91.91,0,0,0-1.14,1c0,.77.73.79,1.26.81a35,35,0,0,0,4.46,0c2.28-.22,3.44.37,3.94,2.93.71,3.59,2.79,7.06,6.24,8.12,5.31,1.64,7.6,4.41,6.43,9.9C79.57,102.87,79.7,103.7,80.57,103.77ZM24.73,76.14c0-6.06,0-12.13,0-18.19,0-1,.35-2.7-1.31-2.62-1.25.07-1,1.59-1,2.57q0,18.34,0,36.71c0,1-.37,2.7,1.3,2.62,1.25-.07,1-1.58,1-2.56C24.75,88.49,24.73,82.31,24.73,76.14Z"/><path class="cls-12" d="M80.57,103.77c-.87-.07-1-.9-.88-1.49,1.17-5.49-1.12-8.26-6.43-9.9-3.45-1.06-5.53-4.53-6.24-8.12-.5-2.56-1.66-3.15-3.94-2.93a35,35,0,0,1-4.46,0c-.53,0-1.22,0-1.26-.81a.91.91,0,0,1,1.14-1c6.16,1.4,8.61-2.16,10.6-7.2,1.15-2.92,4.15-4.7,7.22-5.35,2.7-.58,3.49-1.78,3.4-4.41-.06-1.77-1-5.11.8-5.07,2.13,0,.93,3.2,1,4.93,0,2.47.43,3.82,3.26,4.52A12.16,12.16,0,0,1,94,76.18c.72,3,2.21,3.39,4.77,3.33,1.69,0,4.82-.82,4.8.85,0,2-3,.93-4.64.92-2.64,0-4.25.19-5,3.48a11.85,11.85,0,0,1-9.3,9.16c-2.92.66-3.38,2-3.14,4.43a31.51,31.51,0,0,1-.07,4.45A.94.94,0,0,1,80.57,103.77Zm-4-23.62c0,1-.53,1.17-1.13,1.19a45,45,0,0,1-4.79,0c-2.09-.16-2.31.78-1.77,2.46a12.21,12.21,0,0,0,8.37,8.34c1.33.42,2.53.62,2.4-1.48a41.48,41.48,0,0,1,0-4.46c0-.72-.18-1.8,1-1.73.9.06.82,1,.84,1.6a33.15,33.15,0,0,1,0,4.11c-.22,2.23.79,2.55,2.62,1.93A12.47,12.47,0,0,0,92,84.93c1-2.34,1.12-4-2.29-3.56a21.81,21.81,0,0,1-3.43,0c-.66,0-1.52,0-1.57-.88s.77-1,1.44-1a39,39,0,0,1,4.46,0c2.09.18,2.29-.76,1.75-2.44a12.09,12.09,0,0,0-6.79-7.72c-3.69-1.66-3.94-1.48-4,2.61,0,1,0,2.06,0,3.08,0,.67-.06,1.47-1,1.41-.72-.05-.77-.72-.82-1.27s0-1.15,0-1.71c-.24-1.65.92-4.1-.64-4.77-1.81-.77-3.86.75-5.55,1.94a11.14,11.14,0,0,0-3.23,3.5c-.88,1.48-2.09,3.24-1.41,4.73s2.69.43,4.11.6c.9.11,1.83,0,2.73.14C76,79.61,76.34,80,76.56,80.15Z"/><path class="cls-13" d="M24.73,76.14c0,6.17,0,12.35,0,18.53,0,1,.21,2.49-1,2.56-1.67.08-1.3-1.59-1.3-2.62q-.06-18.36,0-36.71c0-1-.22-2.5,1-2.57,1.66-.08,1.3,1.59,1.31,2.62C24.76,64,24.73,70.08,24.73,76.14Z"/><path class="cls-14" d="M76.56,80.15c-.22-.15-.55-.54-.93-.59-.9-.13-1.83,0-2.73-.14-1.42-.17-3.47.79-4.11-.6s.53-3.25,1.41-4.73a11.14,11.14,0,0,1,3.23-3.5c1.69-1.19,3.74-2.71,5.55-1.94,1.56.67.4,3.12.64,4.77.08.56,0,1.14,0,1.71s.1,1.22.82,1.27c1,.06,1-.74,1-1.41,0-1,0-2.06,0-3.08,0-4.09.27-4.27,4-2.61A12.09,12.09,0,0,1,92.31,77c.54,1.68.34,2.62-1.75,2.44a39,39,0,0,0-4.46,0c-.67,0-1.5.12-1.44,1s.91.85,1.57.88a21.81,21.81,0,0,0,3.43,0c3.41-.46,3.29,1.22,2.29,3.56a12.47,12.47,0,0,1-7.79,7.21c-1.83.62-2.84.3-2.62-1.93a33.15,33.15,0,0,0,0-4.11c0-.65.06-1.54-.84-1.6-1.22-.07-1,1-1,1.73a41.48,41.48,0,0,0,0,4.46c.13,2.1-1.07,1.9-2.4,1.48a12.21,12.21,0,0,1-8.37-8.34c-.54-1.68-.32-2.62,1.77-2.46a45,45,0,0,0,4.79,0C76,81.32,76.58,81.14,76.56,80.15Z"/></g></g></svg>