<svg xmlns="http://www.w3.org/2000/svg" viewBox="0 0 202 202"><defs><style>.cls-1{fill:#e42127;}.cls-2{fill:#fffdfd;}.cls-3{fill:#e42126;}.cls-4{fill:#fffcfc;}.cls-5{fill:#fffbfa;}.cls-6{fill:#e42428;}</style></defs><g id="Layer_2" data-name="Layer 2"><g id="Layer_1-2" data-name="Layer 1"><rect class="cls-1" width="202" height="202"/><path class="cls-2" d="M100.84,69.48h62.82a18.45,18.45,0,0,1,2.79.1,19.68,19.68,0,0,1,3.1.66,20.48,20.48,0,0,1,3.07,1.23,17.49,17.49,0,0,1,3.43,2.28c4.88,4.13,7.62,9.56,9.27,15.61A45.57,45.57,0,0,1,186.77,104a40.63,40.63,0,0,1-4.2,16.39A26.6,26.6,0,0,1,177,128a18.64,18.64,0,0,1-4.07,2.89,18,18,0,0,1-3.37,1.38c-.84.24-1.68.4-2.53.57a15,15,0,0,1-3,.21q-63.18,0-126.38,0a15.46,15.46,0,0,1-2.55-.11,21.05,21.05,0,0,1-3-.67,21.85,21.85,0,0,1-3.28-1.37,19.86,19.86,0,0,1-4.51-3.31,26.16,26.16,0,0,1-4.93-6.61,37.5,37.5,0,0,1-3.91-11.78,47.5,47.5,0,0,1-.5-11.49,43.28,43.28,0,0,1,2.49-11.79,30.67,30.67,0,0,1,5.14-9.1,21.59,21.59,0,0,1,4.32-4,18.43,18.43,0,0,1,4.32-2.23,20.7,20.7,0,0,1,3.32-.84,21.59,21.59,0,0,1,3.67-.22Zm0,55.77h62.46a21.69,21.69,0,0,0,2.67-.12,15.38,15.38,0,0,0,4.34-1.15,13.29,13.29,0,0,0,3.35-2.07,19.7,19.7,0,0,0,5.33-7.36,31.89,31.89,0,0,0,2.49-10.71,36.75,36.75,0,0,0-.64-9.87A25,25,0,0,0,176,83.1a15,15,0,0,0-8.89-5.54,15.59,15.59,0,0,0-3.13-.3H39.39a27,27,0,0,0-3.36.13,17.62,17.62,0,0,0-3.79.85A13.4,13.4,0,0,0,28.83,80a18,18,0,0,0-5.07,5.83,29.44,29.44,0,0,0-3.49,11.79,37.76,37.76,0,0,0,.07,7.81,29.92,29.92,0,0,0,2.58,9.6,17.8,17.8,0,0,0,7.42,8.39,14.27,14.27,0,0,0,4,1.49,18.39,18.39,0,0,0,3.48.31Z"/><path class="cls-3" d="M100.82,125.25h-63a18.39,18.39,0,0,1-3.48-.31,14.27,14.27,0,0,1-4-1.49,17.8,17.8,0,0,1-7.42-8.39,29.92,29.92,0,0,1-2.58-9.6,37.76,37.76,0,0,1-.07-7.81,29.44,29.44,0,0,1,3.49-11.79A18,18,0,0,1,28.83,80a13.4,13.4,0,0,1,3.41-1.8A17.62,17.62,0,0,1,36,77.39a27,27,0,0,1,3.36-.13H164a15.59,15.59,0,0,1,3.13.3A15,15,0,0,1,176,83.1,25,25,0,0,1,180.82,94a36.75,36.75,0,0,1,.64,9.87A31.89,31.89,0,0,1,179,114.54a19.7,19.7,0,0,1-5.33,7.36,13.29,13.29,0,0,1-3.35,2.07,15.38,15.38,0,0,1-4.34,1.15,21.69,21.69,0,0,1-2.67.12ZM47,107.1h-.09l-2.19-5.3q-3.26-7.89-6.5-15.8a.69.69,0,0,0-.64-.42c-1.86,0-3.73,0-5.59,0-.32,0-.44.06-.44.41q0,15.19,0,30.39c0,.34.08.45.45.45,1.81,0,3.63,0,5.45,0,.44,0,.57-.08.57-.56,0-6.83,0-13.66,0-20.49v-.65c.1.18.15.25.19.34l8.7,21c.13.32.3.38.85.28a13.82,13.82,0,0,1,4-.09c1.5.19,1.7.26,1.7-.32q0-15.16,0-30.33c0-.4-.15-.46-.5-.46-1.8,0-3.6,0-5.4,0-.46,0-.58.1-.57.57q0,10.22,0,20.44ZM145,115c0,.26,0,.44,0,.62,0,.39.05.54.5.53,1.65,0,3.3,0,5,0,.37,0,.48-.08.48-.47q0-14.52,0-29c0-.37-.11-.46-.46-.45-1.65,0-3.3,0-4.95,0-.45,0-.52.15-.51.54,0,3.31,0,6.63,0,9.94v.48c-.16-.17-.36-.2-.5-.33a6.2,6.2,0,0,0-3.12-1.45,3.72,3.72,0,0,0-1.24.13,4.84,4.84,0,0,0-2.23,1,10,10,0,0,0-3,4.44,14.54,14.54,0,0,0-.77,7.1,12,12,0,0,0,2.58,6.35,6.32,6.32,0,0,0,3.66,2.24,4.73,4.73,0,0,0,2.44-.3,4,4,0,0,0,.71-.32C144,115.8,144.44,115.42,145,115ZM71.55,98.13c0-.51,0-1,0-1.54,0-.29-.08-.38-.39-.38-1.73,0-3.45,0-5.18,0-.37,0-.42.15-.42.45,0,.92,0,1.83,0,2.75,0,5.42,0,10.84,0,16.25,0,.42.11.53.53.53,1.64,0,3.27,0,4.9,0,.45,0,.56-.11.56-.55,0-4.09,0-8.18,0-12.27a4.55,4.55,0,0,1,1-3,2.23,2.23,0,0,1,3.57-.18,4.39,4.39,0,0,1,1.06,3.08c0,4.12,0,8.24,0,12.36,0,.4.09.52.5.51,1.67,0,3.33,0,5,0,.43,0,.49-.14.49-.51,0-2.66,0-5.32,0-8A33.65,33.65,0,0,0,83,103c-.38-2.66-1.25-5.08-3.6-6.67a4.71,4.71,0,0,0-4.13-.79A6.53,6.53,0,0,0,72,97.75C71.9,97.88,71.86,98.13,71.55,98.13Zm48.77,0c0-.52,0-1,0-1.54,0-.3-.09-.38-.39-.38-1.72,0-3.45,0-5.17,0-.34,0-.41.12-.4.42q0,9.57,0,19.14c0,.36.12.42.45.41,1.66,0,3.33,0,5,0,.45,0,.55-.12.55-.56,0-4.09,0-8.18,0-12.27a4.65,4.65,0,0,1,.75-2.66,2.33,2.33,0,0,1,4.18.07,4.87,4.87,0,0,1,.66,2.6c0,4.08,0,8.15,0,12.23,0,.58,0,.58.59.58,1.62,0,3.24,0,4.85,0,.42,0,.54-.1.54-.52,0-2.46,0-4.92,0-7.38a41.37,41.37,0,0,0-.16-5.34,9.44,9.44,0,0,0-2.89-6.1,5.43,5.43,0,0,0-3.37-1.49,4.13,4.13,0,0,0-1.51.19,6.4,6.4,0,0,0-2,1.06C121.34,97.05,120.9,97.61,120.32,98.13Zm32.34,8.36a11.89,11.89,0,0,0,3.79,8.75,7.44,7.44,0,0,0,4.94,2,6.94,6.94,0,0,0,3-.68,8.67,8.67,0,0,0,3.33-2.72,12.14,12.14,0,0,0,2.42-6.43,13.07,13.07,0,0,0-1.87-8.37,8.49,8.49,0,0,0-4.94-3.9,5,5,0,0,0-2.68-.19,13.48,13.48,0,0,0-2.13.59,8.34,8.34,0,0,0-3.31,2.68A13.11,13.11,0,0,0,152.66,106.49Zm-40.48,2.65h-5.71c-.23,0-.25.13-.25.29,0,.44,0,.89,0,1.33a5.76,5.76,0,0,1-.83,3.11,1.9,1.9,0,0,1-3.31,0,4.93,4.93,0,0,1-.79-2.42c-.14-1.53,0-3.06-.07-4.58,0-.44.07-.59.56-.59,3.45,0,6.91,0,10.36,0,.3,0,.43,0,.41-.39a13.38,13.38,0,0,0-2.1-6.86,8.52,8.52,0,0,0-5.31-3.89,6.67,6.67,0,0,0-4.12.38,8.88,8.88,0,0,0-3.56,2.73,12.19,12.19,0,0,0-2.59,7.85c0,3.86,1.24,7.22,4.36,9.7a7,7,0,0,0,3.28,1.43,6.54,6.54,0,0,0,2.88-.13,8,8,0,0,0,1.82-.7,9.19,9.19,0,0,0,3.21-3A11.71,11.71,0,0,0,112.18,109.14Zm-19.79-2.82c0-3.19,0-6.37,0-9.56,0-.32.08-.42.4-.41.81,0,1.62,0,2.43,0,.33,0,.43-.11.43-.42,0-.75,0-1.49,0-2.24,0-.3-.1-.35-.37-.34-.82,0-1.65,0-2.47,0-.36,0-.42-.1-.42-.43,0-1.08,0-2.17,0-3.25,0-.29-.06-.39-.37-.39-1.76,0-3.51,0-5.27,0-.34,0-.4.12-.39.43,0,1.06,0,2.13,0,3.2,0,.37-.11.45-.46.44-.82,0-1.65,0-2.47,0-.2,0-.34,0-.34.28,0,.79,0,1.58,0,2.38,0,.25.08.34.35.34.77,0,1.55,0,2.33,0,.45,0,.58.09.58.56,0,6.26,0,12.52,0,18.77,0,.38.07.52.5.51,1.69,0,3.39,0,5.08,0,.4,0,.46-.12.46-.48Q92.39,111,92.39,106.32Zm-36.11-.17c0,3.21,0,6.41,0,9.62,0,.34.09.42.43.42,1.73,0,3.45,0,5.18,0,.32,0,.41-.08.41-.4q0-9.57,0-19.15c0-.32-.08-.43-.43-.43q-2.57,0-5.13,0c-.39,0-.44.13-.44.46C56.29,99.83,56.28,103,56.28,106.15Zm6-16.85c0-.9,0-1.8,0-2.7,0-.27-.06-.37-.35-.37q-2.66,0-5.31,0c-.29,0-.35.09-.35.37,0,1.79,0,3.59,0,5.39,0,.27,0,.37.35.37,1.77,0,3.53,0,5.3,0,.28,0,.37-.09.36-.36C62.27,91.1,62.28,90.2,62.28,89.3ZM168,91.08a5.91,5.91,0,0,0,.62,2.77,3.05,3.05,0,0,0,1.76,1.71,2.26,2.26,0,0,0,2.61-.9,6.13,6.13,0,0,0,.17-6.94,2.39,2.39,0,0,0-4.24.09A5.85,5.85,0,0,0,168,91.08Z"/><path class="cls-4" d="M47,107.1v-.5q0-10.21,0-20.44c0-.47.11-.58.57-.57,1.8,0,3.6,0,5.4,0,.35,0,.5.06.5.46q0,15.17,0,30.33c0,.58-.2.51-1.7.32a13.82,13.82,0,0,0-4,.09c-.55.1-.72,0-.85-.28l-8.7-21c0-.09-.09-.16-.19-.34v.65c0,6.83,0,13.66,0,20.49,0,.48-.13.56-.57.56-1.82,0-3.64,0-5.45,0-.37,0-.45-.11-.45-.45q0-15.19,0-30.39c0-.35.12-.41.44-.41,1.86,0,3.73,0,5.59,0a.69.69,0,0,1,.64.42q3.24,7.9,6.5,15.8l2.19,5.3Z"/><path class="cls-2" d="M145,115c-.54.38-1,.76-1.49,1a4,4,0,0,1-.71.32,4.73,4.73,0,0,1-2.44.3,6.32,6.32,0,0,1-3.66-2.24,12,12,0,0,1-2.58-6.35,14.54,14.54,0,0,1,.77-7.1,10,10,0,0,1,3-4.44,4.84,4.84,0,0,1,2.23-1,3.72,3.72,0,0,1,1.24-.13,6.2,6.2,0,0,1,3.12,1.45c.14.13.34.16.5.33v-.48c0-3.31,0-6.63,0-9.94,0-.39.06-.54.51-.54,1.65,0,3.3,0,4.95,0,.35,0,.46.08.46.45q0,14.52,0,29c0,.39-.11.47-.48.47-1.65,0-3.3,0-5,0-.45,0-.55-.14-.5-.53C145,115.48,145,115.3,145,115Zm-4.84-9c0,1.32,0,2.65,0,4a4.62,4.62,0,0,0,.65,2.43,1.89,1.89,0,0,0,3.2.22,4.05,4.05,0,0,0,.81-2.59c0-2.68,0-5.37,0-8.06a4.55,4.55,0,0,0-.54-2.19,2,2,0,0,0-3.59,0,4.68,4.68,0,0,0-.54,2.23C140.12,103.43,140.14,104.76,140.14,106.09Z"/><path class="cls-5" d="M71.55,98.13c.31,0,.35-.25.46-.38a6.53,6.53,0,0,1,3.21-2.21,4.71,4.71,0,0,1,4.13.79c2.35,1.59,3.22,4,3.6,6.67a33.65,33.65,0,0,1,.14,4.71c0,2.65,0,5.31,0,8,0,.37-.06.52-.49.51-1.67,0-3.33,0-5,0-.41,0-.5-.11-.5-.51,0-4.12,0-8.24,0-12.36a4.39,4.39,0,0,0-1.06-3.08,2.23,2.23,0,0,0-3.57.18,4.55,4.55,0,0,0-1,3c0,4.09,0,8.18,0,12.27,0,.44-.11.56-.56.55-1.63,0-3.26,0-4.9,0-.42,0-.53-.11-.53-.53,0-5.41,0-10.83,0-16.25,0-.92,0-1.83,0-2.75,0-.3.05-.45.42-.45,1.73,0,3.45,0,5.18,0,.31,0,.4.09.39.38C71.54,97.1,71.55,97.62,71.55,98.13Z"/><path class="cls-5" d="M120.32,98.13c.58-.52,1-1.08,1.61-1.52a6.4,6.4,0,0,1,2-1.06,4.13,4.13,0,0,1,1.51-.19,5.43,5.43,0,0,1,3.37,1.49,9.44,9.44,0,0,1,2.89,6.1,41.37,41.37,0,0,1,.16,5.34c0,2.46,0,4.92,0,7.38,0,.42-.12.52-.54.52-1.61,0-3.23,0-4.85,0-.59,0-.59,0-.59-.58,0-4.08,0-8.15,0-12.23a4.87,4.87,0,0,0-.66-2.6,2.33,2.33,0,0,0-4.18-.07,4.65,4.65,0,0,0-.75,2.66c0,4.09,0,8.18,0,12.27,0,.44-.1.57-.55.56-1.66,0-3.33,0-5,0-.33,0-.45-.05-.45-.41q0-9.57,0-19.14c0-.3.06-.42.4-.42,1.72,0,3.45,0,5.17,0,.3,0,.41.08.39.38C120.3,97.1,120.32,97.61,120.32,98.13Z"/><path class="cls-4" d="M152.66,106.49a13.11,13.11,0,0,1,2.53-8.25,8.34,8.34,0,0,1,3.31-2.68,13.48,13.48,0,0,1,2.13-.59,5,5,0,0,1,2.68.19,8.49,8.49,0,0,1,4.94,3.9,13.07,13.07,0,0,1,1.87,8.37,12.14,12.14,0,0,1-2.42,6.43,8.67,8.67,0,0,1-3.33,2.72,6.94,6.94,0,0,1-3,.68,7.44,7.44,0,0,1-4.94-2A11.89,11.89,0,0,1,152.66,106.49Zm11.18.05c0-1.84,0-3.23,0-4.62a7,7,0,0,0-.71-3.39,2.13,2.13,0,0,0-1.63-1.17,1.87,1.87,0,0,0-1.67.9,5.47,5.47,0,0,0-.89,3.23q0,4.59,0,9.2a5.67,5.67,0,0,0,.72,2.92,1.88,1.88,0,0,0,3.45,0,5.22,5.22,0,0,0,.67-2.34C163.91,109.54,163.81,107.81,163.84,106.54Z"/><path class="cls-4" d="M112.18,109.14a11.71,11.71,0,0,1-1.77,4.26,9.19,9.19,0,0,1-3.21,3,8,8,0,0,1-1.82.7,6.54,6.54,0,0,1-2.88.13,7,7,0,0,1-3.28-1.43c-3.12-2.48-4.34-5.84-4.36-9.7a12.19,12.19,0,0,1,2.59-7.85A8.88,8.88,0,0,1,101,95.54a6.67,6.67,0,0,1,4.12-.38,8.52,8.52,0,0,1,5.31,3.89,13.38,13.38,0,0,1,2.1,6.86c0,.35-.11.39-.41.39-3.45,0-6.91,0-10.36,0-.49,0-.57.15-.56.59,0,1.52-.07,3,.07,4.58a4.93,4.93,0,0,0,.79,2.42,1.9,1.9,0,0,0,3.31,0,5.76,5.76,0,0,0,.83-3.11c0-.44,0-.89,0-1.33,0-.16,0-.29.25-.29Zm-8.43-5.89c.7,0,1.41,0,2.11,0,.27,0,.39-.06.37-.35,0-.51,0-1,0-1.55a4.92,4.92,0,0,0-1-3.09,1.76,1.76,0,0,0-2.11-.65A2.52,2.52,0,0,0,101.73,99a9.76,9.76,0,0,0-.51,3.94c0,.26.18.27.38.27C102.32,103.24,103,103.25,103.75,103.25Z"/><path class="cls-5" d="M92.39,106.32q0,4.7,0,9.39c0,.36-.06.49-.46.48-1.69,0-3.39,0-5.08,0-.43,0-.5-.13-.5-.51,0-6.25,0-12.51,0-18.77,0-.47-.13-.58-.58-.56-.78,0-1.56,0-2.33,0-.27,0-.35-.09-.35-.34,0-.8,0-1.59,0-2.38,0-.29.14-.28.34-.28.82,0,1.65,0,2.47,0,.35,0,.47-.07.46-.44,0-1.07,0-2.14,0-3.2,0-.31,0-.43.39-.43,1.76,0,3.51,0,5.27,0,.31,0,.37.1.37.39,0,1.08,0,2.17,0,3.25,0,.33.06.45.42.43.82,0,1.65,0,2.47,0,.27,0,.38,0,.37.34,0,.75,0,1.49,0,2.24,0,.31-.1.43-.43.42-.81,0-1.62,0-2.43,0-.32,0-.4.09-.4.41C92.4,100,92.39,103.13,92.39,106.32Z"/><path class="cls-2" d="M56.28,106.15c0-3.16,0-6.32,0-9.48,0-.33,0-.46.44-.46q2.56,0,5.13,0c.35,0,.43.11.43.43q0,9.57,0,19.15c0,.32-.09.4-.41.4-1.73,0-3.45,0-5.18,0-.34,0-.43-.08-.43-.42C56.29,112.56,56.28,109.36,56.28,106.15Z"/><path class="cls-4" d="M62.28,89.3c0,.9,0,1.8,0,2.7,0,.27-.08.36-.36.36-1.77,0-3.53,0-5.3,0-.3,0-.35-.1-.35-.37,0-1.8,0-3.6,0-5.39,0-.28.06-.37.35-.37q2.66,0,5.31,0c.29,0,.36.1.35.37C62.27,87.5,62.28,88.4,62.28,89.3Z"/><path class="cls-5" d="M168,91.08a5.85,5.85,0,0,1,.92-3.27,2.39,2.39,0,0,1,4.24-.09,6.13,6.13,0,0,1-.17,6.94,2.26,2.26,0,0,1-2.61.9,3.05,3.05,0,0,1-1.76-1.71A5.91,5.91,0,0,1,168,91.08Zm5.54,0a4.57,4.57,0,0,0-.63-2.48c-.91-1.49-2.41-1.71-3.48-.32a4.93,4.93,0,0,0,.19,5.82,1.85,1.85,0,0,0,2.92,0A4.43,4.43,0,0,0,173.53,91.08Z"/><path class="cls-3" d="M140.14,106.09c0-1.33,0-2.66,0-4a4.68,4.68,0,0,1,.54-2.23,2,2,0,0,1,3.59,0,4.55,4.55,0,0,1,.54,2.19c0,2.69,0,5.38,0,8.06a4.05,4.05,0,0,1-.81,2.59,1.89,1.89,0,0,1-3.2-.22,4.62,4.62,0,0,1-.65-2.43C140.12,108.74,140.14,107.41,140.14,106.09Z"/><path class="cls-3" d="M163.84,106.54c0,1.27.07,3-.06,4.72a5.22,5.22,0,0,1-.67,2.34,1.88,1.88,0,0,1-3.45,0,5.67,5.67,0,0,1-.72-2.92q0-4.6,0-9.2a5.47,5.47,0,0,1,.89-3.23,1.87,1.87,0,0,1,1.67-.9,2.13,2.13,0,0,1,1.63,1.17,7,7,0,0,1,.71,3.39C163.86,103.31,163.84,104.7,163.84,106.54Z"/><path class="cls-6" d="M103.75,103.25c-.72,0-1.43,0-2.15,0-.2,0-.38,0-.38-.27a9.76,9.76,0,0,1,.51-3.94,2.52,2.52,0,0,1,1.38-1.43,1.76,1.76,0,0,1,2.11.65,4.92,4.92,0,0,1,1,3.09c0,.52,0,1,0,1.55,0,.29-.1.36-.37.35C105.16,103.23,104.45,103.25,103.75,103.25Z"/><path class="cls-6" d="M173.53,91.08a4.43,4.43,0,0,1-1,3,1.85,1.85,0,0,1-2.92,0,4.93,4.93,0,0,1-.19-5.82c1.07-1.39,2.57-1.17,3.48.32A4.57,4.57,0,0,1,173.53,91.08ZM169.81,91c0,.74,0,1.49,0,2.24,0,.31.14.37.42.37s.43-.07.42-.38c0-.49,0-1,0-1.46,0-.12-.06-.29.16-.31s.26.08.31.25c.13.45.3.9.41,1.35a.61.61,0,0,0,.79.55c.23,0,.29-.07.2-.3-.19-.54-.36-1.08-.54-1.62-.07-.23-.18-.41.15-.58a1.1,1.1,0,0,0,.43-.76,1.4,1.4,0,0,0-1.42-1.89c-.29,0-.58,0-.87,0s-.48.06-.46.44C169.83,89.61,169.81,90.31,169.81,91Z"/><path class="cls-5" d="M169.81,91c0-.71,0-1.41,0-2.11,0-.38.12-.47.46-.44s.58,0,.87,0a1.4,1.4,0,0,1,1.42,1.89,1.1,1.1,0,0,1-.43.76c-.33.17-.22.35-.15.58.18.54.35,1.08.54,1.62.09.23,0,.27-.2.3a.61.61,0,0,1-.79-.55c-.11-.45-.28-.9-.41-1.35-.05-.17-.11-.27-.31-.25s-.16.19-.16.31c0,.49,0,1,0,1.46,0,.31-.14.38-.42.38s-.42-.06-.42-.37C169.82,92.51,169.81,91.76,169.81,91Zm.83-1.08c0,.15,0,.31,0,.46s.07.35.32.32.52,0,.66-.26a.92.92,0,0,0,0-.91c-.18-.34-.53-.32-.83-.28s-.1.33-.15.49A1.08,1.08,0,0,0,170.64,89.94Z"/><path class="cls-6" d="M170.64,89.94a1.08,1.08,0,0,1,0-.18c.05-.16-.14-.44.15-.49s.65-.06.83.28a.92.92,0,0,1,0,.91c-.14.29-.41.23-.66.26s-.35-.06-.32-.32S170.64,90.09,170.64,89.94Z"/></g></g></svg>