<svg xmlns="http://www.w3.org/2000/svg" viewBox="0 0 69.64 92.18"><defs><style>.cls-1{fill:#f37721;}.cls-2{fill:#f37c21;}.cls-3{fill:#f27521;}.cls-4{fill:#f37e21;}.cls-5{fill:#e38e52;}.cls-6{fill:#f26f22;}.cls-7{fill:#f48420;}.cls-8{fill:#f2911f;}.cls-9{fill:#ec6123;}.cls-10{fill:#f16822;}.cls-11{fill:#f58b1f;}</style></defs><g id="Layer_2">
    Layer 2
    <g id="Layer_1-2"><path class="cls-1" d="M69.53,50.28c-1.13,1.17-1,2.71-.91,4.23l-2,2.1q-9.07,0-18.15,0a8.43,8.43,0,0,1-4.05-.74A14.55,14.55,0,0,0,48.2,43.47a6,6,0,0,0,3.31.52L69,44c.06,1.27-.41,2.62.57,3.77Z"/><path class="cls-2" d="M.18,41.84c.88-.87.66-2.07.88-3.13.24-.69.48-1.38.71-2.07,4.27,0,8.53-.06,12.8,0,3.29.06,6.62-.46,9.85.56a15.2,15.2,0,0,0-3.13,11.46H.62c-.14-1.64.52-3.35-.62-4.88Z"/><path class="cls-3" d="M.74,48.69H21.41c1.34,3.51,2.5,7.14,6.15,9.08-.72,1.26-2,.92-3,.92-7.2,0-14.39,0-21.59,0-1-1.6-1.18-3.47-1.77-5.21-.2-.92.09-2-.91-2.67v-2.1Z"/><path class="cls-4" d="M69.64,44l0,0-18,0a6,6,0,0,1-3.31-.52,15.74,15.74,0,0,0-4.94-8c.75-1.24,2-.88,3.07-.89,7,0,13.94,0,20.9,0l1.33,4.19c0,1.32-.27,2.69,1,3.69Z"/><path class="cls-5" d="M.74,48.69l-.49,0V44C1.2,45.47.6,47.12.74,48.69Z"/><path class="cls-5" d="M69.16,44l.48,0v3.68C68.78,46.54,69.21,45.24,69.16,44Z"/><path class="cls-6" d="M2.8,58.7c7.2,0,14.39,0,21.59,0,1.08,0,2.32.34,3-.92,6,3.07,11.7,2.59,16.91-1.9a8.41,8.41,0,0,0,4,.74q9.49,0,19,0C66.28,61.32,63.72,65.29,61,69.2l-51.65.08A26.69,26.69,0,0,1,2.8,58.7Z"/><path class="cls-7" d="M43.19,35.44c-6.95-4.34-12.56-3.8-18.78,1.78-3.23-1-6.57-.5-9.86-.56-4.26-.08-8.52,0-12.79,0,1-4.28,3.11-8,5.46-11.62a28.64,28.64,0,0,0,3.87.56q23.41.06,46.82,0c1.24,0,2.48-.06,3.13-1.4,3,2.87,4.67,6.55,6.12,10.34-7,0-13.93,0-20.9,0C45.18,34.56,43.94,34.2,43.19,35.44Z"/><path class="cls-8" d="M34.35,0c.63,1.11-.27,1.8-.74,2.56a25.31,25.31,0,0,0-3.24,7.37c-.38,1.52-.18,2,1.5,2,2.91,0,5.88-.54,8.74.51-.6,1.37-1.84,1.13-3,1.13q-8.4,0-16.79,0c-1.48,0-3,.19-4.39-.49C21.13,7.61,27,3.67,33,0Z"/><path class="cls-9" d="M35,92.14c-.13-1.93,1.62-3,2.11-4.68.29-1,.84-1.92,1.18-2.9,1.32-3.82,1.11-4-2.76-4-2,0-4-.28-6-.43.53-1.09,1.54-1,2.49-1,5.81,0,11.62,0,17.43,0a3.56,3.56,0,0,1,2.89.9c-4.47,4.91-10,8.48-15.45,12.1Z"/><path class="cls-10" d="M52.34,80.08a3.56,3.56,0,0,0-2.89-.9c-5.81,0-11.62,0-17.43,0-1,0-2-.11-2.49,1L28.41,80l-.53-.24A30.58,30.58,0,0,1,9.39,69.28L61,69.2c-2.09,3.8-5.12,6.85-8,10l-.37.46Z"/><path class="cls-9" d="M52.65,79.66,53,79.2Z"/><path class="cls-11" d="M16.48,13c1.4.68,2.91.48,4.39.49q8.4,0,16.79,0c1.11,0,2.35.24,3-1.13,9,1.28,14.58,5,20.43,11.81-.65,1.34-1.89,1.4-3.13,1.4q-23.4,0-46.82,0A28.64,28.64,0,0,1,7.22,25,51.84,51.84,0,0,1,16.48,13Z"/><path class="cls-9" d="M27.88,79.74l.53.24Z"/></g></g></svg>