<svg xmlns="http://www.w3.org/2000/svg" viewBox="0 0 107.66 98.43"><defs><style>.cls-1{fill:#dd1f2c;}.cls-1,.cls-2,.cls-3,.cls-4{fill-rule:evenodd;}.cls-2{fill:#f2c218;}.cls-3{fill:#346eb3;}.cls-4{fill:#05aa9e;}</style></defs><g id="Layer_2" zdata-name="Layer 2"><g id="Layer_1-2" data-name="Layer 1"><g id="g3"><path id="path7" class="cls-1" d="M57.66,20.41l-.07,77.93L40.66,91.71V0l22,7c14.11,4.57,22.74,13.45,22.6,29-.14,18.11-7.09,25.38-20.63,20.64V21c0-4.53-7-4.8-7-.62Z"/><path id="path9" class="cls-2" d="M32.69,76.48,24.5,79.8c-5.29,2.21-9.81-3-4.94-5.11l4-1.7L8.62,67.29C4,69.16-.27,73.16,0,78.78s11.08,7.06,19.41,8.67a35.52,35.52,0,0,0,21.24-2V79.54l-8-3.06Zm25.11,22L73,92.05,57.66,86.18V98l.14.43Z"/><path id="path11" class="cls-3" d="M98.52,81.33l.28-.09c6.64-2.8,9.46-6.72,8.75-10.37-1.13-6.13-9.24-9.45-21.73-10.55-9-.77-17.78,1.61-26.39,5.19L58,66.1l15.45,5.79,9-3.66c9.46-2.13,13.27,1.61,4.17,5.1L82.15,75.2l16.37,6.13Zm-57.86-27-6.85,2.8,6.85,2.56V54.28Z"/><path id="path13" class="cls-4" d="M73,92.05,98.16,81.33,81.79,75.2l-24.13,10v1L73,92.05ZM40.66,73.25l-8,3.23,8,3.06V73.25Zm17,5V66.1l15.45,5.79L57.66,78.27ZM23.51,73l17.15-7.4v-6l-6.85-2.56L9,67.21a2.7,2.7,0,0,1-.35.08L23.51,73Z"/></g></g></g></svg>