<svg xmlns="http://www.w3.org/2000/svg" viewBox="0 0 139.1 94.57"><defs><style>.cls-1{fill:#222221;}.cls-2{fill:#010101;}.cls-3{fill:gray;}.cls-4{fill:#070707;}.cls-5{fill:#020202;}.cls-6{fill:#363636;}.cls-7{fill:#161616;}.cls-8{fill:#19191b;}.cls-9{fill:#171717;}.cls-10{fill:#1e1a1c;}.cls-11{fill:#1d1918;}.cls-12{fill:#9ba5cf;}.cls-13{fill:#56bbb1;}.cls-14{fill:#cd87ac;}.cls-15{fill:#c76a67;}</style></defs><g id="Layer_2"><g id="Layer_1-2"><path class="cls-1" d="M82.27,59.89a5.42,5.42,0,0,0-1.55-.21H58.33a5,5,0,0,0-1.54.21,1.35,1.35,0,0,1,.35-1,13.38,13.38,0,0,0,2.85-7A5.17,5.17,0,0,0,60,49c0-.87.31-1.68.23-2.57-.42-4.41-1.94-8.19-5.32-10.79a11.94,11.94,0,0,0-9.33-2.59,23,23,0,0,0-5,1.83c.14-.38.26-.77.42-1.14a19.1,19.1,0,0,0,1.57-8,18.76,18.76,0,0,0-2-8.26c-3.68-7.16-9.91-10.23-16.88-9.26a15.3,15.3,0,0,0-10.45,6.55A18.93,18.93,0,0,0,9.77,28.69,17.54,17.54,0,0,0,16.35,40.6a14.92,14.92,0,0,0,12.09,3.28,18.09,18.09,0,0,0,7.17-3,2.78,2.78,0,0,1-.3,1.17,14.24,14.24,0,0,0-.61,7.49,1.15,1.15,0,0,0-.21,1c.3,3.47,1.27,6.61,3.66,9.08.42.43,1,.77,1.06,1.52-1.69-.51-2.33-.24-3.11,1.56-1.44,3.3-2.17,6.88-3.2,10.33-.83,2.8-1.63,5.61-2.44,8.41a2.27,2.27,0,0,1-.55,1.18,1.27,1.27,0,0,0-.44,0,24.41,24.41,0,0,1-15.89.75c-4-1-7.6-2.73-10.38-6.19a29.23,29.23,0,0,1-2.94-5.2,11,11,0,0,1,.21-3.84C2.26,53,4.45,37.94,8.1,23.15a62.65,62.65,0,0,1,4.84-12c.61-1.27,1.32-2.49,1.93-3.76A8.89,8.89,0,0,1,18,3.43c.26,0,.52-.06.77-.12a38.08,38.08,0,0,1,16.45-.66,10.46,10.46,0,0,0,5.27,1.28c1.89.12,3.79,0,5.69,0,.43.39.25.92.25,1.39,0,7.22,0,14.43,0,21.65,0,3.31,1.73,5.2,4.73,5.2H72.89c5.18,0,10.36,0,15.54,0,2.79,0,4.42-1.79,4.42-4.79q0-11.75,0-23.5c3.27.15,6.54.31,9.75-.65a3.13,3.13,0,0,0,1.21-.57c.74-.08,1.48-.15,2.22-.26a36.28,36.28,0,0,1,10.71.2c1.43.23,2.84.56,4.27.84a8.49,8.49,0,0,1,3,3.69c2.64,5.21,5.4,10.35,6.91,16.13,1.78,6.84,3,13.82,4.22,20.81,1.34,7.8,2.38,15.66,3.32,23.53a17.21,17.21,0,0,1,.28,4.18c-.05,0-.14.09-.16.15a16.51,16.51,0,0,1-11.33,10.91A26.54,26.54,0,0,1,114.07,84c-1.73-.33-3.35-1-5-1.48a68.58,68.58,0,0,1-2.43-7.89c-.94-3.11-1.79-6.25-2.72-9.37a18.63,18.63,0,0,0-1-2.61c-.77-1.68-1.42-2-3.07-1.46a1,1,0,0,1,.35-.74,13.59,13.59,0,0,0,4.21-8.66c.08-.76.38-1.5-.05-2.24a13.14,13.14,0,0,0-.13-5.72c-.23-1-.52-2-.77-2.95a6.63,6.63,0,0,1,.6.29,15.78,15.78,0,0,0,7.67,2.9c6.08.43,11.07-2,14.75-7.36a18.57,18.57,0,0,0,3.06-12.56,18.2,18.2,0,0,0-5.4-11.45,15.3,15.3,0,0,0-13.54-4.39,14.81,14.81,0,0,0-9.51,5.59A18.88,18.88,0,0,0,97,29.71a36,36,0,0,0,1.68,5.21,2.76,2.76,0,0,1-1.46-.57,11.94,11.94,0,0,0-14.43,2.57A14.58,14.58,0,0,0,79.1,49c-.31.28-.23.67-.22,1a14.73,14.73,0,0,0,2.87,8.67A1.59,1.59,0,0,1,82.27,59.89ZM66.48,47.55c0,2.44,1.32,3.93,3.52,4a3.74,3.74,0,0,0,3.7-3.89,4,4,0,0,0-3.62-4A3.83,3.83,0,0,0,66.48,47.55ZM39.21,10.11h0c0,.7,0,1.4,0,2.09a2.27,2.27,0,0,0,2,2.14,1.94,1.94,0,0,0,2.2-1.45,9.81,9.81,0,0,0,.12-5A2.18,2.18,0,0,0,41.2,6.09a2.43,2.43,0,0,0-2,2.54Zm60.85.47c0-.58,0-1.16,0-1.73a2.58,2.58,0,0,0-2.19-2.41,2.36,2.36,0,0,0-2.3,2.34c-.06,1.15,0,2.31,0,3.46.07,1.57.92,2.4,2.32,2.37s2.09-.89,2.17-2.43C100.09,11.65,100.06,11.11,100.06,10.58ZM74.58,38.9c0-.44-.19-.72-.59-.75s-.71.2-.73.7.19.71.59.74S74.55,39.39,74.58,38.9Zm-2.48,0c0-.44-.21-.7-.61-.72s-.7.22-.71.73a.62.62,0,0,0,.61.71C71.84,39.62,72.08,39.36,72.1,38.87Zm1.14-2c0-.43-.09-.72-.54-.72s-.78.11-.76.65a.77.77,0,0,0,.72.78C73.07,37.62,73.21,37.27,73.24,36.87Zm2,.73a.87.87,0,0,0,.68-.81c0-.54-.36-.63-.77-.64s-.55.31-.53.73S74.78,37.57,75.22,37.6ZM70.4,36.13c-.65,0-1,.2-.94.66a.77.77,0,0,0,.71.79c.49,0,.59-.38.59-.82S70.51,36.12,70.4,36.13Zm-2.12.71c0-.44-.27-.7-.72-.67a.55.55,0,0,0-.59.59.82.82,0,0,0,.7.82C68.09,37.64,68.25,37.31,68.28,36.84Zm0,4c0-.41-.16-.74-.58-.71A.79.79,0,0,0,67,41a.53.53,0,0,0,.55.61C68,41.61,68.24,41.39,68.28,40.87Zm1.86.71c.46,0,.65-.35.6-.83s-.22-.64-.58-.59a.8.8,0,0,0-.7.81C69.44,41.42,69.75,41.58,70.14,41.58Zm2.41,0c.46,0,.69-.27.68-.77s-.18-.66-.53-.66a.8.8,0,0,0-.76.75C71.88,41.36,72.17,41.55,72.55,41.58Zm-2.94-2.8a.61.61,0,0,0-.69-.63c-.4,0-.61.27-.62.71s.17.75.59.7S69.52,39.19,69.61,38.78Zm-2.51.07c-.13-.38-.34-.67-.71-.68s-.58.31-.57.73.21.72.62.66A.81.81,0,0,0,67.1,38.85Z"/><path class="cls-2" d="M92.89,4.09q0,11.75,0,23.5c0,3-1.63,4.79-4.42,4.8H51.16c-3,0-4.73-1.89-4.73-5.2,0-7.22,0-14.43,0-21.65,0-.47.18-1-.25-1.39l.11-1,.15-.23c0-.72.33-.85.92-.84,2.06,0,4.13,0,6.19,0H91.07C92.9,2.11,92.9,2.11,92.89,4.09Z"/><path class="cls-3" d="M109,82.49c1.68.45,3.3,1.15,5,1.48a26.54,26.54,0,0,0,13.25-1.12,16.51,16.51,0,0,0,11.33-10.91c0-.06.11-.1.16-.15a26.16,26.16,0,0,1,0,7.6c-.92,9-7.41,15.41-15.7,15.15-5.89-.18-10-3.8-12.9-9.13A8.49,8.49,0,0,1,109,82.49Z"/><path class="cls-3" d="M.26,72.05a29.23,29.23,0,0,0,2.94,5.2C6,80.71,9.61,82.41,13.58,83.44a24.41,24.41,0,0,0,15.89-.75,1.27,1.27,0,0,1,.44,0,15,15,0,0,1-3.54,6.45C23.3,92.66,19.59,94.85,15,94.54,7.33,94,1.16,88.66.21,79.12A43.23,43.23,0,0,1,0,73.21C.05,72.81-.07,72.37.26,72.05Z"/><path class="cls-4" d="M82.27,59.89a1.59,1.59,0,0,0-.52-1.16,14.73,14.73,0,0,1-2.87-8.67c0-.36-.09-.75.22-1,.09.44.18.88.28,1.31,2.17,9.47,12.19,13.71,19.56,8.21a14,14,0,0,0,5.41-9c.43.74.13,1.48.05,2.24a13.59,13.59,0,0,1-4.21,8.66,1,1,0,0,0-.35.74h0l-.22.16c-5.74,4-12.47,3.51-17.14-1.26l-.19-.16Z"/><path class="cls-4" d="M39.21,61.16c-.06-.75-.64-1.09-1.06-1.52-2.39-2.47-3.36-5.61-3.66-9.08a1.15,1.15,0,0,1,.21-1,15.21,15.21,0,0,0,3.94,7.71,12.05,12.05,0,0,0,17.25.11A15.54,15.54,0,0,0,60,49a5.17,5.17,0,0,1,0,2.84,13.38,13.38,0,0,1-2.85,7,1.35,1.35,0,0,0-.35,1h0l-.19.16c-4.67,4.77-11.4,5.26-17.14,1.26l-.22-.16Z"/><path class="cls-3" d="M121.05,3.45c-1.43-.28-2.84-.61-4.27-.84a36.28,36.28,0,0,0-10.71-.2c-.74.11-1.48.18-2.22.26a1.39,1.39,0,0,1,1.09-1.47,19.94,19.94,0,0,1,15.22.67A1.27,1.27,0,0,1,121.05,3.45Z"/><path class="cls-3" d="M35.21,2.65a38.08,38.08,0,0,0-16.45.66c-.25.06-.51.08-.77.12a1.31,1.31,0,0,1,.93-1.58A20,20,0,0,1,34.09,1.2,1.41,1.41,0,0,1,35.21,2.65Z"/><path class="cls-1" d="M46.43,2.74,46.28,3Z"/><path class="cls-1" d="M82.29,59.9l.19.16Z"/><path class="cls-1" d="M39.21,61.16l.22.16Z"/><path class="cls-1" d="M99.62,61.32l.22-.16Z"/><path class="cls-1" d="M56.57,60.06l.19-.16Z"/><path class="cls-5" d="M35.61,40.86a18.09,18.09,0,0,1-7.17,3A14.92,14.92,0,0,1,16.35,40.6,17.54,17.54,0,0,1,9.77,28.69a18.93,18.93,0,0,1,3.45-13.88A15.3,15.3,0,0,1,23.67,8.26c7-1,13.2,2.1,16.88,9.26a18.76,18.76,0,0,1,2,8.26,19.1,19.1,0,0,1-1.57,8c-.16.37-.28.76-.42,1.14-.34.15-.46.52-.63.83A24.54,24.54,0,0,1,35.61,40.86ZM19.14,29.46c1.19-.12,2.5.36,3.62-1,1.87-2.33,1.9-2.32.22-4.86A2.91,2.91,0,0,0,20.05,22c-.89.08-1.79,0-2.69,0-1.29,0-1.91.57-2,1.94a25.16,25.16,0,0,0,0,3.58c.1,1.37.73,1.9,2,1.9ZM23,33.83c0,.66,0,1.32,0,2,0,1.28.45,1.79,1.61,1.83s2.4,0,3.6,0,1.54-.57,1.55-1.77-.1-2.32,0-3.46a3.06,3.06,0,0,0-1.2-2.85c-.5-.42-1-.79-1.53-1.23a.92.92,0,0,0-1.32,0C24,29.53,22.43,30.89,23,33.58A1,1,0,0,1,23,33.83Zm6.3-16.18c0-.7,0-1.4,0-2.1,0-1.37-.72-1.93-2.3-1.59a5.76,5.76,0,0,1-2.34,0c-1.74-.34-2.41.53-2,2.52a4.23,4.23,0,0,1-.05,2.26c-.43,1.15,1.82,4.43,3.13,4.76a.84.84,0,0,0,.54-.06,5.28,5.28,0,0,0,3-5Zm4.35,11.46H35.1c1.71,0,2.07-.39,2.08-2.32,0-1.11,0-2.22,0-3.33,0-1.31-.83-2.23-3-2.23a6.71,6.71,0,0,0-4.62,2.36c-.27.36-.53.73-.79,1.1a1.28,1.28,0,0,0,0,1.55c1.14,1.92,2.41,3.47,4.78,2.87ZM13.52,26c0-.18,0-.27,0-.35-.11-.65.33-1.62-.26-1.89s-.84.77-1.31,1.16c-.66.55-.82,1.1,0,1.71.5.39.86,1.42,1.39,1.18S13.41,26.51,13.52,26Z"/><path class="cls-2" d="M98.7,34.92A36,36,0,0,1,97,29.71a18.88,18.88,0,0,1,4.06-15.84,14.81,14.81,0,0,1,9.51-5.59,15.3,15.3,0,0,1,13.54,4.39,18.2,18.2,0,0,1,5.4,11.45,18.57,18.57,0,0,1-3.06,12.56c-3.68,5.38-8.67,7.79-14.75,7.36a15.78,15.78,0,0,1-7.67-2.9,6.63,6.63,0,0,0-.6-.29A24.54,24.54,0,0,1,98.7,34.92Zm18.94,2.24a4.78,4.78,0,0,0-4.35-5c-2.74.13-4.58,2.15-4.64,5.07a4.84,4.84,0,0,0,4.62,4.87A4.62,4.62,0,0,0,117.64,37.16Zm0-22.52a4.63,4.63,0,0,0-4.5-5,4.94,4.94,0,0,0-4.49,4.89c.06,2.91,1.88,5.06,4.62,5C115.82,19.53,117.64,17.51,117.64,14.64ZM103.05,20.8a4.71,4.71,0,0,0-4.6,4.75c-.14,2.56,2.06,5.14,4.51,5.09s4.4-2.09,4.55-4.95C107.62,23.54,105.68,20.46,103.05,20.8Zm20.36,0c-2.43-.37-4.51,2.38-4.45,4.82.07,2.93,1.94,5,4.42,5,2.66,0,4.52-1.94,4.61-4.94S125.65,20.43,123.41,20.8Z"/><path class="cls-6" d="M98.7,34.92a24.54,24.54,0,0,0,4.75,5.93c.25,1,.54,2,.77,2.95a13.14,13.14,0,0,1,.13,5.72,14,14,0,0,1-5.41,9c-7.37,5.5-17.39,1.26-19.56-8.21-.1-.43-.19-.87-.28-1.31a14.58,14.58,0,0,1,3.71-12.11,11.94,11.94,0,0,1,14.43-2.57A2.76,2.76,0,0,0,98.7,34.92Zm-6.79,2.22c-5.14-.3-9,4.71-9,9.51,0,5.61,3.84,9.93,8.87,10,4.87.06,8.92-4.18,9-9.73C100.81,41.67,96.77,36.86,91.91,37.14Z"/><path class="cls-6" d="M35.61,40.86a24.54,24.54,0,0,0,4.32-5.12c.17-.31.29-.68.63-.83a23,23,0,0,1,5-1.83,11.94,11.94,0,0,1,9.33,2.59c3.38,2.6,4.9,6.38,5.32,10.79.08.89-.26,1.7-.23,2.57a15.54,15.54,0,0,1-4.06,8.31,12.05,12.05,0,0,1-17.25-.11,15.21,15.21,0,0,1-3.94-7.71A14.24,14.24,0,0,1,35.31,42,2.78,2.78,0,0,0,35.61,40.86Zm11.7-3.72c-5.14-.36-9,4.7-9,9.47-.07,5.71,4,10.08,8.93,10,5.08,0,8.78-4.33,8.91-9.7C56.25,41.86,52.22,36.85,47.31,37.14Z"/><path class="cls-2" d="M66.48,47.55a3.83,3.83,0,0,1,3.6-4,4,4,0,0,1,3.62,4A3.74,3.74,0,0,1,70,51.5C67.8,51.48,66.47,50,66.48,47.55Z"/><path class="cls-5" d="M39.21,10.11V8.63a2.43,2.43,0,0,1,2-2.54,2.18,2.18,0,0,1,2.33,1.84,9.81,9.81,0,0,1-.12,5,1.94,1.94,0,0,1-2.2,1.45,2.27,2.27,0,0,1-2-2.14c0-.69,0-1.39,0-2.09Z"/><path class="cls-5" d="M100.06,10.58c0,.53,0,1.07,0,1.6-.08,1.54-.87,2.4-2.17,2.43s-2.25-.8-2.32-2.37c0-1.15-.06-2.31,0-3.46a2.36,2.36,0,0,1,2.3-2.34,2.58,2.58,0,0,1,2.19,2.41C100.09,9.42,100.06,10,100.06,10.58Z"/><path class="cls-5" d="M74.58,38.9c0,.49-.29.73-.73.69s-.6-.3-.59-.74.29-.73.73-.7S74.58,38.46,74.58,38.9Z"/><path class="cls-5" d="M72.1,38.87c0,.49-.26.75-.71.72a.62.62,0,0,1-.61-.71c0-.51.26-.75.71-.73S72.08,38.43,72.1,38.87Z"/><path class="cls-4" d="M73.24,36.87c0,.4-.17.75-.58.71a.77.77,0,0,1-.72-.78c0-.54.36-.64.76-.65S73.27,36.44,73.24,36.87Z"/><path class="cls-4" d="M75.22,37.6c-.44,0-.59-.31-.62-.72s.08-.73.53-.73.78.1.77.64A.87.87,0,0,1,75.22,37.6Z"/><path class="cls-4" d="M70.4,36.13c.11,0,.37.14.36.63s-.1.85-.59.82a.77.77,0,0,1-.71-.79C69.43,36.33,69.75,36.18,70.4,36.13Z"/><path class="cls-5" d="M68.28,36.84c0,.47-.19.8-.61.74a.82.82,0,0,1-.7-.82.55.55,0,0,1,.59-.59C68,36.14,68.24,36.4,68.28,36.84Z"/><path class="cls-5" d="M68.28,40.87c0,.52-.31.74-.75.7A.53.53,0,0,1,67,41a.79.79,0,0,1,.72-.8C68.12,40.13,68.26,40.46,68.28,40.87Z"/><path class="cls-5" d="M70.14,41.58c-.39,0-.7-.16-.68-.61a.8.8,0,0,1,.7-.81c.36,0,.55.22.58.59S70.6,41.53,70.14,41.58Z"/><path class="cls-5" d="M72.55,41.58c-.38,0-.67-.22-.61-.68a.8.8,0,0,1,.76-.75c.35,0,.52.29.53.66S73,41.57,72.55,41.58Z"/><path class="cls-5" d="M69.61,38.78c-.09.41-.31.74-.72.78s-.59-.28-.59-.7.22-.69.62-.71A.61.61,0,0,1,69.61,38.78Z"/><path class="cls-5" d="M67.1,38.85a.81.81,0,0,1-.66.71c-.41.06-.6-.24-.62-.66s.15-.74.57-.73S67,38.47,67.1,38.85Z"/><path class="cls-7" d="M19.14,29.46H17.36c-1.27,0-1.9-.53-2-1.9a25.16,25.16,0,0,1,0-3.58c.1-1.37.72-1.92,2-1.94.9,0,1.8.06,2.69,0A2.91,2.91,0,0,1,23,23.56c1.68,2.54,1.65,2.53-.22,4.86C21.64,29.82,20.33,29.34,19.14,29.46Z"/><path class="cls-7" d="M23,33.83a1,1,0,0,0,0-.25c-.55-2.69,1-4,2.74-5.3a.92.92,0,0,1,1.32,0c.49.44,1,.81,1.53,1.23a3.06,3.06,0,0,1,1.2,2.85c-.12,1.14,0,2.3,0,3.46s-.45,1.74-1.55,1.77-2.4,0-3.6,0S23,37.08,23,35.8C23,35.15,23,34.49,23,33.83Z"/><path class="cls-7" d="M29.29,17.65v.74a5.28,5.28,0,0,1-3,5,.84.84,0,0,1-.54.06c-1.31-.33-3.56-3.61-3.13-4.76a4.23,4.23,0,0,0,.05-2.26c-.39-2,.28-2.86,2-2.52A5.76,5.76,0,0,0,27,14c1.58-.34,2.31.22,2.3,1.59C29.28,16.25,29.29,17,29.29,17.65Z"/><path class="cls-7" d="M33.64,29.11h-.11c-2.37.6-3.64-.95-4.78-2.87a1.28,1.28,0,0,1,0-1.55c.26-.37.52-.74.79-1.1a6.71,6.71,0,0,1,4.62-2.36c2.22,0,3.06.92,3,2.23,0,1.11,0,2.22,0,3.33,0,1.93-.37,2.32-2.08,2.32Z"/><path class="cls-7" d="M13.52,26c-.11.56.32,1.57-.22,1.81s-.89-.79-1.39-1.18c-.78-.61-.62-1.16,0-1.71.47-.39.86-1.37,1.31-1.16s.15,1.24.26,1.89C13.53,25.68,13.52,25.77,13.52,26Z"/><path class="cls-8" d="M117.64,37.16a4.62,4.62,0,0,1-4.37,4.91,4.84,4.84,0,0,1-4.62-4.87c.06-2.92,1.9-4.94,4.64-5.07A4.78,4.78,0,0,1,117.64,37.16Zm-6.46,2.72.4-.39c.54-.51,1-1.53,1.55-1.47s1.06.94,1.57,1.47c.22.23.4.49.73.12s0-.57-.16-.8c-.46-.53-1.25-1-1.32-1.61s.85-1.13,1.3-1.72c.21-.28.55-.49.13-.89s-.52,0-.72.23c-.49.5-1,1.39-1.47,1.43s-1-1-1.56-1.44l-.08-.09c-.19-.22-.36-.41-.65-.11s-.17.55.08.8.32.34.48.52c1.09,1.2,1.09,1.2,0,2.36-.21.24-.43.46-.63.71C110.45,39.48,110.93,39.59,111.18,39.88Z"/><path class="cls-9" d="M117.64,14.64c0,2.87-1.82,4.89-4.37,4.93-2.74,0-4.56-2.11-4.62-5a4.94,4.94,0,0,1,4.49-4.89A4.63,4.63,0,0,1,117.64,14.64Zm-4.45,2.42c.83,0,1.66,0,2.48,0,.43,0,.77-.18.45-.76l-2.46-4.41c-.28-.5-.57-.46-.84,0-.8,1.43-1.59,2.88-2.4,4.3-.34.6-.14.85.41.87C111.62,17.08,112.41,17.06,113.19,17.06Z"/><path class="cls-10" d="M103.05,20.8c2.63-.34,4.57,2.74,4.46,4.89-.15,2.86-2,4.89-4.55,4.95s-4.65-2.53-4.51-5.09A4.71,4.71,0,0,1,103.05,20.8ZM103,23c-.63,0-1.27,0-1.91,0s-.86.2-.83.91c0,1.23.06,2.47,0,3.7-.06,1,.3,1.22,1.11,1.14a17.8,17.8,0,0,1,1.79,0c2.54,0,2.54,0,2.54-2.78C105.66,23,105.66,23,103,23Z"/><path class="cls-11" d="M123.41,20.8c2.24-.37,4.66,1.94,4.58,4.86s-1.95,4.93-4.61,4.94c-2.48,0-4.35-2.05-4.42-5C118.9,23.18,121,20.43,123.41,20.8Zm.07,8.23a3.14,3.14,0,0,0,3.11-3.28,3.23,3.23,0,0,0-3-3.33,3.12,3.12,0,0,0-3.06,3.31A3.06,3.06,0,0,0,123.48,29Z"/><path class="cls-9" d="M91.91,37.14c4.86-.28,8.9,4.53,8.85,9.77-.05,5.55-4.1,9.79-9,9.73-5-.06-8.88-4.38-8.87-10C82.93,41.85,86.77,36.84,91.91,37.14Zm0,17.58c3.93.42,7.44-3.92,7.5-8,.06-4.37-3.55-8.31-7.21-8.41-4.44-.14-7.95,3.78-7.93,8.28S87.93,55.08,92,54.72Z"/><path class="cls-9" d="M47.31,37.14c4.91-.29,8.94,4.72,8.82,9.8-.13,5.37-3.83,9.65-8.91,9.7-4.9,0-9-4.32-8.93-10C38.35,41.84,42.17,36.78,47.31,37.14Zm-.14,1.24c-4.12-.45-7.47,4-7.56,7.95-.1,4.44,3.55,8.33,7.17,8.47,4.28.17,8-3.67,8-8.23C54.78,41.77,50.87,38,47.17,38.38Z"/><path class="cls-12" d="M111.18,39.88c-.25-.29-.73-.4-.33-.88.2-.25.42-.47.63-.71,1.07-1.16,1.07-1.16,0-2.36-.16-.18-.32-.36-.48-.52s-.41-.46-.08-.8.46-.11.65.11l.08.09c.54.49.92,1.5,1.56,1.44s1-.93,1.47-1.43c.2-.19.35-.59.72-.23s.08.61-.13.89c-.45.59-1.38,1-1.3,1.72s.86,1.08,1.32,1.61c.19.23.5.41.16.8s-.51.11-.73-.12c-.51-.53-1-1.42-1.57-1.47s-1,1-1.55,1.47Z"/><path class="cls-13" d="M113.19,17.06c-.78,0-1.57,0-2.36,0-.55,0-.75-.27-.41-.87.81-1.42,1.6-2.87,2.4-4.3.27-.47.56-.51.84,0l2.46,4.41c.32.58,0,.75-.45.76C114.85,17.08,114,17.06,113.19,17.06Zm0-4.5c-.61,1.11-1.18,2.12-1.74,3.13-.19.34-.29.62.23.62h3.61Z"/><path class="cls-14" d="M103,23c2.69,0,2.69,0,2.69,3,0,2.78,0,2.78-2.54,2.78a17.8,17.8,0,0,0-1.79,0c-.81.08-1.17-.17-1.11-1.14.07-1.23,0-2.47,0-3.7,0-.71.2-1,.83-.91S102.34,23,103,23Zm0,5c2,0,2,0,2-2,0-2.4,0-2.4-2.36-2.4-1.85,0-1.85,0-1.85,2C100.81,28,100.81,28,103,28Z"/><path class="cls-15" d="M123.48,29a3.06,3.06,0,0,1-2.94-3.3,3.12,3.12,0,0,1,3.06-3.31,3.23,3.23,0,0,1,3,3.33A3.14,3.14,0,0,1,123.48,29Zm-2.32-3.25a2.55,2.55,0,0,0,2.37,2.61,2.68,2.68,0,1,0-2.37-2.61Z"/><path class="cls-5" d="M92,54.72c-4,.36-7.63-3.53-7.64-8.14s3.49-8.42,7.93-8.28c3.66.1,7.27,4,7.21,8.41C99.39,50.8,95.88,55.14,92,54.72Zm-5.41-8.19c0,3.4,2.29,5.95,5.36,6,2.91,0,5.48-2.81,5.46-6s-2.57-5.9-5.42-5.89C88.85,40.61,86.54,43.15,86.54,46.53Z"/><path class="cls-5" d="M47.17,38.38c3.7-.39,7.61,3.39,7.6,8.19,0,4.56-3.71,8.4-8,8.23-3.62-.14-7.27-4-7.17-8.47C39.7,42.42,43.05,37.93,47.17,38.38Zm5.34,8.22c0-3.47-2.3-6-5.45-6-2.83,0-5.37,2.82-5.37,6s2.55,5.93,5.4,5.93C50.18,52.49,52.51,50,52.51,46.6Z"/><path class="cls-1" d="M113.24,12.56l2.1,3.75h-3.61c-.52,0-.42-.28-.23-.62C112.06,14.68,112.63,13.67,113.24,12.56Z"/><path class="cls-1" d="M103,28c-2.16,0-2.16,0-2.16-2.37,0-2,0-2,1.85-2,2.36,0,2.36,0,2.36,2.4C105,28,105,28,103,28Z"/><path class="cls-10" d="M121.16,25.78a2.41,2.41,0,1,1,2.37,2.61A2.55,2.55,0,0,1,121.16,25.78Z"/><path class="cls-7" d="M86.54,46.53c0-3.38,2.31-5.92,5.4-5.92,2.85,0,5.4,2.76,5.42,5.89s-2.55,6-5.46,6C88.83,52.48,86.54,49.93,86.54,46.53Z"/><path class="cls-7" d="M52.51,46.6c0,3.36-2.33,5.89-5.42,5.89-2.85,0-5.39-2.8-5.4-5.93s2.54-6,5.37-6C50.21,40.6,52.51,43.13,52.51,46.6Z"/></g></g></svg>