<svg xmlns="http://www.w3.org/2000/svg" viewBox="0 0 78.93 124.56"><defs><style>.cls-1{fill:#fefefe;}.cls-2{fill:#e2e6ee;}.cls-3{fill:#d2d6de;}.cls-4{fill:#eef2fa;}.cls-5{fill:#e8ecf5;}.cls-6{fill:#c5c9d2;}.cls-7{fill:#dadee5;}.cls-8{fill:#8c909a;}.cls-9{fill:#11161d;}.cls-10{fill:#b5b9c3;}.cls-11{fill:#050911;}.cls-12{fill:#3d424c;}.cls-13{fill:#f3f5f7;}.cls-14{fill:#565964;}.cls-15{fill:#f3f4f6;}.cls-16{fill:#0f131b;}.cls-17{fill:#f5f7f9;}.cls-18{fill:#3a3f49;}.cls-19{fill:#373c47;}.cls-20{fill:#eaecee;}.cls-21{fill:#e9eaec;}.cls-22{fill:#f4f4f6;}.cls-23{fill:#a4a6aa;}.cls-24{fill:#e0e1e4;}.cls-25{fill:#e6e7e9;}.cls-26{fill:#cdced1;}.cls-27{fill:#c0c2c6;}.cls-28{fill:#6c7075;}.cls-29{fill:#cacace;}.cls-30{fill:#b9bcc0;}.cls-31{fill:#b5b8bc;}.cls-32{fill:#666974;}.cls-33{fill:#161a21;}.cls-34{fill:#979ba5;}.cls-35{fill:#f0f3f6;}.cls-36{fill:#828690;}.cls-37{fill:#1d212a;}.cls-38{fill:#22272e;}.cls-39{fill:#3b4047;}.cls-40{fill:#0a0e14;}.cls-41{fill:#969aa3;}.cls-42{fill:#9a9ea8;}.cls-43{fill:#8c9099;}.cls-44{fill:#595d65;}.cls-45{fill:#666a73;}.cls-46{fill:#969aa4;}.cls-47{fill:#6f737d;}.cls-48{fill:#b1b5bf;}.cls-49{fill:#b5bcf3;}.cls-50{fill:#9ea4d8;}.cls-51{fill:#a3a7b1;}.cls-52{fill:#9fa3ad;}.cls-53{fill:#656973;}.cls-54{fill:#6d717d;}.cls-55{fill:#6366b5;}.cls-56{fill:#5a5b8c;}.cls-57{fill:#9497b8;}.cls-58{fill:#8086cc;}.cls-59{fill:#1f242c;}.cls-60{fill:#292e38;}.cls-61{fill:#4b4f5a;}.cls-62{fill:#040911;}.cls-63{fill:#1a1f27;}.cls-64{fill:#4d505a;}.cls-65{fill:#555765;}.cls-66{fill:#080a0f;}.cls-67{fill:#030508;}.cls-68{fill:#06070a;}.cls-69{fill:#929bf4;}.cls-70{fill:#20252d;}.cls-71{fill:#04060a;}.cls-72{fill:#6e727d;}.cls-73{fill:#3c3f47;}.cls-74{fill:#0a2be8;}.cls-75{fill:#7984ed;}.cls-76{fill:#6a71d7;}.cls-77{fill:#1d41df;}.cls-78{fill:#2f3e9e;}.cls-79{fill:#333a70;}.cls-80{fill:#5c5f6a;}.cls-81{fill:#343943;}.cls-82{fill:#434852;}</style></defs><g id="Layer_2"><g id="Layer_1-2"><path class="cls-1" d="M0,124.43H78.93s.06.11-.06.1H.54C.36,124.52.13,124.64,0,124.43Z"/><path class="cls-2" d="M13.57,116.28s0-.11,0-.15c.31-.59-.29-.51-.59-.56-1-.2-2.06-.3-3.07-.53-.76-.17-1.34-.67-1.25-1.28.12-.89.06-1.79.23-2.67a13,13,0,0,0,.22-2.48,1.67,1.67,0,0,1,.25-.77,1,1,0,0,1,.38-1c.18-.15.31-.29.12-.49a1.44,1.44,0,0,1-.32-1.08c0-.35,0-.7.5-.32.07-.07.1-.11.08-.14-.66-1-.26-2.16-.22-3.25a.24.24,0,0,1,.24-.25c.31,0,.4.15.45.38a.84.84,0,0,0-.35-.76.53.53,0,0,1-.2-.61c.18-.72.1-1.45.21-2.16,0-.24,0-.42.39-.38.15,0,.29,0,.31-.18s-.08-.19-.2-.24c-.55-.19-.46-.48-.18-.81,0,0,.11-.1.09-.13-.25-.41,0-.69.32-1,.11-.09-.07-.21-.16-.3-.24-.24-.36-.48,0-.72,0,0,0,0,0,0s-.15-.11-.12-.16c.37-.57-.18-1.33.52-1.84.16-.12.07-.29,0-.43a1.28,1.28,0,0,1-.19-.7.31.31,0,0,1,.22-.34.38.38,0,0,1,.43.08c.09.08.15.26.32.14a.31.31,0,0,0,.11-.43,1,1,0,0,1,.08-1.27c.15-.22.13-.38-.21-.47a.76.76,0,0,1-.4-1c.18-.31.41,0,.66,0,0-.4.21-.73,0-1.18a1.28,1.28,0,0,1,1-1.82c-.31-.12-.6-.24-.52-.58S12.57,84,12.3,84s-.47-.1-.44-.35.26-.17.43-.19c.35,0,.44-.24.34-.49a1.29,1.29,0,0,1,0-1,.8.8,0,0,0,0-.46c-.17-.75-.14-.81.64-1.1a.26.26,0,0,0,.21-.29c-.18.17-.35.35-.6.18a.43.43,0,0,1-.13-.53c0-.19.14-.38.07-.56-.21-.53-.22-1,.47-1.27.38-.18.27-.66-.13-.9-.17-.1-.37-.19-.26-.4s.3-.15.48-.11a.58.58,0,0,0,.78-.29.66.66,0,0,1,.4-.3,1.17,1.17,0,0,0-.47-.19c-.55-.19-.72-.63-.35-1a1.27,1.27,0,0,0,.31-1.27c-.11-.4.24-.71.24-1.1a2.4,2.4,0,0,0,0-.71c-.08-.3,0-.52.44-.53a5.83,5.83,0,0,1,1-.08,2,2,0,0,0-.77-.17c-.42-.07-.55-.31-.29-.6s.39-.36.07-.6a.12.12,0,0,1,0-.14,3.14,3.14,0,0,0,.19-1.66c0-.16.14-.3-.1-.44s-.06-.25,0-.37A1.42,1.42,0,0,0,15,65.8a.41.41,0,0,1,.28-.56c.58-.2.52-.53.32-.93-.34-.65-.29-.86.31-1.36a2.56,2.56,0,0,0,.46-.47c.07-.1.11-.21-.06-.25-.68-.15-.52-.59-.23-.83.46-.37,0-.93.5-1.27,0,0-.05-.08-.08-.12a.87.87,0,0,1,.21-1.25,5.84,5.84,0,0,0,.59-.51.23.23,0,0,0,.09-.19.09.09,0,0,0-.11,0c-.69.22-.69.22-.68-.45a.75.75,0,0,0,0-.26c-.06-.19-.09-.4.17-.5a.61.61,0,0,1,.7.13c.11.12.18.29.5.16-.85-.32-.55-1-.7-1.52,0-.16.08-.3.21-.41a.65.65,0,0,0,.23-.52c0-.22,0-.35-.36-.32-.6,0-.73-.12-.58-.65.08-.28.05-.62.5-.69.22,0,.43-.12.63,0s-.06.34,0,.51c.58-.09.63-.17.41-.63a1.12,1.12,0,0,1-.24-.74.35.35,0,0,1,.1-.11,2.38,2.38,0,0,0,.76-.13,1.13,1.13,0,0,1-.45-1.33.3.3,0,0,0-.28-.4c-.36,0-.36-.22-.39-.47,0-.45-.09-.89-.14-1.34,0-.17-.13-.34.07-.48a.59.59,0,0,1,.88.44c0,.16-.14.3-.06.46.65-.13.7-.21.38-.7-.06-.09-.08-.2-.13-.29-.32-.71-.32-.71.54-.82.1,0,.22,0,.22-.13s-.1-.14-.2-.15a1.36,1.36,0,0,0-.53,0,.73.73,0,0,1-.61-.14c-.14-.12-.22-.26-.12-.42s.26-.14.43-.1a2.7,2.7,0,0,0,.63.12c-.37-.41-.37-.57.09-1,.21-.16.45-.3.15-.56a.12.12,0,0,1,0-.15c.22-.32.13-.48-.2-.75a1,1,0,0,1-.16-1.06,1.2,1.2,0,0,1,1-.62c.17,0,.36.06.48-.11-.14-.13-.27,0-.39,0s-.31,0-.3-.1c0-.37-.34-.74,0-1.09.19-.21.13-.34-.07-.48s-.27-.22-.2-.4.26-.25.48-.21.28-.09.32-.24a1.07,1.07,0,0,1,.37-.53c-.13,0-.22.07-.34.07s-.36,0-.44-.21a.29.29,0,0,1,.19-.4c.48-.17.47-.39.18-.7a.61.61,0,0,1,.08-1c.33-.28.31-.47.05-.73a.33.33,0,0,1-.08-.19.41.41,0,0,1,.17-.47.52.52,0,0,1,.51,0,1.78,1.78,0,0,0,.34.17,1.26,1.26,0,0,0-.77-.32c-.19,0-.35-.1-.32-.29s.18-.26.38-.28a1.37,1.37,0,0,1,.29,0c.18,0,.4,0,.49-.12s-.15-.23-.24-.32-.12-.34-.21-.48c-.23-.38.2-.95-.5-1.18-.09,0-.09-.24,0-.35.28-.45.33-1,.72-1.41a.89.89,0,0,0,.26-.68c0-.07,0-.15,0-.2.28-.46.58-.92,0-1.38.35-.42-.3-1,.28-1.39.2-.14,0-.38-.05-.58s-.16-.56.25-.7c.19-.07.53-.06.53-.27s.15-.65,0-1c-.37-.78-.33-.93.4-1.46a.65.65,0,0,0,.3-.54A8.7,8.7,0,0,1,23.2,21a.5.5,0,0,0-.18-.52c-.19-.18-.32-.47-.12-.62.55-.4.43-.91.44-1.44a1.34,1.34,0,0,1-.18.4c-.13.17-.31.33-.54.24s-.15-.27-.11-.42a.72.72,0,0,0,0-.41c-.18-.58.18-.94.84-.86.33.05.41,0,.31-.29a1.9,1.9,0,0,1,0-1.31,1.63,1.63,0,0,0-.23-1.45,3.16,3.16,0,0,1-.36-.48c1.13-.62,2.1-1.42,3.15-2.13s2.11-1.41,3.18-2.08,2.16-1.38,3.28-2l3-1.76,3.8-2.23A3.79,3.79,0,0,1,40.71,3a16.29,16.29,0,0,0,1.57-.94h0c.3-.21.68-.31,1-.53A3.84,3.84,0,0,1,44.63.66c.49-.28.93-.73,1.62-.65.12,0,.24.27.37,0,.52.07.84.31.84.8a.09.09,0,0,1,0,.09.06.06,0,0,1,0,0s-.17,0-.16,0a16.19,16.19,0,0,1,.38,2.77c0,.29,0,.53-.62.53.63.24.85.55.75,1-.07.29-.21.4-.47.14s-.55-.23-.69.15a.37.37,0,0,1-.45.25c-.74-.09-.91.08-.69.71a.53.53,0,0,0,.22.3c.11-.22,0-.53.34-.66a1.28,1.28,0,0,1,.82,0c.18.05.35.13.35.32s-.19.21-.35.23c-.33,0-.43.15-.35.45s0,.58.15.87,0,.45-.37.37c-.2,0-.38-.14-.63,0,.11.19.52.3.3.61s-.36,0-.58.06a1.43,1.43,0,0,1,0,.82c-.21.48,0,.77.45,1.06A1.14,1.14,0,0,1,45.66,13c-.28.13-.32.29-.25.51s0,.41-.31.34-.45.54-.86.23c0,.07,0,.14,0,.22s-.21.45.14.52a.51.51,0,0,0,.59-.42c.11-.43.39-.47.8-.33.19.07.4.1.41.33a.43.43,0,0,1-.27.44,1.41,1.41,0,0,0-.73.65c-.1.19-.36.19-.57.26-.59.17-.59.34-.52.88s.34,1.07,0,1.61a.23.23,0,0,0,0,.25c.42.66-.18,1-.61,1.34-.22.18-.37.26-.22.54s-.24.38-.49.52a2.61,2.61,0,0,0,.89.68c.28.19.46.32.17.66s-.42.55-.66.82a1.41,1.41,0,0,0,.33,1.8c.21.16.3.29.21.52s.05.3.11.45a2.68,2.68,0,0,1,.21.6c0,.22-.09.37-.34.41a.36.36,0,0,1-.47-.3,3.55,3.55,0,0,1,0-.46.46.46,0,0,0-.37-.37.36.36,0,0,0-.45.17,3.71,3.71,0,0,1-.4.39.8.8,0,0,0-.11,1.17c.22-.1.22-.36.44-.47a.64.64,0,0,1,.77,0c.21.19,0,.35-.13.47s-.2.27,0,.38c.38.23.22.48.08.74s-.4.18-.64.05-.29,0-.26.14a1.3,1.3,0,0,0,.18.76c.35.45.31.6-.2.94a1.72,1.72,0,0,1-.32.23.67.67,0,0,0-.36.95.56.56,0,0,1-.38.85.54.54,0,0,0-.4.53,1.38,1.38,0,0,1-.32.88c-.07.09-.14.2,0,.29s.26,0,.36-.09a1.2,1.2,0,0,1,.53-.32.46.46,0,0,1,.49.11.25.25,0,0,1,0,.38.62.62,0,0,0-.05,1c.12.17.18.42,0,.51-.5.22-.69.73-1.15.86l.12,0c.24-.09.51-.32.75-.06s-.14.38-.26.55a.89.89,0,0,0-.26.57c0,.48-.25.78-.79.9-.29.06-.53.17-.59.45s.06.56.49.65.74.45.53.85-.17.92-.89,1.18c.63.12.94.28.92.75,0,.63,0,.65-.76.75a2.87,2.87,0,0,0-1,.38c.69-.16,1.08.25,1.54.54.19.13.36.26.25.48a.44.44,0,0,1-.51.18.88.88,0,0,0-.36,0c-.4,0-.47.18-.25.48a1.8,1.8,0,0,0,.19.2c.47.48.46.58-.16,1-.91.55-1,.72-.46,1.58.09.14.18.27.1.44-.2.41.06.67.42.86a1.51,1.51,0,0,1,.81,1.53,1,1,0,0,1-1.31.76c-.11,0-.25,0-.27-.17s.08-.19.18-.25.28-.13.41-.22a.31.31,0,0,0,.1-.42c0-.1-.11-.21-.24-.21s-.19.18-.23.31a.54.54,0,0,1-.29.32c-.2.1-.3.22-.19.42s.08.22,0,.29c-.41.27-.3.56-.06.86s0,.52.22.77c.37-.28.76-.49,1.17-.05s.29.73-.24,1-.92.2-1.26.56-.37.56-.06.87c.1.11.18.23.27.35.38.47.35.61-.22.86-.32.14-.41.39-.31.61.28.64-.17,1.09-.49,1.57a1,1,0,0,0-.12.93c.25-.15.15-.33.16-.48a.61.61,0,0,1,.39-.6.54.54,0,0,1,.56.06.28.28,0,0,1,0,.46.41.41,0,0,0-.06.61.7.7,0,0,1,.09.56.51.51,0,0,1-.66.44c-.4-.07-.58.14-.41.43a3.67,3.67,0,0,1,.23,2.33c0,.2-.14.29-.41.29s-.47.19-.26.45a.39.39,0,0,0,.17.14c.32.18.73.28.54.78-.12.34-.13.67-.58.84-.28.1-.37.4-.64.54a1.09,1.09,0,0,1,1,0c.45.23.48.46,0,.66-.27.12,0,.14,0,.17.13.33.13.59-.32.77s-.53.48-.27.88a.43.43,0,0,1,0,.62c-.28.21-.4-.07-.55-.22a.16.16,0,0,0-.18,0,.45.45,0,0,0,.2.49c.37.32.27.58-.11.82a.52.52,0,0,0-.2.19.15.15,0,0,0,0,.19.14.14,0,0,0,.24,0c.21-.45.67-.46,1.11-.46s.78.38.48.74a.54.54,0,0,0-.05.71.59.59,0,0,1-.3.9,1,1,0,0,0-.33.23c-.31.42-.61.85-1.38.65a.54.54,0,0,0,.75.18c.17-.07.34-.14.47,0s0,.26-.09.38c-.34.48-.69.59-1.41.41.39.79.54,1.53-.39,2.07a.9.9,0,0,1,.63,0c.12,0,.28.1.25.2-.13.38.09.7.19,1s-.15.44-.49.46a2.43,2.43,0,0,0-.84,0,.69.69,0,0,1,.51.71c0,.17.1.4.34.36s.06-.23.06-.35a1,1,0,0,1,.88-1c.38,0,.51.13.39.44-.23.59-.23.6.42.74.4.1.36.36.23.58a2.53,2.53,0,0,1-.81.82A.71.71,0,0,1,36,81a.72.72,0,0,0-.83,0,1,1,0,0,1,.63.85,1.18,1.18,0,0,0,.37.69c.39.37.21.85-.36,1a.6.6,0,0,0-.45.28c-.22.37-.57.43-1,.22,0,.17.11.24.32.18s.64-.2,1-.3a.5.5,0,0,1,.55.11c.15.21-.06.32-.23.41a.65.65,0,0,0-.34.63c0,.37-.2.59-.49.61a2.05,2.05,0,0,1,1,.27.7.7,0,0,1,.38,1.12.4.4,0,0,0-.07.55c.14.25,0,.45-.28.52a.87.87,0,0,0-.43.17c-.12.11-.35.23-.23.38s.39.09.59,0,.26-.43.55-.26.2.42.19.63a1.12,1.12,0,0,1-1,.86,3.68,3.68,0,0,0-.93.2c-.18,0-.27.14-.22.31s.26.23.43.13c.6-.34.94,0,1.32.33.21.18.34.37.19.6s-.41.11-.63,0a.28.28,0,0,0-.22,0c.48.63.61,1.23-.12,1.46a1.68,1.68,0,0,1,1.1.58.51.51,0,0,1,0,.76.64.64,0,0,1-.86,0c-.17-.09-.3-.23-.46-.33a.32.32,0,0,0-.38,0,.3.3,0,0,0-.13.33.26.26,0,0,0,.28.23,6.51,6.51,0,0,1,1,.14c.22,0,.36.13.34.3-.09.7.44,1.29.44,2a2.21,2.21,0,0,0,0,.25c0,.3,0,.53-.48.5s-.6.14-.62.49-.11.33-.35.43a.47.47,0,0,0-.22.8c.17.19.19.33,0,.5a.59.59,0,0,0,0,.82,1.29,1.29,0,0,1-.49,1.39c-.17.08-.37.1-.17.32s.24,0,.36-.07a.91.91,0,0,1,.95-.07c.3.14.13.4.08.62s-.12.26-.16.39c-.23.74.26,1.29,1.13,1.28h.24c.23,0,.39.08.42.29s-.12.31-.31.34a1.9,1.9,0,0,0-.8.3.32.32,0,0,1-.49-.13c-.13-.38-.42-.42-.79-.35a.6.6,0,0,1-.35,0c-.12-.05-.25-.17-.36,0a.32.32,0,0,0,0,.35.35.35,0,0,0,.37.21c1,0,1,0,1.15.78,0,.21.08.3.36.28.47,0,.79.39.49.67a3.45,3.45,0,0,0-.62,1.16c-.34.62-.42.66-1.2.52,0,.31.25.31.47.37s.29.13.28.3a.22.22,0,0,1-.27.22c-.65-.09-1,.34-1.36.64-.18.14-.32.36-.6.25s-.25-.33-.2-.55.07-.24,0-.29c-.68-.31-.28-.71-.12-1.09.06-.16.19-.33,0-.47a.62.62,0,0,0-.68,0c-.29.18-.26.42.06.55s.49,0,.44.32a1.49,1.49,0,0,1-.86.56c-.17,0-.35-.06-.53-.11-.4-.1-.49-.28-.24-.56a1.39,1.39,0,0,0,.33-.72c0-.11.08-.25-.08-.33a.47.47,0,0,0-.4.05c-.55.27-.54.27-.76-.23a2.3,2.3,0,0,0-.22-.48c-.16,0-.2.08-.29.13-.45.26-.7.2-1-.21-.06-.11-.07-.27-.26-.24s-.15.15-.17.25,0,.48-.3.5-.46-.23-.57-.45-.17-.7-.75-.33c-.2.13-.41-.14-.59-.28s-.42-.18-.45.15a.36.36,0,0,0,0,.1c.09.84-.59,1.21-1.32,1.39a6.09,6.09,0,0,0-1.68.42c-.21.11-.36-.39-.59-.09-.11.15.13.35.08.55s-.21.24-.44.14-1.2.06-1.32.39c-.24.74-1,.77-1.63.9-.27,0-.54,0-.71.27a.49.49,0,0,1-.29.16,1.12,1.12,0,0,0-.95.84c0,.12-.14.16-.27.18a1.87,1.87,0,0,1-.57-.12,1.29,1.29,0,0,0-1.4.82c-.34,1-.6,2-.91,3-.06.2,0,.46-.34.56C13.53,116.38,13.52,116.34,13.57,116.28Z"/><path class="cls-3" d="M16.81,112c.1,0,.16,0,.17-.16a1,1,0,0,1,.75-.82c.56-.18.95-.72,1.71-.55.14,0,.55-.25.87-.35.07,0,.18-.08.17-.11-.19-.72.66-.6,1-.9s.54.1.78.24c.19-.21.05-.34-.06-.49a.29.29,0,0,1,.08-.46c.19-.11.42-.1.51.1s.14.07.28,0c.43-.09.78-.52,1.3-.27a.21.21,0,0,0,.3-.08c.06-.07.13-.18.2-.18,1.16,0,.81-.86,1-1.4.1-.35.24-.35.51-.17a2.47,2.47,0,0,1,.39.32c.14.12.22.21.41,0s.57-.24.65.19a.58.58,0,0,0,.11.24c.11.17.11.48.41.45s.14-.33.17-.51.09-.34.35-.36a.32.32,0,0,1,.38.32c0,.18,0,.36.29.39a.49.49,0,0,0,.57-.28.23.23,0,0,1,.25-.19.22.22,0,0,1,.2.23c0,.34.35.58.29.92.23,0,.24-.14.32-.22a.8.8,0,0,1,.77-.13c.16,0,.11.33.05.48s0,.69-.45.85c-.09,0-.11.13,0,.22a1.25,1.25,0,0,0,1,.06l.08-.08c.12-.12.48,0,.4-.29s-.32-.06-.49-.1c-.39-.12-.42-.4-.09-.75a.79.79,0,0,1,1-.08c.36.15.2.41.09.63a2.1,2.1,0,0,1-.24.41c-.18.21-.17.34.13.42s.51.26.24.58a.24.24,0,0,0,.1.4c.19.1.31,0,.38-.16.2-.31.58-.42.82-.68a.51.51,0,0,1,.6-.08c.12,0,.25.06.3-.07a.17.17,0,0,0-.19-.22c-.79.13-.57-.41-.72-.77.92.39,1.47.09,1.47-.76a.51.51,0,0,1,.36-.53c.31-.12.21-.36.15-.54s-.31-.15-.48-.07c-.4.17-.49,0-.42-.29s-.07-.37-.11-.55c-.1-.47-.38-.5-.75-.26s-.55,0-.65-.21a.55.55,0,0,1,.11-.76.19.19,0,0,1,.12,0c.34.4.82.15,1.24.21.22,0,.25.19.26.36s.31.34.38.17c.16-.34.35-.33.68-.27.14,0,.38,0,.35-.26s-.2-.2-.4-.16a1.14,1.14,0,0,1-1.23-.34,1.1,1.1,0,0,1-.12-1.28c.13-.2.29-.47.13-.68s-.42-.06-.63-.06-.39.06-.21.29c.06.08.08.17,0,.2a.3.3,0,0,1-.22-.05,3.79,3.79,0,0,1-.38-.32c-.09-.07-.2-.13-.17-.25s.17-.18.32-.19c.34,0,.31-.25.44-.42.42-.52,0-.89-.08-1.32a.31.31,0,0,1,.11-.29c.18-.18.59-.35,0-.55-.24-.07.12-.92.41-1s.34,0,.3-.28c-.08-.5.25-.71.78-.65.33,0,.42-.1.33-.31-.21-.49,0-1.09-.52-1.52-.18-.15.08-.36,0-.55s.11-.4-.33-.38-.63-.21-1-.11a.31.31,0,0,1-.33-.3c0-.22-.07-.46.23-.6a.42.42,0,0,1,.53.07,3.6,3.6,0,0,0,.58.45.42.42,0,0,0,.54,0c.18-.16.25-.39.11-.52s-.4-.62-.89-.61c-.18,0-.41,0-.44-.18s.19-.21.37-.24.29-.7,0-.94c0,0,0,0,0,0s-.52-.15-.3-.39.43-.08.62.07.27.22.4.06A.26.26,0,0,0,36.4,91a1.73,1.73,0,0,1-.55-.45c-.16-.22-.43,0-.64.06-.56.22-.78.12-.81-.39,0-.16.07-.26.21-.26.34,0,.66-.28.91-.21.7.21.84-.31,1.12-.58s0-.48,0-.83c-.33.31-.51.65-1,.57-.37-.07-.49-.21-.27-.44s.37-.53.84-.49.29-.23.13-.39-.36-.4.08-.6c.29-.12.23-.79-.09-.88s-.69-.43-1.17-.32c-.23.06-.4-.09-.6-.31.32,0,.56.13.79,0s.12-.38.16-.58,0-.57.49-.6a.17.17,0,0,0,.17-.19c0-.11-.15-.11-.24-.1a3.67,3.67,0,0,0-1.27.38c-.15.07-.31.11-.31,0s-.34-.39-.17-.6.24,0,.3.15a.32.32,0,0,0,.48.15c.17-.07.39,0,.35-.32s.29-.37.53-.32c.52.11.33-.29.47-.44s-.09-.24-.22-.3c-.33-.17-.3-.52-.41-.77-.23-.52-.15-.55-.74-.91.46-.1.85-.57,1.31,0a.36.36,0,0,0,.44.07,2.44,2.44,0,0,0,1-1c.07-.12.1-.4-.27-.29a.49.49,0,0,1-.61-.21.46.46,0,0,1,.06-.59c.11-.1.28-.23.16-.35a.45.45,0,0,0-.55,0c-.38.23-.62.53-.42,1,.08.17.11.3-.09.39a.37.37,0,0,1-.51-.12c-.09-.14-.24-.3-.22-.42.06-.32.12-.56-.41-.48a.19.19,0,0,1-.2-.16c0-.1.08-.15.15-.21.27-.19.54,0,.8,0s.43.09.54-.12a.39.39,0,0,0-.13-.48.39.39,0,0,1-.17-.47c0-.11.31-.24.09-.34a.64.64,0,0,0-.67,0c-.12.08-.24.2-.42.11a.12.12,0,0,1-.06-.18.48.48,0,0,1,.43-.21c.36,0,.58-.15.39-.51,0-.08-.16-.21,0-.28.57-.29.13-.54,0-.79s-.29-.27-.1-.45.36-.06.51.07.28.12.46,0a1.71,1.71,0,0,0,.65-.66c0-.07-.11-.14-.22-.09s-.18.14-.28.18a.86.86,0,0,1-.82-.17c-.1-.06-.18-.16-.08-.27a.72.72,0,0,1,.68-.1c.28.06.4,0,.49-.24a1.15,1.15,0,0,1,.65-.59c.5-.21.48-.49.22-.84s-.32-.49.11-.68c.2-.09.18-.25.09-.41a.32.32,0,0,0-.41-.2c-.41.07-.92-.08-1,.5a.23.23,0,0,1-.26.18.53.53,0,0,1-.37-.31.23.23,0,0,1,.07-.33c.1-.06.22-.09.31-.15s.48-.34.07-.55-.21-.47-.39-.68,0-.17.14-.18.37-.08.46.12,0,.3.23.33.12-.1.15-.18a.34.34,0,0,0-.13-.46l-.44-.29c.25-.08.47-.17.46-.42s.13-.25.31-.26.38,0,.39-.23,0-.43-.27-.51c-.13,0-.23-.1-.15-.22s.2,0,.29,0a.28.28,0,0,0,.4-.12c.11-.16-.1-.18-.2-.25a.75.75,0,0,0-.92-.06c-.17.11-.41.18-.5,0s.21-.14.31-.22a7.08,7.08,0,0,1,1.11-.82c.14-.07,0-.4.13-.65s-.27-.29-.45-.4-.57-.4-.42-.78c.07-.17.19-.34.44-.19s.32,0,.37-.2a17,17,0,0,0,0-1.75c0-.1,0-.22-.1-.28-.62-.29-.17-.55,0-.82.06-.07.17-.16.24-.09s.4.36.59,0a.62.62,0,0,0-.08-.83c-.2-.18-.26-.35,0-.51s.3-.14.24-.32a.31.31,0,0,0-.33-.18c-.2,0-.41.09-.45.29a1.84,1.84,0,0,0,0,.62c0,.17,0,.28-.21.3S37,60,37,59.78s-.06-.65.26-1,.71-.7.46-1.29c-.16-.36-.18-.88.61-.94.33,0,.19-.3.08-.46A2.48,2.48,0,0,0,38,55.5c-.39-.31-.2-.55,0-.85A2.38,2.38,0,0,1,39.43,54c.25-.07.41-.22.4-.4a.75.75,0,0,0-.46-.56c-.27-.15-.4,0-.55.16s-.14.29-.35.24-.2-.28-.19-.4a.84.84,0,0,0-.28-.79s0-.18-.06-.25c-.39-.44.65-.36.36-.66s0-.47.27-.59.27-.2.19-.38,0-.29.17-.32a.42.42,0,0,1,.51.15c.3.43.24.63-.26.86l-.43.21c.73.24.79.26,1.22-.2s.1-.86-.07-1.27a1.23,1.23,0,0,0-.57-.5c-.38-.23-.85-.49-.42-1,.13-.14,0-.22-.08-.3a1.39,1.39,0,0,1-.37-.76.5.5,0,0,1,.35-.68c.3-.1.45-.42.83-.51.21-.05.17-.33,0-.47s-.32-.17-.36-.34-.49-.28-.23-.5a.88.88,0,0,1,.88-.19c.2.07.41.15.5-.08s-.19-.24-.34-.35c-.45-.3-.84-.66-1.49-.41-.11,0-.21-.08-.22-.2s.06-.16.17-.17c.54,0,.93-.57,1.55-.3.1,0,.16-.1.17-.18a5.08,5.08,0,0,0,0-.78c0-.26-.27-.19-.46-.21a.44.44,0,0,1-.39-.2c-.08-.2.17-.2.28-.27a2.28,2.28,0,0,0,.61-1.3c-.05-.23-.05-.42-.47-.37a.51.51,0,0,1-.62-.5c0-.33,0-.73.51-.81s1-.3.9-.69.18-.49.22-.72.62-.23.36-.48-.5.15-.78.19-.25.15-.38.23c-.15-.15,0-.23.07-.27.58-.21.73-.85,1.37-1,.2-.06.13-.27,0-.41-.34-.37-.47-.73.07-1.06.09,0,.15-.12.1-.22a.28.28,0,0,0-.3-.13.86.86,0,0,0-.57.36.38.38,0,0,1-.58.16c-.29-.16-.19-.35,0-.52a1,1,0,0,0,.32-.81c0-.33.07-.62.55-.68a.36.36,0,0,0,.34-.47c-.24-1-.25-1,.69-1.56.43-.24.44-.44.08-.77s-.22-.7-.17-1.05.34-.18.53,0,.22.36.36.07.43-.37.07-.56-.67-.46,0-.68a.17.17,0,0,0,.13-.21.24.24,0,0,0-.22-.15c-.38-.05-.63.06-.69.41,0,.17-.11.31-.34.28s-.23-.16-.27-.3A1.12,1.12,0,0,1,42.08,26a.5.5,0,0,0,.19-.19c.08-.18.18-.44.42-.34s.78.14.69.63c0,.2-.14.47.14.62a.29.29,0,0,0,.33,0c.26-.24-.07-.41-.08-.62s-.53-.55-.11-.89c.06-.05,0-.09-.09-.12-.45-.15-.46-.65-.86-.84,0,0,0-.14,0-.19.22-.29.46-.58.18-.94,0,0,0-.14,0-.14.49-.11.53-.53.79-.8s.13-.31-.09-.43-.62-.37-.91-.57c-.13-.09-.25-.2-.18-.36s.21-.14.39-.12c.41.05.33-.17.16-.33s-.17-.47.06-.5c.52-.07.55-.52.88-.72,0,0,.08-.06.08-.07-.31-.46,0-.93,0-1.38,0-.2-.15-.42-.05-.64a.34.34,0,0,0,0-.35c-.11-.18-.43-.29-.25-.53a1.22,1.22,0,0,1,.91-.55c.28,0,.45-.09.48-.35s.28-.35.54-.42.43-.23.38-.42-.46-.23-.7-.29-.2.18-.23.32c-.11.43-.65.72-1,.52-.15-.1-.31-.28-.21-.39.29-.32.06-.47-.23-.62a.39.39,0,0,1,.48,0c.21.17.32.1.39-.08.15-.35.39-.27.77,0-.29-.59-.38-1,.42-1.08.26,0,.6-1.24.44-1.43a.66.66,0,0,0-.23-.17c-.65-.34-1.08-.77-.75-1.49.07-.17.15-.36,0-.53s-.07-.23,0-.33a.31.31,0,0,1,.38,0c.08.06.14.28.27,0s.06-.24-.09-.24-.54,0-.38-.34.45-.16.7-.12a.66.66,0,0,1,.2.11c.09,0,.19.08.28,0s0-.17,0-.22c-.43-.36,0-.86-.29-1.27-.1-.13.32-.22.57-.23s.27,0,.27-.13-.13-.15-.25-.18c-.66-.2-.85-.09-.89.51,0,.13,0,.25-.22.28s-.21-.08-.26-.18a1.9,1.9,0,0,1-.25-.9c0-.24.14-.34.37-.4s.36-.26.52.06c.08.17.38.09.35,0-.09-.42.22-.54.54-.61s.26.39.63.47c0-.39.22-.82-.49-1a.25.25,0,0,1-.2-.34c.07-.17.19-.12.37-.08.34,0,.21-.24.18-.35A15.2,15.2,0,0,0,47.07.59c.32,0,.21.28.38.34.43.47.34,1.06.41,1.59.22,1.6.31,3.2.52,4.8a22.37,22.37,0,0,1,.25,2.83c0,.13,0,.13.14.09s.2-.05.24.08c.1.46,0,.94.16,1.4.06.72.12,1.45.22,2.18a2.36,2.36,0,0,1,0,1.15.86.86,0,0,0-.08.61c.21,1.51.25,3,.43,4.56.2,1.74.35,3.48.54,5.23.16,1.46.23,2.94.41,4.4.25,2,.27,4,.55,6a14.9,14.9,0,0,1,.14,1.76c.08,2.24.37,4.46.52,6.7.1,1.47.21,2.94.36,4.4.16,1.69.26,3.39.42,5.08.11,1.12.2,2.25.27,3.37.11,1.46.16,2.91.34,4.36.09.66.07,1.32.11,2,.1,1.44.19,2.88.3,4.32.15,2.12.22,4.25.44,6.38.07.69.07,1.39.1,2.08.05,1,.12,2,.18,3,.11,1.75.13,3.5.32,5.25.08.74.09,1.49.1,2.23,0,1.3.13,2.6.18,3.9.06,1.82.17,3.64.24,5.46s.17,3.5.23,5.25c.09,2.52.17,5,.27,7.55,0,1.25.06,2.5.07,3.75a8.74,8.74,0,0,1,.12,1.76,16.09,16.09,0,0,0-.1,2.5c0,.44,0,.89,0,1.22,0-1,0-2.18,0-3.33.35,0,.29.23.31.39,0,.37,0,.75,0,1.12a6.43,6.43,0,0,1,0,.76c0,.28,0,.55,0,.83a3.39,3.39,0,0,1,0,.55,2.23,2.23,0,0,1-2,1.89,11.57,11.57,0,0,1-1.66-.11c-.47,0-.95-.07-1.42-.07-1.59-.14-3.18-.34-4.77-.46-.24,0-.48,0-.71,0s-.72,0-1.08-.05a16.73,16.73,0,0,0-3-.36c-2.1-.22-4.19-.49-6.29-.67a3.94,3.94,0,0,1-.47-.1,79.49,79.49,0,0,1-9.78-3.25c-2.19-.79-4.36-1.65-6.53-2.48A6.17,6.17,0,0,1,16.81,112Z"/><path class="cls-4" d="M23.05,13.87a1.14,1.14,0,0,1,.73,1c0,.44.27.91-.15,1.35a.9.9,0,0,0,.23.86c.13.11.19.22,0,.36s-.36.23-.53.09c-.35-.3-.45,0-.66.15s-.25.28-.06.46-.19.55,0,.85c.45-.08.53-.37.55-.69,0-.1,0-.24.15-.24s.23.14.19.23c-.23.5.36,1.18-.5,1.57-.23.11-.1.42.14.57a.38.38,0,0,1,.21.49,6.7,6.7,0,0,0-.19,1.73.57.57,0,0,1-.35.59c-.69.35-.77.75-.32,1.33.1.14.13.24,0,.37s-.15.24-.08.35c.34.48-.09.6-.45.63-.53.05-.46.34-.36.59.23.55.2.74-.31,1.18.29.2.68.36.12.72-.18.11.13.38.29.49s.5.32,0,.52a.49.49,0,0,0-.3.62.44.44,0,0,1-.08.49A8,8,0,0,0,20.6,32c-.33.47-.25.59.38.71.2,0,.29.11.13.28s-.39.25-.27.36c.29.27,0,.72.44.92.15.07.35.15.24.36a.56.56,0,0,1-.55.25c-.09,0-.19-.06-.28-.07s-.42,0-.45.15.17.16.36.18a1.48,1.48,0,0,1,1,.63.77.77,0,0,1-.75-.22c-.15-.11-.3-.2-.47-.06s-.13.28-.06.44a.71.71,0,0,0,.12.18c.26.25.61.42-.07.69-.36.14-.44.63-.05,1s.51.58-.2.68c-.16,0-.36.15-.27.34s.32.19.51.09.21-.31.4-.07-.1.26-.22.32a.49.49,0,0,0-.22.36c-.07.31-.09.62-.59.33a.2.2,0,0,0-.25.09.17.17,0,0,0,.06.27c.4.22.8.43.11.76a.14.14,0,0,0,0,.23.68.68,0,0,1,.07.72c.19.07.26-.05.36-.09a.54.54,0,0,1,.51,0c.09.09,0,.21-.07.28s-.23.34-.48.2c-.54-.3-.64.27-1,.38s-.06.32.06.5,0,.19,0,.29-.07.35.23.36c.53,0,.42.26.2.51s-.36.34.08.44c.28.07.28.19,0,.31h-.06c-.89.52-.9.69,0,1.21a2,2,0,0,1-1-.06c-.13-.06-.28-.18-.43,0s0,.14,0,.19a.44.44,0,0,0,.42.24c.24,0,.47-.07.71-.09s.51,0,.49.32-.29.34-.57.26-.41-.11-.54.07.15.25.19.39a1.15,1.15,0,0,0,.48.73c.15.1.09.25-.08.34a1.07,1.07,0,0,0-.35.2c-.16.17-.33.27-.55.12s-.06-.3,0-.46a.42.42,0,0,0-.43-.61c-.15,0-.36.12-.27.21.39.39-.11.89.25,1.28.11.13,0,.3,0,.45s0,.23.15.2c.68-.08.58.35.52.67-.09.48-.13.89.54,1.06.23.06.16.21,0,.25-.33.08-.67.27-1,0-.07-.42,0-.85-.08-1.28,0-.1,0-.22-.13-.26a.15.15,0,0,0-.16,0c-.11.12,0,.19.09.26a.44.44,0,0,1,.11.53.61.61,0,0,0,.17.72,1.55,1.55,0,0,0,.44,1c.25.25,0,.37-.14.5a.69.69,0,0,1-.81.16c-.2-.13,0-.27.15-.35s.2-.09.15-.2a.23.23,0,0,0-.3-.09c-.19.1-.59,0-.57.19s-.29.57-.2.84.37.24.6.1.44,0,.44.25.07.71-.38.92a.22.22,0,0,0-.09.28,3.25,3.25,0,0,1,.12,1,.27.27,0,0,0,.31.26c.18,0,.38-.07.38.17s-.23.28-.41.33a.29.29,0,0,1-.4-.21.37.37,0,0,0,0-.15c-.14-.2-.36-.14-.54-.1a.2.2,0,0,0-.09.35c.19.2.13.37,0,.56s-.09.18,0,.24.21,0,.3-.08a1.23,1.23,0,0,1,.31-.14c.13,0,.29-.05.37.09s0,.2-.1.27a2.52,2.52,0,0,1-.62.56c-.49.2-.4.6-.53.93-.06.16.08.21.24.22s.25.06.27.17-.12.18-.23.21-.36.12-.16.35,0,.4-.15.56a1.61,1.61,0,0,0-.34.48c-.11.26-.11.46.31.41s.39.18.23.37a5.14,5.14,0,0,1-.66.66c-.32.26-.66.55-.22,1s.39.84-.36,1.18c-.21.1-.32.19-.23.4a1.19,1.19,0,0,1-.19,1.35c-.09.11-.07.21.09.22.61,0,.34.21.09.4A.22.22,0,0,0,15,68a1.05,1.05,0,0,1-.08,1.27c-.06.07-.18.26,0,.32.81.26.15.42-.05.59s-.21.21-.16.36.23.15.36.13a1.74,1.74,0,0,1,.9.22c.11,0,.25.07.18.2a.18.18,0,0,1-.26,0c-.43-.26-.83.13-1.27,0-.21,0-.2.26-.11.42s0,.5,0,.69c0,.43-.38.74-.22,1.2a1.05,1.05,0,0,1-.39,1.23c-.37.29-.16.78.35.85a2,2,0,0,1,.8.38c-.4,0-.69.09-.78.47s-.45.33-.8.2c-.13,0-.32-.18-.42,0s.13.22.27.26.43.19.41.47-.07.73-.48.82-.45.44-.33.63a1,1,0,0,1,0,.93c-.07.2-.16.4.14.48s.24-.17.28-.31.07-.18.19-.16a.19.19,0,0,1,.15.2c0,.26.12.55-.42.57s-.68.34-.51.77a.76.76,0,0,1,.09.35,2.85,2.85,0,0,0,0,1.56c.1.29-.25.42-.6.38-.11,0-.26-.08-.28.08s.12.17.25.18a1.19,1.19,0,0,1,.52.11c.1,0,.27.13.2.22-.47.62.22.64.6.86a1.16,1.16,0,0,0-1.12.6c-.27.38-.1.78-.13,1.17,0,.15.16.18.27.26a3,3,0,0,1-.3,1.16c-.05,0-.12,0-.17,0-.21.08-.16-.51-.43-.13-.15.21.18.74.45.77s.47.2.3.49l-.23.37a.58.58,0,0,0,0,.85c.19.18,0,.75-.23.85s-.29-.08-.36-.22-.11-.28-.34-.19a.29.29,0,0,0-.21.34,1.16,1.16,0,0,0,.33.66c.2.22.14.38-.08.53a.79.79,0,0,0-.33,1.1c.06.11.11.24,0,.33-.39.32-.17.42.27.45-.22.13-.49,0-.54.26s.06.32.27.41c.5.21.35.45,0,.64s-.49.18-.12.45c.19.14.13.38-.12.47s-.28.17-.26.35.18.2.34.21c.37,0,.41.25.35.49s-.23.36-.52.22-.31,0-.29.17c.06.44-.14.86-.12,1.29,0,.15-.08.33.14.42s.1.15,0,.26-.44.47,0,.75a1,1,0,0,1,.43.92.25.25,0,0,1-.3.26c-.2,0-.16-.17-.11-.29s.08-.28-.16-.3-.25.12-.26.28c0,.55-.14,1.09-.13,1.65a2,2,0,0,0,.36,1.18s0,0,.05,0c.12.22.18.47-.06.62s-.29-.21-.49-.25a1.24,1.24,0,0,0,.32,1.36c.18.2.34.4,0,.56s-.51.65-.64,1c-.36-.38,0-.79,0-1.18.07-1.43.24-2.86.4-4.29.18-1.65.26-3.3.56-4.94.1-.59,0-1.21.1-1.81.07-.42.09-.85.16-1.27a21.4,21.4,0,0,0,.31-2.85c0-1.19.34-2.34.32-3.53a14.66,14.66,0,0,0,.2-1.52,16,16,0,0,1,.22-2.94c.19-2,.26-4,.48-6,.07-.63.1-1.27.15-1.9.13-1.69.3-3.38.44-5.07a13.39,13.39,0,0,0,.14-2.68A5.12,5.12,0,0,1,13,66.15a23.93,23.93,0,0,0,.23-2.64,33.44,33.44,0,0,0,.22-3.6c0-1,.26-2.06.16-3.1-.06-.69.16-1.37.14-2.06,0-1,.1-1.92.11-2.88a5.34,5.34,0,0,1,.08-1.66A2.51,2.51,0,0,0,14,49.05c-.15-1,.08-2,0-3a5.18,5.18,0,0,1,.2-1.34c.08-.42-.1-.87,0-1.34.17-1.25,0-2.52.16-3.79s0-2.61,0-3.91c.11-1.71,0-3.43.13-5.14.14-2.06,0-4.11.1-6.17a10.52,10.52,0,0,1,.35-3c.13-.42.54-.75.52-1.21.57.19.31-.61.8-.51a2.93,2.93,0,0,1,1-1.16,25.12,25.12,0,0,1,2.49-2.1c.8-.57,1.47-1.26,2.3-1.79A3.92,3.92,0,0,0,23.05,13.87Z"/><path class="cls-5" d="M68.26,61a25.41,25.41,0,0,0,.21,4.44c.07.61,0,1.23.12,1.85.18,1.36.06,2.73.3,4.09a7.62,7.62,0,0,1,0,1.26,6.44,6.44,0,0,0,.1,1.64c.18.68,0,1.37.2,2.05s0,1.31.24,2a1.16,1.16,0,0,1-.06.81c-.15.32.13.66.11,1-.1,1.61.09,3.22.13,4.83,0,.82,0,1.66.09,2.48s-.07,1.67,0,2.5c.18,2.2.09,4.4.12,6.6a15.65,15.65,0,0,1,.09,2.26,10.74,10.74,0,0,0-.06,2.53c.11,1-.1,1.89,0,2.83a22.67,22.67,0,0,1,.1,2.47c0,.6-.1,1.2-.1,1.8,0,3.17,0,6.33,0,9.5,0,.37-.09.45-.54.5a15.4,15.4,0,0,0-1.84.45,8.66,8.66,0,0,1-1.74.35c-.24,0-.19.2-.33.24a.37.37,0,0,1-.12-.37,3.3,3.3,0,0,0,.06-1c-.1-3.09,0-6.19.13-9.28.07-2.31.19-4.62.25-6.93.06-2,.19-4,.27-6,.06-1.45.08-2.91.16-4.37.11-2.15.26-4.31.29-6.46a.61.61,0,0,1,.34-.62c.24.14.23.36.24.56a42.67,42.67,0,0,1-.18,4.53c-.06,1.06-.08,2.12-.14,3.18-.07,1.39-.12,2.78-.18,4.17-.11,2.58-.17,5.17-.31,7.76-.08,1.37,0,2.74-.15,4.11a14.7,14.7,0,0,1-.11,2.1s.12-.07.19,0c.37.23.59.18.62-.24a17.56,17.56,0,0,0,.13-1.77c0-2,.1-4,.14-6,.06-2.57.15-5.14.23-7.71.09-2.79.13-5.59.26-8.38.08-1.86,0-3.73.11-5.58s0-3.72.11-5.58a2.09,2.09,0,0,0-.08-.55,1.06,1.06,0,0,1-.43-1c.15-3.52.4-7,.72-10.54.06-.62,0-1.25,0-1.87C68,61.27,67.86,61,68.26,61Z"/><path class="cls-6" d="M67.87,75.36c0,1.58.09,3.17,0,4.75-.13,1.8,0,3.61-.1,5.41-.15,2.83-.17,5.66-.27,8.49,0,1.31,0,2.63-.09,3.95-.15,2.65-.17,5.31-.27,8,0,1.18-.05,2.36-.09,3.54a9.4,9.4,0,0,0-.12,1.19c0,.2.06.45-.27.5s-.6-.05-.66-.39a4.45,4.45,0,0,1-.08-1.36c0-.2,0-.41-.05-.61.15-1.59,0-3.19.2-4.78,0-.12,0-.24,0-.36,0-1.79,0-3.58.14-5.37s.15-3.81.24-5.71c.08-1.74.14-3.47.25-5.2.07-1,0-1.94.11-3-.41.51-.21,1-.24,1.45-.12,2-.1,4-.29,6-.1,1.12,0,2.24-.16,3.36-.12.87,0,1.76-.06,2.64,0,1.27-.15,2.55-.22,3.83,0,.35,0,.71,0,1.07,0,1.42-.14,2.84-.15,4.27s0,3-.14,4.52c-.13,2.33,0,4.65-.09,7,0,.2.08.42-.11.6a7.35,7.35,0,0,1-.82-3.29c.15-1.71.14-3.43.18-5.15.08-2.72.13-5.43.31-8.15.09-1.49.12-3,.15-4.47,0-2.34.21-4.67.34-7a14.6,14.6,0,0,0,0-1.87,32,32,0,0,1,.2-3.53c0-.86.07-1.73.08-2.59A15.26,15.26,0,0,1,66,81.4,13.08,13.08,0,0,0,66.08,78c-.09-.41.19-.79.16-1.18a19.38,19.38,0,0,1,.16-3c.12-1.52.19-3,.3-4.57s.24-2.82.27-4.24c0-1.1.2-2.2.25-3.31.06-1.45.12-2.91.28-4.36.13-1.25.17-2.51.32-3.77s.23-2.41.26-3.62c0-1,.25-2.07.26-3.12,0-1.52.41-3,.41-4.54,0-.12,0-.24,0-.36,0-1.56.31-3.1.41-4.65,0-.61.1-1.21.1-1.82a1.48,1.48,0,0,1,.16-.92.53.53,0,0,0,0-.35A19.79,19.79,0,0,1,69.74,31c.07-.77.13-1.55.15-2.32s.24-1.51.27-2.27c0-1.35.27-2.69.26-4A3.87,3.87,0,0,0,70,19.74c0-.58-.73-1-.62-1.61.07-.34-.17-.73.2-1a1.13,1.13,0,0,1,.7-.09c.38.06.5-.11.53-.4.3-2.29.55-4.59.68-6.89.07-1.11.33-2.21.38-3.32,0-.3.14-.63.57-.63s.57.33.58.66a2.12,2.12,0,0,1,0,.87.22.22,0,0,0,0,.08A25.9,25.9,0,0,1,72.71,10c-.12,1.54-.32,3.07-.46,4.61s-.33,3.14-.48,4.71c-.13,1.23-.24,2.47-.38,3.71a8.27,8.27,0,0,1-.15,1.49c.08,1.27-.28,2.52-.24,3.79,0,.09-.09.18-.14.27-.15,1.53-.27,3.06-.39,4.6s-.33,3.37-.46,5.07c-.15,1.91-.35,3.83-.53,5.75s-.27,3.63-.44,5.44c-.1,1-.16,2.11-.2,3.16.06,1.59-.2,3.17-.26,4.75,0,1.12-.15,2.25-.21,3.37,0,.09,0,.18-.11.22s-.14.19-.15.31A23,23,0,0,1,68,64.38c-.26,1.91-.2,3.83-.45,5.73-.15,1.19-.09,2.39-.15,3.58,0,.45-.07.89.48,1.16a.47.47,0,0,0-.32.5,2.78,2.78,0,0,1-.11.86c0,.07.11,0,0,0s0,0,0,0C67.63,75.92,67.44,75.52,67.87,75.36Z"/><path class="cls-7" d="M72.93,7.31a3.58,3.58,0,0,0-.07-1c-.08-.21-.2-.46-.52-.41a.44.44,0,0,0-.37.48c0,1.42-.36,2.8-.39,4.21s-.24,2.93-.39,4.38a20.28,20.28,0,0,1-.3,2c-.06.31-.22.4-.52.23s-.62,0-.93,0-.25,0-.3-.12a4.5,4.5,0,0,0-1.65-1.68,17.8,17.8,0,0,0-2.8-1.49.62.62,0,0,0-.4-.1,14.33,14.33,0,0,0-1.61.32.37.37,0,0,1-.18,0,7.53,7.53,0,0,0-3.5-1.9c-1.11-.21-2.24-.33-3.34-.56-.24-.05-.54,0-.66-.28,0-.06.08-.07.14,0a1.9,1.9,0,0,1,1.08.13c.85.39,1.46-.08,2.14-.3.84-.29,1.6-.73,2.42-1.07a10.36,10.36,0,0,0,1.77-.7,20.09,20.09,0,0,1,2.52-1.21c.81-.39,1.7-.65,2.49-1.05A27.84,27.84,0,0,1,71,5.65c.5-.17,1-.51,1.64-.19a.62.62,0,0,1,.25.22A2.14,2.14,0,0,1,72.93,7.31Z"/><path class="cls-8" d="M64.25,119.42l-.23,0a2.61,2.61,0,0,1-.91-.28,3.89,3.89,0,0,1-.09-1.83,34.76,34.76,0,0,0,.64-4.43c.1-1.07.07-2.14.11-3.21.07-1.63.14-3.26.16-4.89s.09-3.5.13-5.25c0-1.51.13-3,.14-4.52,0-1.11.19-2.22.16-3.32s.16-2.39.11-3.58a20.65,20.65,0,0,1,.18-2.6c0-.62,0-1.25,0-1.87a7.3,7.3,0,0,0,.19-2.13c.06-1.2.16-2.41.19-3.61,0-.73,0-1.46.12-2.17.15-1.26,0-2.53.21-3.77a4.41,4.41,0,0,0-.05-1.45.88.88,0,0,1,.05-.15,7.49,7.49,0,0,0,.12-2.71.76.76,0,0,1,0-.15,9.53,9.53,0,0,0,.27-2.11c0-1,.11-2,.19-3,.05-.7.09-1.41.14-2.12.08-1.23.15-2.45.18-3.68,0-1.91.44-3.79.48-5.71A25.18,25.18,0,0,1,67,47.27a11.53,11.53,0,0,0,.07-1.86,15.86,15.86,0,0,1,.26-2.17c.09-.65.07-1.31.11-2a15.65,15.65,0,0,1,.23-2.17,19.48,19.48,0,0,0,.15-2.64A17.08,17.08,0,0,0,68,33.36c0-.48-.2-1-.21-1.44,0-.21-.1-.43.06-.63s.4-.57.26-.93a1.2,1.2,0,0,1,.08-.49c.17-.32.34-.34.52,0,0,.91.06,1.82,0,2.74,0,.24,0,.59.5.42.1,0,.18.11.2.22a.76.76,0,0,1,0,.15,3.8,3.8,0,0,0-.11,1.21.75.75,0,0,1,0,.16c0,.44,0,.87,0,1.31-.15,1.45-.2,2.9-.36,4.35s-.17,3.11-.37,4.66c-.3,2.39-.41,4.8-.6,7.19s-.4,4.74-.54,7.1c-.1,1.8-.24,3.59-.4,5.39-.07.7-.07,1.41-.12,2.12-.18,2.59-.31,5.19-.53,7.78-.08,1.07-.08,2.15-.2,3.22a1.48,1.48,0,0,0,0,.19c-.09.56,0,1.13-.08,1.7-.07,1-.18,2.06-.22,3.09s-.06,2.22-.16,3.32c-.12,1.32-.09,2.63-.16,4-.09,1.75-.15,3.49-.25,5.24-.12,2.14-.19,4.29-.25,6.44,0,1.71-.13,3.42-.19,5.13s0,3.4-.17,5.09c-.05.65,0,1.31,0,2,0,1.21-.11,2.42-.06,3.63a2.42,2.42,0,0,0,.17.92C64.94,119,64.77,119.24,64.25,119.42Z"/><path class="cls-9" d="M55,11.38c1.33.35,2.74.42,4.09.73a6.15,6.15,0,0,1,3.46,2c-.12.27-.36.13-.53.1-3.44-.69-6.91-1.25-10.35-2-.7-.15-1.4-.25-2.1-.4-.19,0-.4,0-.53-.2-.1-.44-.32-.89,0-1.34a12.94,12.94,0,0,0,2,.33C52.32,10.86,53.66,11.09,55,11.38Z"/><path class="cls-10" d="M64.25,119.42c.29-.29.71-.55.21-1-.09-.08-.07-.27-.06-.4,0-2.08.07-4.15.15-6.23,0-1.19,0-2.39.09-3.58.13-2.5.18-5,.26-7.49.06-1.75.12-3.5.22-5.25.11-2.07.24-4.14.32-6.22,0-1.05.07-2.1.14-3.15.12-1.9.18-3.8.27-5.7,0-.22.07-.44.1-.66.18-.55,0-1.13.12-1.68V78s.08,0,.13,0c.25.36.11.75.1,1.12,0,1.26-.23,2.52-.3,3.78a13.83,13.83,0,0,0,0,1.58,15.66,15.66,0,0,1-.12,2.47c-.19,2.24-.07,4.48-.28,6.71-.08.82,0,1.64-.17,2.46a16.84,16.84,0,0,0,0,1.75c-.07,2.07-.19,4.15-.25,6.23,0,1.34-.13,2.68-.13,4s-.09,2.52-.1,3.78-.09,2.3-.11,3.45a12.71,12.71,0,0,0,0,1.85c0,.23,0,.52.2.64.52.37.39.84.42,1.3v.33A1.38,1.38,0,0,1,64.25,119.42Z"/><path class="cls-11" d="M54.09,121.49a38.65,38.65,0,0,1-5.05.43c-.47.15-1,0-1.44.1h-.71c-.71.14-1.44,0-2.15.09h-.47a12.78,12.78,0,0,1-2.05.07c-.77,0-1.54,0-2.31,0s-1.8,0-2.7,0a.92.92,0,0,1-.52,0l-.52.09h-4c-.86,0-1.73,0-2.59-.06s-1.69,0-2.53,0a3.64,3.64,0,0,1-.74-.06,13.35,13.35,0,0,0-1.67,0,1.78,1.78,0,0,1-.51-.06,8.3,8.3,0,0,0-1.22,0c-.5-.12-1,.06-1.52-.15a2.49,2.49,0,0,0-.77-.07c-.16,0-.41,0-.46-.14s.15-.26.32-.32a.55.55,0,0,1,.31,0c.33.22.7,0,1,.06a14.77,14.77,0,0,0,3.86.22c1.4-.07,2.75.16,4.12.18s2.5-.09,3.75,0,2.22-.09,3.33,0c.71.07,1.42-.14,2.15-.11,1.53,0,3.07-.14,4.61-.12a121.39,121.39,0,0,0,12.21-.89c.62-.18,1.27-.19,1.89-.36.2,0,.46-.07.37.25l-.23.11A15.94,15.94,0,0,1,54.09,121.49Z"/><path class="cls-12" d="M51.06,120a17.07,17.07,0,0,1,2.14.13c1.7.11,2.36-.28,2.79-1.7a3.6,3.6,0,0,1,1.24-.57c.52,0,1,.23,1.52.26a.36.36,0,0,1,.37.4,1.74,1.74,0,0,1,.23,1.06.33.33,0,0,1-.19.06,25.67,25.67,0,0,1-3.28.78c-1.83.27-3.68.44-5.53.56l-1.2.08c-.28,0-.63.08-.65-.34,0-.57.13-.79.62-.82a3,3,0,0,1,.83.1A2.32,2.32,0,0,0,51.06,120Z"/><path class="cls-13" d="M68.84,52.62c0-1.8.18-3.59.33-5.39.06-.62.08-1.24.13-1.86.13-1.79.3-3.59.48-5.38.11-1.06.15-2.14.26-3.2.16-1.45.24-2.89.44-4.33.15-1.1.19-2.21.28-3.31,0-.18-.07-.39.1-.55,0,1.51-.25,3-.29,4.51,0,.67-.11,1.33-.17,2-.15,1.57-.35,3.13-.46,4.7,0,.49-.1,1-.14,1.48-.16,1.71-.33,3.41-.48,5.11,0,.55-.06,1.1-.09,1.64,0,.85-.1,1.69-.19,2.53A7.18,7.18,0,0,1,68.84,52.62Z"/><path class="cls-14" d="M59.12,118.56a.85.85,0,0,0-.65-.31,8.75,8.75,0,0,1-1.31-.28.38.38,0,0,1-.36,0c-.27-.34.07-.36.28-.36.52,0,1,0,1.55-.09a18.63,18.63,0,0,0,3.24-.4.78.78,0,0,1,.58,0,1,1,0,0,1-.85,1,3.14,3.14,0,0,0-1.1.34c-.43.1-.83-.19-1.27-.09Z"/><path class="cls-15" d="M71.24,24.54c0-1.33.19-2.66.33-4,.1-.91.18-1.83.27-2.74.15-1.46.31-2.93.46-4.39.13-1.29.25-2.58.38-3.87.07-.73.16-1.45.25-2.17.23.16.12.39.1.57-.1,1.18-.22,2.35-.35,3.52s-.33,2.54-.47,3.81c-.11,1-.15,2-.25,3s-.3,1.89-.34,2.84c0,.6-.11,1.2-.16,1.79A5.43,5.43,0,0,1,71.24,24.54Z"/><path class="cls-16" d="M20.54,121.4c0,.11-.25.1-.26.26.35.16.79-.1,1.11.18l.05,0v0a15.93,15.93,0,0,1-3.08-.31c-.23,0-.5,0-.73-.1a14.19,14.19,0,0,1-2.76-.54.68.68,0,0,1-.35-.17c.06-.28.3-.16.48-.15a3.91,3.91,0,0,1,.76.14,2.77,2.77,0,0,0,.81.1c1.19,0,2.36.22,3.54.29C20.28,121.17,20.53,121.14,20.54,121.4Z"/><path class="cls-17" d="M48.77,10.24l0,.51h-.1c-.11-1.08-.23-2.15-.35-3.23-.15-1.41-.32-2.82-.45-4.23A8.27,8.27,0,0,0,47.45.93V.81c.08,0,.19-.16.22,0a37.07,37.07,0,0,1,.5,4.07c.12,1.23.35,2.46.46,3.69C48.68,9.13,48.73,9.68,48.77,10.24Z"/><path class="cls-18" d="M59.2,119.61h.15c-.16.55-.69.73-1.2.94,0-.11,0-.22-.22-.16a14,14,0,0,1-2,.37c-.15.07-.32.11-.39-.07s.1-.21.24-.24c.51-.13,1.05-.19,1.56-.32S58.59,119.77,59.2,119.61Z"/><path class="cls-19" d="M13.7,120.57c0-.15-.22.07-.24-.08-.32-.32-.86-.51-.77-1,.3-.12.44.17.68.21a1.53,1.53,0,0,1,.46.23c.29.24.7.21,1,.36.18.07.39.17.29.38s-.26.06-.4,0-.29.08-.44.1A2.18,2.18,0,0,1,13.7,120.57Z"/><path class="cls-20" d="M12.75,119.43c-.12.53.51.68.71,1.06-.5-.1-.63-.58-1-.78-.09,0,0-.14,0-.22.09-.48.56-.9.3-1.43.63-.47.37-1.25.83-1.78v.11a.26.26,0,0,1,.09.19A12.31,12.31,0,0,1,12.75,119.43Z"/><path class="cls-21" d="M59.23,118.44v-.14l1.15.2a7.17,7.17,0,0,1,2.8.59c.24.17.62.1.84.31a15.72,15.72,0,0,1-2.73-.55C60.6,118.76,59.92,118.58,59.23,118.44Z"/><path class="cls-22" d="M35.61,122.25c.18.08.4,0,.56.09-.05.14-.18.1-.29.1-1.77,0-3.55,0-5.32,0-.1,0-.25,0-.29-.1a15.55,15.55,0,0,1,1.93,0C33.34,122.26,34.48,122.34,35.61,122.25Z"/><path class="cls-23" d="M32.21,122.32l-1.94,0h-3.1a1.62,1.62,0,0,1-.85-.12s-.05,0,0-.06,0,0,0,0H27c.65.09,1.29,0,1.94,0a1.49,1.49,0,0,1,.63,0l2.61,0C32.21,122.25,32.23,122.28,32.21,122.32Z"/><path class="cls-24" d="M13.7,120.57c.19,0,.4,0,.56.11s.21,0,.28.1c1,.36,2.07.43,3.08.71a10.52,10.52,0,0,1-3.82-.8C13.75,120.68,13.73,120.61,13.7,120.57Z"/><path class="cls-23" d="M21.43,121.9l0-.06a5.88,5.88,0,0,0,1.51.09c.41.12.85-.05,1.25.11h.43a11.29,11.29,0,0,0,1.3,0c.1,0,.3-.08.26.14a15.15,15.15,0,0,1-3.16-.13C22.48,122.05,21.89,122.24,21.43,121.9Z"/><path class="cls-25" d="M55,11.38a38.62,38.62,0,0,1-4-.73,9.52,9.52,0,0,1,2.44.35,5.35,5.35,0,0,1,1.73.37Z"/><path class="cls-26" d="M54.09,121.49l3.83-.82a8.44,8.44,0,0,1-2.49.74A4.31,4.31,0,0,1,54.09,121.49Z"/><path class="cls-27" d="M36.69,122.25h.43c.91-.13,1.82,0,2.73-.06a3.34,3.34,0,0,1,.89.06s-.07.1-.11.1C39.32,122.33,38,122.38,36.69,122.25Z"/><path class="cls-17" d="M42.28,2.07A3,3,0,0,1,40.71,3,4.09,4.09,0,0,1,42.28,2.07Z"/><path class="cls-28" d="M40.74,122.24l-.87,0v0l0,0H42.3s0,0,0,0,0,0,0,0Z"/><path class="cls-29" d="M42.3,122.22v-.08l2,0c-.37.28-.79.08-1.19.12S42.56,122.22,42.3,122.22Z"/><path class="cls-30" d="M44.74,122.11a11.87,11.87,0,0,1,2.15-.09c-.35.26-.76.07-1.14.1S45.08,122.12,44.74,122.11Z"/><path class="cls-16" d="M26.14,122.22c-.5-.19-1.05,0-1.55-.18a5,5,0,0,1,1.72.09.08.08,0,0,0,0,.1Z"/><path class="cls-3" d="M46.62,0c0,.12.32.23.09.33s-.4-.12-.46-.33Z"/><path class="cls-31" d="M47.6,122a3.87,3.87,0,0,1,1.44-.1C48.58,122.2,48.07,121.92,47.6,122Z"/><path class="cls-17" d="M43.24,1.54a1.69,1.69,0,0,1-1,.53A1.72,1.72,0,0,1,43.24,1.54Z"/><path class="cls-19" d="M16.81,112c4.81,1.86,9.62,3.71,14.51,5.41a22.06,22.06,0,0,0,3.29.94c.17.17.41.14.62.18s.49,0,.45.35a1,1,0,0,1-.7,0,101.78,101.78,0,0,1-12.2-2.48l-.39-.13c-.36-.2-.85-.14-1.14-.45a8.23,8.23,0,0,0-2-.75,23.82,23.82,0,0,1-3.82-1.69,3.33,3.33,0,0,1-.62-.41.28.28,0,0,1-.05-.3,1.34,1.34,0,0,1,1.67-.82C16.54,111.94,16.68,112,16.81,112Z"/><path class="cls-32" d="M14.75,112.71l.15.23c.54.41.18.87.1,1.3-.26,1.28-.66,2.53-1,3.8a11,11,0,0,0-.36,1.48c0,.14-.07.33-.35.21a.94.94,0,0,1-.58-.3,24.66,24.66,0,0,1,.74-2.64l.09-.4c.32-1,.63-2.06.95-3.09C14.6,113.1,14.68,112.91,14.75,112.71Z"/><path class="cls-3" d="M34.34,106.45c-.1.25-.12.54-.56.57-.26,0-.5.13-.5.43,0,.15,0,.31-.26.24s-.38-.16-.27-.39a.8.8,0,0,0-.27-1c-.1-.09-.2-.2-.11-.32s.21-.07.32,0a.86.86,0,0,0,.63-.07C33.85,105.67,34.4,106,34.34,106.45Z"/><path class="cls-3" d="M35.61,97.29a.45.45,0,0,0-.51.08c-.12.1-.26.27-.43.09A.28.28,0,0,1,34.8,97a3.34,3.34,0,0,0,1-.5.42.42,0,0,1,.6.16c.11.3-.11.5-.39.61A1.32,1.32,0,0,1,35.61,97.29Z"/><path class="cls-3" d="M43.25,18.69c0,.16,0,.3-.19.37s-.27-.07-.37-.18a.62.62,0,0,0-.22-.17c-.52-.18-.43-.37-.06-.64s.4-.38.5.08C43,18.36,43.35,18.42,43.25,18.69Z"/><path class="cls-3" d="M36,95.42l-.72.67h-.06c-.14-.07-.35-.24-.24-.3.38-.22-.13-.81.47-.86A.54.54,0,0,1,36,95.42Z"/><path class="cls-3" d="M35,87.52c-.41-.41-.68-.83,0-1.21C35.86,86.71,35.43,87.12,35,87.52Z"/><path class="cls-3" d="M35,101s0,.12,0,.12c-.48,0-.59.45-1,.55a.31.31,0,0,1-.39-.16.22.22,0,0,1,.14-.3,6.24,6.24,0,0,0,.91-.42C34.75,100.66,34.91,100.83,35,101Z"/><path class="cls-3" d="M47.22,2.82c-.36.33-.79.51-.89.94,0,.1-.17.05-.25,0a.24.24,0,0,1-.1-.36A1,1,0,0,1,47.22,2.82Z"/><path class="cls-3" d="M35,107.89c-.05.12,0,.43-.21.28s-.79.21-.85-.24.51-.3.79-.38S34.93,107.73,35,107.89Z"/><path class="cls-3" d="M34.72,98.33c.13.39-.35.51-.49.79-.06.11-.26-.09-.3-.21s-.13-.47.2-.56a2.3,2.3,0,0,1,.59,0Z"/><path class="cls-3" d="M36.69,72.6a.48.48,0,0,1-.39.27c-.22,0-.42.21-.66.08a.1.1,0,0,1,0-.18,1.35,1.35,0,0,1,.85-.32A.2.2,0,0,1,36.69,72.6Z"/><path class="cls-3" d="M37.91,50.35c-.41.16-.33.6-.79.52-.14,0-.28-.11-.21-.26C37.06,50.28,37.38,50.28,37.91,50.35Z"/><path class="cls-3" d="M34.72,98.33c0-.16-.22-.33,0-.47a.89.89,0,0,1,.58,0c.06,0,.15.1.14.13a.55.55,0,0,1-.4.35,2,2,0,0,1-.35,0Z"/><path class="cls-3" d="M36.75,59a.29.29,0,0,1-.33.25.52.52,0,0,1-.47-.39c0-.17.13-.2.27-.18S36.67,58.78,36.75,59Z"/><path class="cls-3" d="M37.36,62.58c0,.21-.09.35-.31.34s-.29-.16-.29-.33,0-.35.26-.34A.4.4,0,0,1,37.36,62.58Z"/><path class="cls-3" d="M33.38,100.11c.25,0,.36.11.37.3s-.15.21-.32.21-.37-.06-.37-.25S33.22,100.12,33.38,100.11Z"/><path class="cls-3" d="M46.7,1.28c-.22.06-.26.36-.56.36-.13,0-.33-.06-.3-.19.07-.29.4-.28.65-.35S46.67,1.14,46.7,1.28Z"/><path class="cls-3" d="M34.47,92.48c-.11,0-.34,0-.28-.15s.31-.24.54-.26.32.05.28.19S34.69,92.48,34.47,92.48Z"/><path class="cls-3" d="M33,104.69c0,.22-.17.21-.31.21s-.38,0-.34-.25.1-.29.31-.24A.49.49,0,0,1,33,104.69Z"/><path class="cls-3" d="M44.29,10.59c.16.05.34.08.35.24s-.15.28-.33.31S44,11,44,10.88,44.13,10.64,44.29,10.59Z"/><path class="cls-3" d="M37.32,52.78c-.12.12,0,.38-.3.38s-.28-.09-.23-.23.09-.36.32-.39S37.34,52.64,37.32,52.78Z"/><path class="cls-3" d="M33.6,103.46a.61.61,0,0,1-.41.46c-.11,0-.16-.09-.14-.18s.08-.39.31-.46S33.58,103.33,33.6,103.46Z"/><path class="cls-3" d="M37.24,55c-.11.07-.15.12-.19.11-.24,0-.47.21-.71,0a.1.1,0,0,1,0-.17A1.3,1.3,0,0,1,37.24,55Z"/><path class="cls-3" d="M34.35,96.13c0,.16-.11.22-.27.2a.18.18,0,0,1-.19-.22c0-.13.06-.26.24-.24S34.35,96,34.35,96.13Z"/><path class="cls-3" d="M43.61,17.1c0,.15,0,.3-.19.3s-.17-.16-.17-.28,0-.27.21-.27S43.57,17,43.61,17.1Z"/><path class="cls-3" d="M35,103.61c0,.15,0,.24-.2.23s-.25-.1-.25-.23.07-.25.24-.23S34.94,103.52,35,103.61Z"/><path class="cls-3" d="M41.44,28.29c.13,0,.23,0,.22.17a.24.24,0,0,1-.27.22c-.14,0-.28-.06-.26-.21S41.29,28.29,41.44,28.29Z"/><path class="cls-3" d="M35.25,89.42a.93.93,0,0,1-.7,0c-.08-.07,0-.17.12-.2A.43.43,0,0,1,35.25,89.42Z"/><path class="cls-3" d="M36.47,67.69a.46.46,0,0,1-.4.25c-.1,0-.22-.07-.19-.15s.28-.22.47-.24S36.48,67.61,36.47,67.69Z"/><path class="cls-3" d="M35.71,82.84a.17.17,0,0,1,.19.21.2.2,0,0,1-.2.21.22.22,0,0,1-.24-.19C35.43,82.92,35.57,82.87,35.71,82.84Z"/><path class="cls-3" d="M36.31,61.24c-.17,0-.24-.1-.25-.22s.11-.16.24-.16.26,0,.26.15S36.41,61.2,36.31,61.24Z"/><path class="cls-3" d="M35.31,68.49c.14,0,.29.1.29.26s-.13.13-.23.1-.27-.08-.27-.23S35.18,68.48,35.31,68.49Z"/><path class="cls-3" d="M35.13,91.4a.33.33,0,0,1-.3.21.17.17,0,0,1-.19-.16c0-.15.13-.21.29-.21A.2.2,0,0,1,35.13,91.4Z"/><path class="cls-3" d="M37.56,51.86c0,.13-.15.16-.26.16s-.24,0-.25-.16a.16.16,0,0,1,.18-.16A.35.35,0,0,1,37.56,51.86Z"/><path class="cls-3" d="M37.59,48.16a.21.21,0,0,1-.21.22c-.14,0-.13-.11-.13-.19a.22.22,0,0,1,.19-.24C37.56,47.93,37.6,48,37.59,48.16Z"/><path class="cls-3" d="M34.72,77.77c.14,0,.23,0,.22.18a.18.18,0,0,1-.18.17c-.12,0-.24-.05-.25-.17S34.59,77.78,34.72,77.77Z"/><path class="cls-3" d="M41.85,16.11c.3-.06.47,0,.54.18,0,0,0,.12-.06.12A.62.62,0,0,1,41.85,16.11Z"/><path class="cls-3" d="M45.36,11.63a.25.25,0,0,1-.28.14c-.11,0-.21-.06-.19-.15s.16-.14.29-.14S45.37,11.51,45.36,11.63Z"/><path class="cls-3" d="M32.29,104.15a.41.41,0,0,1-.47.19s-.05-.1,0-.13S32.06,104,32.29,104.15Z"/><path class="cls-3" d="M30.77,105.67c.11,0,.18.08.18.17a.18.18,0,0,1-.22.18.18.18,0,0,1-.18-.17A.2.2,0,0,1,30.77,105.67Z"/><path class="cls-3" d="M31.76,105.21c-.09,0-.22,0-.23-.1s.1-.18.23-.19.21,0,.23.12S31.87,105.19,31.76,105.21Z"/><path class="cls-3" d="M38.17,49.17c.16,0,.25,0,.24.15s-.13.15-.25.14S38,49.4,38,49.29A.15.15,0,0,1,38.17,49.17Z"/><path class="cls-3" d="M40.12,35.9c-.14,0-.23-.06-.21-.19s.06-.18.18-.15a.24.24,0,0,1,.22.21C40.33,35.88,40.22,35.9,40.12,35.9Z"/><path class="cls-3" d="M33.37,102.61A.41.41,0,0,1,33,103C33,102.76,33.11,102.7,33.37,102.61Z"/><path class="cls-3" d="M31.19,107.49a.13.13,0,0,1-.11-.14c0-.1.11-.14.22-.13s.15,0,.15.12S31.39,107.5,31.19,107.49Z"/><path class="cls-3" d="M35.15,71.94c.1,0,.15.07.12.14s-.1.18-.17.2-.14-.1-.13-.18S35,71.93,35.15,71.94Z"/><path class="cls-33" d="M56,116.39l-.11-1.6a5.35,5.35,0,0,1-.13-1.69c0-3.26-.22-6.51-.27-9.77,0-1-.15-1.9-.09-2.85a1.19,1.19,0,0,0,.13-.7c-.06-.64-.05-1.28-.07-1.92-.09-3.42-.32-6.83-.41-10.25,0-1.77-.21-3.53-.22-5.3a13.18,13.18,0,0,1-.1-1.4c-.07-2.13-.13-4.26-.26-6.39-.09-1.4-.09-2.8-.21-4.2-.17-2-.17-3.92-.27-5.88q-.21-4.26-.47-8.52c0-.6-.12-1.21-.11-1.82a2.93,2.93,0,0,1,0-.41c0-.12.07-.25.23-.28s.23.11.29.22c.47.83.58.87,1.64.65.58-.12,1.18-.18,1.75-.34a1.35,1.35,0,0,1,.77.05,8.24,8.24,0,0,0,1.72.19.8.8,0,0,0,.62-.28,3,3,0,0,1,.47-.4c.35-.22.71-.27,1,.09a1.17,1.17,0,0,0,.94.38c.14,0,.29,0,.35-.14.14-.37.5-.47.88-.53a.52.52,0,0,0,.49-.56c.1-1.59.16-3.19.26-4.79.11-1.75.23-3.5.31-5.25s.23-3.33.28-5c0-1.06.15-2.12.14-3.18a1.93,1.93,0,0,1,.19-.87c.2-.16.29,0,.38.11,0,.76-.08,1.52-.13,2.28a1.38,1.38,0,0,0,0,.57,2.49,2.49,0,0,0,0,1.3,12.57,12.57,0,0,0-.28,2.37.66.66,0,0,0,.13.54.66.66,0,0,1,0,.55,1.84,1.84,0,0,0-.16,1.15,22.32,22.32,0,0,0-.1,2.95c0,.59-.31,1.17-.12,1.78-.06.69-.15,1.38-.18,2.07a.69.69,0,0,0,.13.5,5.44,5.44,0,0,0-.19,2.37,6.46,6.46,0,0,0-.13,2.4c0,.32-.14.64-.19,1a3.77,3.77,0,0,0,.17,1.52,2.53,2.53,0,0,1-.23,2.17c-.3.16-.42,0-.38-.22.1-.58,0-1.17.14-1.75a12.49,12.49,0,0,0-.13,1.62c0,.32-.2.41-.5.24a2.07,2.07,0,0,0-1.45,0,4.85,4.85,0,0,1-1,.25s-.1,0-.11,0c-.23.5-.77.7-1.24,1a.12.12,0,0,0,0,0A5,5,0,0,1,59.71,62c-.06.12.16.17.28.23a1.17,1.17,0,0,1,.78,1.19,3.32,3.32,0,0,1-.19,1.24.72.72,0,0,0,0,.61c.2.42,0,.86.09,1.29s-.29.48-.58.61a.39.39,0,0,1-.48-.13c-.1-.16.1-.19.21-.25a.35.35,0,0,0,.17-.26A4.45,4.45,0,0,0,60,65c0-.57,0-1.14,0-1.71,0-.19,0-.44-.32-.47a10.38,10.38,0,0,1-1.12-.14c-.27-.09-.27.06-.27.2,0,1.1,0,2.19,0,3.28,0,.31.25.41.54.48s.72.16.35.58c-.11.13,0,.23.09.31a2.75,2.75,0,0,1,.28.19c.17.14.42.28.28.52s-.41.12-.63,0c-.54-.17-.83,0-1,.46,0,.14,0,.2.13.23.38.08.34.32.32.58a6.17,6.17,0,0,0,.22,2.85c.26-.1.34-.31.49-.45a1.83,1.83,0,0,0,.25-1.06,4.67,4.67,0,0,1,.06-1c.11-.4-.12-.48-.5-.47-.22-.09-.35-.24-.23-.46a.81.81,0,0,1,.67-.38.5.5,0,0,1,.54.25,6.76,6.76,0,0,0,.4.81.26.26,0,0,1-.08.34c-.63.5-.29,1.14-.34,1.72,0,.17.16.16.3.15.46,0,.57.21.41.55A.39.39,0,0,0,61,73c.23.23.17.46-.1.63a.57.57,0,0,1-.74-.11c-.11-.09-.11-.28-.33-.26s0,.23,0,.33a.54.54,0,0,1-.13.68c-.28.23-.37.41-.12.71s0,.42-.29.51-.63.1-1,.22c.13.23.41.28.54.5a1.75,1.75,0,0,1,.8-.77c.69-.44,1.21,0,1.79.17.17,0,.11.24.07.37s-.08.46-.39.46c-.52,0-.75.16-.71.64a.71.71,0,0,1-.47.68c-.54.24-.24.64-.22,1a.49.49,0,0,0,.62.43c.67-.09.84.44,1.26.66.11,0,0,.2,0,.28a3.61,3.61,0,0,1-.92,1,1.25,1.25,0,0,0-.7,1.42.12.12,0,0,0,.16,0c.21-.17.43-.34.74-.2a.41.41,0,0,1,.26.43.7.7,0,0,1-.42.65c-.42.2-.42.2-.37.7a1.59,1.59,0,0,0,.7-.68,2.31,2.31,0,0,1,1.16-.7.84.84,0,0,1,.74.11c.13.08.28.26.17.35-.29.23-.2.39,0,.63s.06.36-.25.33a1.53,1.53,0,0,1-.9-.18c-.4-.29-.69.05-.94.3s-.35.57-.82.51c0,.06.06,0,.09,0a3.31,3.31,0,0,0,2.22.23c.16-.06.39.14.59.22s.12.3.15.46-.11.25-.29.27a3.21,3.21,0,0,0-1.14.43c-.35.18-.73.36-1-.08a.16.16,0,0,0-.2,0,.17.17,0,0,0-.09.18.65.65,0,0,0,.76.49,1.05,1.05,0,0,1,.85.08.56.56,0,0,0,.56,0c.39-.19.53,0,.51.29s0,.9-.06,1.35C63,89.84,63,91.16,63,92.47c-.1,2.13-.15,4.26-.24,6.39.14-2.93.22-5.86.35-8.79.06-1.48.08-3,.17-4.46,0-.43,0-.86,0-1.29,0-1.44.1-2.88.16-4.32.1-2.1.15-4.2.32-6.3.08-1,.08-2,.11-3,0-1.21.21-2.42.15-3.64a1.1,1.1,0,0,1,0-.26c0-.12,0-.26.21-.28s.24.1.3.21a1.81,1.81,0,0,1,.06.73c-.2,2.13-.12,4.27-.33,6.4-.09.9-.12,1.81-.13,2.71,0,2.38-.22,4.75-.28,7.13-.05,1.95-.16,3.89-.24,5.83-.09,2.63-.16,5.25-.24,7.87-.09,3.13-.15,6.25-.25,9.38,0,1.59,0,3.19-.15,4.79a5.05,5.05,0,0,0-.08,1.4c0,1.09,0,2.19,0,3.28a.27.27,0,0,1-.09.15,1.29,1.29,0,0,1-.28.08c-.68.21-.73.18-.79-.45a2.25,2.25,0,0,1,.11-.77c.07-.28-.07-.4-.38-.37-1.48.13-3,.18-4.47.23-.51,0-.68.26-.65.69C56.31,116,56.47,116.33,56,116.39Z"/><path class="cls-34" d="M49,11.66c1.89.25,3.75.68,5.62,1,2.6.47,5.19,1,7.79,1.45,0,0,.07,0,.1,0h.14a5.55,5.55,0,0,1,1.15,1.51c.09.24.45.44.13.73a3.44,3.44,0,0,1-1.24-.08c-1.49-.34-3-.46-4.54-.71-2-.31-4-.47-5.94-.92-.7-.15-1.42-.2-2.13-.3a1.27,1.27,0,0,1-.87-.44A9.86,9.86,0,0,1,49,11.66Z"/><path class="cls-35" d="M55.5,100.42q.11,3.3.2,6.61c.07,2.59.13,5.17.19,7.76v3.68h-.15c0-.19,0-.37,0-.56.07-2.75-.12-5.49-.17-8.23,0-1.23,0-2.47-.09-3.7-.13-2.09-.17-4.19-.25-6.29-.07-1.83-.15-3.67-.24-5.5-.11-2.5-.26-5-.36-7.48-.06-1.38-.16-2.77-.24-4.15-.12-2.09-.22-4.19-.36-6.28-.12-1.9-.23-3.8-.36-5.7s-.23-3.63-.36-5.45c-.16-2.21-.35-4.42-.47-6.63-.09-1.5-.22-3-.36-4.5-.18-2.06-.36-4.11-.48-6.16-.09-1.4-.23-2.8-.36-4.2-.18-2.07-.36-4.13-.5-6.21-.12-1.88-.32-3.76-.48-5.64-.17-2.1-.4-4.2-.6-6.3s-.39-4-.59-5.94c-.13-1.34-.17-2.69-.41-4,0-.13-.25-.44.18-.49a.33.33,0,0,1,.14.21,2,2,0,0,1,0,.42c0,.22.12.43.12.66a3.12,3.12,0,0,0,.09,1.05c.06.77.19,1.55.19,2.33a19.17,19.17,0,0,1,.45,3.46c.22,2.07.39,4.15.58,6.23s.34,4,.52,6c.15,1.61.3,3.22.42,4.83s.3,3.36.42,5,.26,3.57.44,5.35c.06.59.1,1.18.12,1.76.08,1.91.28,3.81.41,5.71.09,1.45.17,2.91.33,4.36.06,2,.31,4,.4,6.07a10.24,10.24,0,0,0,.14,1.91.65.65,0,0,1,0,.19,11.79,11.79,0,0,0,.1,1.88c0,.92.14,1.84.18,2.76s.06,1.73.17,2.59a.63.63,0,0,1,0,.19,14.8,14.8,0,0,0,.09,2c0,1.11.14,2.21.19,3.32.1,2.44.24,4.89.34,7.33.08,1.87.16,3.74.25,5.62a7.91,7.91,0,0,1,.06,1.19,21.31,21.31,0,0,0,.08,2.4A.57.57,0,0,1,55.5,100.42Z"/><path class="cls-16" d="M43.61,121.71c-1.81,0-3.62.11-5.43.14-.92,0-1.84,0-2.73,0a19.86,19.86,0,0,1-2.44,0,22.82,22.82,0,0,0-2.49,0c-1.26.07-2.44-.27-3.66-.18s-2.43,0-3.64,0a6.85,6.85,0,0,0-2.12-.12c-.14,0-.25-.08-.32-.2.18-.29.48-.2.75-.19.64,0,1.27.11,1.91.16.39,0,.74-.15,1-.07a3.5,3.5,0,0,1-1.56-.08c-.12,0-.31,0-.29-.2s.21-.16.34-.17a12,12,0,0,1,1.8,0c1.41.13,2.84.14,4.25.16,2.3,0,4.6.16,6.89.13.78,0,.89-.15.6-.78a8.19,8.19,0,0,1-.63-1.43c.29-.23.49,0,.65.13.54.53,1,1.11,1.6,1.61.09.07.19.18.15.27-.23.53.21.4.51.42,1.08,0,2.14-.22,3.23-.08-.27,0-.51-.14-.35-.38a1.74,1.74,0,0,0,.21-1.06c0-.4.22-.59.67-.53.64.08,1.3.07,1.94.19a7.5,7.5,0,0,1,1.06,0c-.17.37-.54.16-.85.23.55.52,0,1-.13,1.45a.33.33,0,0,1,0,.14C44.29,121.63,43.83,121.43,43.61,121.71Z"/><path class="cls-36" d="M49.28,15.23l0-.2V13.89a.41.41,0,0,1,0-.16c.08-.15.1,0,.1,0,0,.32.31.36.55.39,1.74.23,3.48.52,5.2.86.71.14,1.47.09,2.18.23,1.8.36,3.66.39,5.43.88a9.09,9.09,0,0,0,1.29.16c.33.34.73.66.47,1.18a12.53,12.53,0,0,1-2.59-.36c-1.36-.18-2.7-.46-4.06-.61-1.77-.21-3.51-.51-5.26-.78a11.81,11.81,0,0,1-3.12-.6C49.4,15.08,49.41,15.26,49.28,15.23Z"/><path class="cls-11" d="M44.47,119.51a12.22,12.22,0,0,1-1.91-.09c-.36,0-.57,0-.55.45s.26.79-.27,1.09c-.12.07,0,.23.2.17s.43.05.61.22c-1.58,0-3.14.26-4.83.12.68-.42.36-.7,0-1a8.71,8.71,0,0,1-1.08-1.11,1.06,1.06,0,0,0-.68-.47c-.13.06-.19,0-.25-.09-.32-.23-.74-.19-1.09-.32s0-.08,0-.12c3,.32,6,.63,9,1C43.88,119.35,44.22,119.28,44.47,119.51Z"/><path class="cls-37" d="M44.45,121.19c-.1-.06-.12-.14,0-.21a.79.79,0,0,0,.09-1.27c.34-.2.74.05,1-.18a46.2,46.2,0,0,1,4.7.49,5.68,5.68,0,0,0,.83,0,1.75,1.75,0,0,1-1.15.06,3.63,3.63,0,0,0-.65,0c-.47,0-.85.54-.61.87.07.1.22.06.33,0,1.83-.17,3.68-.21,5.51-.47a25.75,25.75,0,0,0,3.61-.65c.31-.09.58-.22.87-.32.12,0,.24-.11.23.08a15.76,15.76,0,0,1-3.27,1c-.09,0-.28,0-.22.15s.18,0,.27.06a10.44,10.44,0,0,1-2.09.31c-2,.19-4,.35-6,.51a6.71,6.71,0,0,1-.78,0,33.32,33.32,0,0,0-3.46.1c0-.22.08-.32.34-.31s.37,0,.5-.1a11.81,11.81,0,0,1,1.64-.06A13.5,13.5,0,0,1,44.45,121.19Z"/><path class="cls-38" d="M56,116.39c.5-.27,0-.66.14-1s.13-.31.43-.37c1-.18,2.06,0,3.08-.16.62-.08,1.27-.09,1.9-.14s.57.15.42.5a2.19,2.19,0,0,0,0,1.39c.24-.19.41-.57.77-.21a.24.24,0,0,1,.07.3.37.37,0,0,1-.12.13.73.73,0,0,1-.74,0,1.81,1.81,0,0,0-1.44-.11,31.16,31.16,0,0,1-3.36.43,2.38,2.38,0,0,0-.75.15c-.23.11-.32,0-.37-.17Z"/><path class="cls-39" d="M56,117.12s.11.11.12.1a7.71,7.71,0,0,1,2.53-.36c.89,0,1.72-.37,2.62-.4a.67.67,0,0,1,.51.14.81.81,0,0,0,.93.1c.19.27,0,.42-.24.52-1.46.3-2.95.37-4.43.54a8.53,8.53,0,0,1-1,0c-.14,0-.32,0-.19.18-.27.18-.56.06-.84,0Z"/><path class="cls-40" d="M56,118c.27-.19.56,0,.84,0l.32,0a3.32,3.32,0,0,1-1.17.5Z"/><path class="cls-41" d="M16.8,29.53c-.28,0-.35-.11-.36-.31A1.5,1.5,0,0,1,16.31,28a33.12,33.12,0,0,0,.09-3.45c.12-.2.22-.1.25,0a1.28,1.28,0,0,1,0,.58c0-.32,0-.32.3-.33A5.38,5.38,0,0,1,17,26.4c0,.79,0,1.59,0,2.38A1.52,1.52,0,0,1,16.8,29.53Z"/><path class="cls-42" d="M17.41,26.82a.43.43,0,0,1,.63.57c-.35.6-.66,1.21-1,1.82-.21.05-.17-.09-.18-.18a2.18,2.18,0,0,1,.5-1.39.72.72,0,0,0-.13.19c-.06.07-.14.16-.24.13s-.12-.26-.12-.4A.69.69,0,0,1,17.41,26.82Z"/><path class="cls-2" d="M17.41,26.82c-.22.33-.66.61-.42,1.1.33-.13.26-.54.72-.7-.25.49-.45.89-.66,1.28-.12.24-.26.48,0,.71-.07.12-.1.26-.26.32V24.72c0-.26.09-.31.32-.13a6.49,6.49,0,0,1,.08,1.76c0,.12,0,.24.08.34Z"/><path class="cls-2" d="M16.47,24.42l0,4.8h-.09c-.56,0-.64,0-.48-.49.09-.25.28-.49.23-.77.47-1.18.15-2.39.23-3.59,0-.51.1-.56.73-.38C16.87,24.14,16.6,24.21,16.47,24.42Z"/><path class="cls-2" d="M18,52.08c-.43-.09-.53-.32-.34-.65s.19-.48-.18-.6c-.14,0-.22-.11-.17-.23a.56.56,0,0,1,.47-.27c.16,0,.33.07.31.18-.1.52.21,1.06-.09,1.57Z"/><path class="cls-43" d="M17.28,26.69c-.08,0-.21.13-.21,0a12.63,12.63,0,0,1,0-2,.31.31,0,0,1,.33.11h0a4,4,0,0,1,0,1.25Z"/><path class="cls-44" d="M17.4,24.73l-.33-.11c-.16-.11-.24,0-.27.1-.18.15,0,.37-.17.54-.14-.28.07-.59-.16-.84-.15-.51.25-.43.59-.43A.76.76,0,0,1,17.4,24.73Z"/><path class="cls-45" d="M16.1,28c.27.25,0,.49-.07.69-.19.35-.14.53.32.57-.14.17-.28.43-.53.34s-.24-.43-.17-.66A9,9,0,0,1,16.1,28Z"/><path class="cls-2" d="M22.32,22.64a.32.32,0,0,1-.39.2c-.17,0-.31-.08-.25-.26s.08-.26.27-.2S22.28,22.49,22.32,22.64Z"/><path class="cls-2" d="M11.27,89.27c.17.35.36.54.19.79a.13.13,0,0,1-.2,0C11.11,89.86,11.16,89.64,11.27,89.27Z"/><path class="cls-2" d="M17.44,26V24.73A1.69,1.69,0,0,1,17.44,26Z"/><path class="cls-2" d="M19.89,37.29a.33.33,0,0,1-.25-.36c0-.07.12-.1.19,0S20,37.14,19.89,37.29Z"/><path class="cls-46" d="M67.87,75.36l-.45,1.17c0-.52,0-1,0-1.55s.3-.12.47-.13Z"/><path class="cls-47" d="M65.85,108.79a9.33,9.33,0,0,1,.13,2c0,.16,0,.34-.13.51Z"/><path class="cls-48" d="M66.2,78h-.13c0-2,.21-4.11.34-6.16,0-.79.1-1.59.16-2.38.15-2.16.16-4.32.45-6.47.08-.64,0-1.28.11-1.92.14-1.48.15-3,.28-4.46.22-2.57.43-5.13.6-7.7.09-1.47.22-2.93.35-4.39q.27-3,.51-6.06A14.13,14.13,0,0,1,69.08,36c.17-.45,0-.92.12-1.36v-.1c.11-.38,0-.78.12-1.15v-.11c-.17-1.71.28-3.4.28-5.1a.64.64,0,0,1,.11-.4,2.37,2.37,0,0,0,.16-1.17,8.93,8.93,0,0,1,.18-2.42c.07-.5.09-1,.16-1.49,0-.19,0-.43.31-.48a3.89,3.89,0,0,1,0,1.63c-.05.65,0,1.3-.14,1.93A10.64,10.64,0,0,1,70.11,28a1.34,1.34,0,0,0-.07.62,31.26,31.26,0,0,1-.3,4.09,5.31,5.31,0,0,1-.1,1.6,9.34,9.34,0,0,0-.22,2.09c-.14,1.25-.18,2.51-.36,3.75-.23,1.66,0,3.36-.38,5-.22,1-.06,1.9-.22,2.83-.24,1.42-.24,2.85-.38,4.28-.07.77-.11,1.56-.2,2.33s-.07,1.67-.2,2.51c-.16,1-.1,2.13-.23,3.19-.09.81-.07,1.63-.18,2.44s-.11,1.85-.19,2.76-.07,1.61-.19,2.41,0,1.57-.1,2.35c-.17,1.29-.09,2.59-.24,3.89a14.67,14.67,0,0,0-.13,2.65C66.45,77.2,66.17,77.57,66.2,78Z"/><path class="cls-49" d="M63.7,15.65c-.21-.59-.79-1-1-1.55,0,0,.06-.12.09-.12.35,0,.66-.19,1-.22,1.28-.12,2.09.66,3.07,1.14a8.47,8.47,0,0,1,2.18,1.7c.2.19.1.49.39.62,0,.39,0,.79,0,1.18,0,.22,0,.44.36.56s-.06.53.19.76a1.84,1.84,0,0,0-.9.07c-.1,0-.24,0-.27-.08-.2-.59-.77-1-1.05-1.53s-.31-1.13-1.07-1.32c-.23-.78-1.33-.6-1.74-1.2-.09-.12-.3,0-.45,0A1.07,1.07,0,0,1,63.7,15.65Z"/><path class="cls-50" d="M69.2,19.73c.27-.38.56-.12.84,0a2.38,2.38,0,0,1,.56,1.56,1.72,1.72,0,0,1-.08.95,13.57,13.57,0,0,0-.36,2.37A18.07,18.07,0,0,0,70,27.72c0,.11-.11.13-.21.14a.54.54,0,0,1-.1-.69c-.22.18,0,.73-.67.6a2.72,2.72,0,0,1-.36-1.63,2.21,2.21,0,0,0-.28-1.61,4.2,4.2,0,0,1,0-1.62,3.35,3.35,0,0,0,.49-1.09,3.9,3.9,0,0,0,.05-1.52C68.91,20.06,68.92,19.86,69.2,19.73Z"/><path class="cls-51" d="M70.39,12.21c-.12.3-.23.53-.3.77s-.18.31.17.3c.15,0,.12.15,0,.18a1.4,1.4,0,0,1-.59.13c-.18,0-.14-.22-.14-.35C69.56,12.76,69.81,12.44,70.39,12.21Z"/><path class="cls-34" d="M69.94,10.38c0-.47.31-.75.44-1.1-.12-.14-.25.17-.33,0S70,9,70.16,9.05s.31-.15.55-.15a2.47,2.47,0,0,1-.48,1c.25.11.25-.18.42-.18S70.67,9.86,69.94,10.38Z"/><path class="cls-52" d="M70.33,10.59c-.09.29-.41.47-.41.79,0,.13-.09.31.11.36s.22-.11.29-.21l.15-.22a.39.39,0,0,1-.15.52.65.65,0,0,1-.43.11c-.07,0-.16-.2-.15-.3A1.08,1.08,0,0,1,70.33,10.59Z"/><path class="cls-52" d="M70.64,7.93l-.52.81c-.18-.47.17-.65.4-.89Z"/><path class="cls-53" d="M62.47,117.22c.11-.16.3-.3.24-.52h0c.14-1,.4-2,.48-3a24.12,24.12,0,0,0,.2-2.8,29.18,29.18,0,0,1,.08-3c.08-1.15,0-2.28,0-3.43.1-1.54.18-3.08.19-4.62,0-1.37.07-2.74.12-4.11,0-1,0-2.06.06-3.08.09-1.27.06-2.54.15-3.8.1-1.52.19-3,.19-4.57,0-1.07,0-2.16.09-3.22s.06-2.11.19-3.16c.09-.81.07-1.66.13-2.48,0-.64.1-1.29.09-1.92s.06-1.45.07-2.17c0-1.18.16-2.35.2-3.52,0-1.65.19-3.29.28-4.94,0-.39.09-.79.13-1.18a6.86,6.86,0,0,0,.13-1.28c0-.2,0-.38.31-.4.28.21.23.49.23.77,0,1.45-.26,2.9-.24,4.36,0,.76-.17,1.53-.21,2.3h0c0,.94,0,1.89-.12,2.82a.41.41,0,0,1,0,.11c-.14.23,0,.47,0,.71-.07,1.08-.16,2.16-.19,3.24,0,1.41-.14,2.82-.21,4.23s-.08,2.56-.21,3.84c0,.38.11.77-.07,1.13a4.38,4.38,0,0,1,.06,1.87c-.08.78-.18,1.56-.2,2.33,0,1-.13,2-.14,3.07,0,.67-.07,1.35,0,2s-.16,1.45-.13,2.18a29.3,29.3,0,0,1,0,3.11c-.09,1.47-.1,3-.16,4.42-.07,2-.06,3.94-.12,5.9,0,1-.09,2.07-.13,3.11s-.15,1.86-.23,2.79c-.1,1.15-.41,2.26-.6,3.4-.08.42.21.83.13,1.27l-2.8-.59a1,1,0,0,1,.74-.36A1.44,1.44,0,0,0,62.47,117.22Z"/><path class="cls-54" d="M65.6,67.53a2.58,2.58,0,0,1,0-1.53,13.83,13.83,0,0,0,0-1.93c.09-1.13.19-2.26.26-3.39a1.89,1.89,0,0,0-.1-.56.91.91,0,0,1-.15-.85c.17-1,0-2,.14-3A23.67,23.67,0,0,0,66,53.37a11.76,11.76,0,0,0,.12-2,5.16,5.16,0,0,1,.1-1.35,22,22,0,0,0,.15-2.81c0-.63.2-1.27.21-1.91,0-1.58.19-3.15.26-4.72s.14-3.36.18-5c0-.73-.1-1.46-.09-2.2,0-.24,0-.4.31-.47a1,1,0,0,1,.13,1c0,.06.13,0,0,0s0,0,0-.05a.56.56,0,0,0,0-.5,2.76,2.76,0,0,1,.18-1.3.19.19,0,0,1,.25-.15,8.34,8.34,0,0,1,.27,2.8c-.14.88-.13,1.77-.22,2.65-.07.63,0,1.3-.14,2a11,11,0,0,0-.22,2.61,9.91,9.91,0,0,0-.09,1.88c.1.41-.18.8-.19,1.2,0,1.24-.14,2.48-.23,3.72s-.09,2.53-.18,3.8c-.07,1-.25,2-.34,3-.06.62-.08,1.23-.09,1.85,0,1.2-.1,2.41-.16,3.62-.07,1.42-.32,2.83-.33,4.26A5.83,5.83,0,0,1,65.6,67.53Z"/><path class="cls-55" d="M68.11,30.36c.15.06.25.16.16.28s-.33.42-.23.7l-.17,0a1.82,1.82,0,0,1-.46-1.57c0-.17-.13-.23-.17-.37a5.55,5.55,0,0,0-.92-2.28c-.17-.18-.24-.46-.49-.63-.16-1-.16-2-.28-3a2.77,2.77,0,0,1,0-.76.41.41,0,0,1,.08-.19c.08-.11.1-.3.31-.27s.37.24.32.33c-.17.31.46.47.15.77.57.2.4.74.6,1.1a2.4,2.4,0,0,1,.26,1.15c0,.44.43.66.44,1a2.3,2.3,0,0,0,.29,1c.15.26-.08.61,0,.94A7.1,7.1,0,0,1,68.11,30.36Z"/><path class="cls-56" d="M66,26.61c.1-.05.15-.23.32-.08s.13.1.1.26c-.06.31.32.54.45.83.27.58.32,1.22.61,1.77.15.27,0,.51.09.75.08.4.29.77.33,1.17a.62.62,0,0,0,0,.53c-.33.23-.24.62-.32.91a5.48,5.48,0,0,0,0,1.48c-.36-.5-.06-1-.26-1.36-.4-.13-.39-.47-.43-.74a4.24,4.24,0,0,0-.6-1.77,3.24,3.24,0,0,1-.31-1.67,2.86,2.86,0,0,0-.12-.87C65.81,27.41,65.64,27,66,26.61Z"/><path class="cls-57" d="M69.08,27.76a.33.33,0,0,0,.36-.33.72.72,0,0,1,.43-.55,2.27,2.27,0,0,0-.07,1c0,1.64-.35,3.26-.37,4.89,0,.18.08.39-.11.54-.29-.53-.37.12-.65.05a17.64,17.64,0,0,1-.07-3.49A2.08,2.08,0,0,1,69.08,27.76Z"/><path class="cls-58" d="M69.08,27.76a3.67,3.67,0,0,0-.48,2.09c-.1,0-.22-.37-.31,0,0,.17,0,.37-.18.49-.2-.17-.11-.39-.11-.59,0-.57-.29-1.17-.16-1.67s-.5-1-.2-1.49a.52.52,0,0,0,.13-.28,5,5,0,0,1,.38-1.65c0-.16.08-.31.33-.26a2.69,2.69,0,0,1,.31,1.94A4,4,0,0,0,69.08,27.76Z"/><path class="cls-54" d="M64.76,83.61a24.86,24.86,0,0,1,0-2.86c0-1.26,0-2.54.14-3.79s.07-2.69.26-4A13.5,13.5,0,0,0,65.29,71a.76.76,0,0,1,.18-.56c.32,1-.13,2.05,0,3.07a14.4,14.4,0,0,1-.11,2.71c-.08.89-.06,1.8-.18,2.7s0,2.12-.16,3.16C64.9,82.6,65.37,83.18,64.76,83.61Z"/><path class="cls-54" d="M65.48,70.35c-.29-.66,0-1.34,0-2,0-.26-.18-.58.16-.81a7.81,7.81,0,0,1,0,2.77S65.53,70.34,65.48,70.35Z"/><path class="cls-48" d="M66.07,78.07c-.06.56.14,1.13-.12,1.68A5.28,5.28,0,0,1,66.07,78.07Z"/><path class="cls-57" d="M69.2,34.65c-.07.45.13.92-.12,1.36C69.14,35.56,68.93,35.09,69.2,34.65Z"/><path class="cls-57" d="M69.32,33.4c-.06.38.13.78-.12,1.15A1.64,1.64,0,0,1,69.32,33.4Z"/><path class="cls-59" d="M35.67,118.8l.25.09.63,1.24.07.08c.5.82.33,1.1-.72,1.08s-2,0-3-.05c-.6,0-1.22-.06-1.83,0-1.87,0-3.74-.1-5.61-.14-.9,0-1.8-.06-2.7-.06a4.46,4.46,0,0,0,2,.19c.15,0,.4,0,.39.14s-.24.12-.41.13a22.33,22.33,0,0,1-3.66-.15c-.09,0-.18.06-.28.09h-.24a7.7,7.7,0,0,0-1.43-.14,20.53,20.53,0,0,0-2.82-.26c-.18,0-.41,0-.55-.13,0-.25.25-.2.39-.16a.47.47,0,0,0,.67-.34c.62-.08,1.23.09,1.85.06a31.2,31.2,0,0,0,3.2.3c.29,0,.47,0,.41-.35a.33.33,0,0,1,.28-.4.5.5,0,0,0,.48-.54,1.27,1.27,0,0,1,.43-.83c.29-.27.32-.51-.05-.84a2.33,2.33,0,0,1-1-1.59c2.41.6,4.81,1.22,7.26,1.7,2,.38,3.93.68,5.91,1C35.56,118.87,35.62,118.82,35.67,118.8Z"/><path class="cls-16" d="M32.21,122.32l-.05-.07h3.45C34.48,122.37,33.35,122.3,32.21,122.32Z"/><path class="cls-16" d="M39.91,122.14l0,.07-2.75,0a3.5,3.5,0,0,1,1.44-.11C39,122.11,39.46,122.14,39.91,122.14Z"/><path class="cls-16" d="M29.55,122.23a17,17,0,0,1-2.57-.09A11.6,11.6,0,0,1,29.55,122.23Z"/><path class="cls-16" d="M24.15,122a5.24,5.24,0,0,1-1.25-.11C23.32,122,23.76,121.8,24.15,122Z"/><path class="cls-60" d="M16.7,120.46l.28.3c-.39.33-.85-.11-1.24.11-.41,0-.78-.25-1.2-.09a.31.31,0,0,1-.28-.1.74.74,0,0,1,.83,0c0-.43-.37-.37-.57-.45s-.64-.06-.82-.33c.5-.21,1,.06,1.45.1s.74.1,1.11.17C16.43,120.25,16.68,120.21,16.7,120.46Z"/><path class="cls-61" d="M15.14,120.15l-1.44-.21-.37-.21c.17,0,.17-.1.19-.21.26-1.42.75-2.8,1.07-4.21a10.62,10.62,0,0,1,.49-1.84c.09-.23-.22-.33-.18-.53a20.17,20.17,0,0,0,4.74,2.16c.36.12.74.22,1.1.36.19.07.47.06.52.31-.59.17-1.05-.19-1.56-.32a27.61,27.61,0,0,1-2.93-1.13c-.14.57-.5,1.05-.45,1.62a.5.5,0,0,1-.13.34c-.24.38-.52.74-.34,1.22.06.14,0,.3-.13.44a3.66,3.66,0,0,0-.34,2C15.39,120.08,15.47,120.26,15.14,120.15Z"/><path class="cls-60" d="M19.7,115.35l1.56.42c.28.29.79.15,1.09.41.42.59.66,1.3,1.42,1.67.23.11.09.65-.22.88a.92.92,0,0,0-.37.94c.08.33,0,.37-.33.37s-.64.1-.37.51-.09.33-.32.32c-.81,0-1.63-.06-2.43-.16a2.08,2.08,0,0,1-1-.15c-.66-.35-.68-.41-.3-1a.41.41,0,0,0,.07-.35c0-.14-.06-.3,0-.4a1.1,1.1,0,0,0,.22-1.31c-.11-.29.11-.5.34-.67.46-.33.72-.71.52-1.25A.23.23,0,0,1,19.7,115.35Z"/><path class="cls-62" d="M66,26.61V28c0,1.21.21,2.4.35,3.6a2.94,2.94,0,0,1-.47,2c-.13,2.26-.23,4.52-.39,6.78-.11,1.53-.17,3.05-.25,4.57s-.14,2.9-.24,4.35c-.09,1.21-.09,2.42-.21,3.63,0,.35-.18.46-.56.53s-1-.13-.71.58c0,.11-.1.12-.19.14a7.46,7.46,0,0,1-.95-.1c-.4,0-.5-.21-.65-.49a.37.37,0,0,0-.63,0,2.06,2.06,0,0,1-2.26.69,1.71,1.71,0,0,1-.75-.15.87.87,0,0,0-.8,0c-.65.29-1.38.22-2.06.45a1,1,0,0,1-1.37-.77c0-.1,0-.21-.24-.34,0,.68,0,1.31,0,1.93.08,1.32.21,2.65.3,4,.05.77.07,1.55.11,2.32,0,1,.13,1.92.14,2.88,0,1.6.11,3.19.18,4.78s.15,3.07.23,4.6.22,3.18.23,4.77c0,.74.07,1.47.11,2.2-.34.12-.28-.11-.3-.26a2,2,0,0,0-.1-.9A11.53,11.53,0,0,0,54.41,78s0,0,0-.07c-.06-1.13,0-2.27-.11-3.4-.09-1.28-.15-2.55-.22-3.83a4.63,4.63,0,0,1-.07-.74,6.34,6.34,0,0,0-.08-1.57,6.25,6.25,0,0,1,0-1.22,4.91,4.91,0,0,0-.08-1.38,4.74,4.74,0,0,1-.05-.84,5.83,5.83,0,0,0-.06-1.56,3.82,3.82,0,0,1-.06-.83,3.93,3.93,0,0,0-.07-1.28,5.8,5.8,0,0,1,0-1,5.31,5.31,0,0,0-.08-1.49c0-.78-.14-1.55-.17-2.33-.09-2.06-.21-4.12-.33-6.17-.06-1.13-.18-2.25-.14-3.38-.22-1.82-.07-3.66-.3-5.48A5.56,5.56,0,0,1,52.45,40a29.55,29.55,0,0,0-.22-3.1c0-1.61-.15-3.22-.28-4.83-.08-1.13-.18-2.27-.3-3.41-.08-1.63-.43-3.24-.52-4.86a2.44,2.44,0,0,0-.2-1.5,1.15,1.15,0,0,1-.16-.95.34.34,0,0,1,.47,0,7.92,7.92,0,0,0,.78.26,4.83,4.83,0,0,0,2.1.29,14.6,14.6,0,0,1,2.8.64,3.42,3.42,0,0,0,.7.12,26.28,26.28,0,0,1,5.81.75,3.22,3.22,0,0,0,1.94-.06.31.31,0,0,1,.33,0Z"/><path class="cls-63" d="M60.05,66.57c.28.41-.2.27-.37.38a.29.29,0,0,0,.49,0c.14-.17.37-.24.39-.56,0-.67-.35-1.3-.08-2A1.83,1.83,0,0,0,60.55,63a1,1,0,0,0-.77-.71c-.28-.06-.56-.15-.21-.54a.81.81,0,0,0,.25-1c-.16-.29.22-.61.64-.71.15,0,.36,0,.42-.15.47-1.09,1.75-.68,2.6-1.06.2-.09.36.12.51.21.33.2.41.11.4-.19s0-.62,0-.94.1-.61.16-.92c.19.11.14.25.11.41a12.32,12.32,0,0,1-.14,1.71c0,.11.08.18.21.19s.09.33,0,.49a2.87,2.87,0,0,0-.05,1.83,4.13,4.13,0,0,1-.08,2.46,3.83,3.83,0,0,0-.2,2.24c0,.11,0,.21-.05.29-.29-.1-.22.1-.23.22,0,.78,0,1.56-.1,2.34-.11,1.47-.06,2.95-.15,4.42-.11,1.78-.17,3.57-.25,5.35l-.24,5.35c-.08,2-.15,4.09-.25,6.13,0,.95,0,1.91-.09,2.86-.14,2-.2,4-.24,6,0,.06,0,.13-.17.18a1.4,1.4,0,0,1,0-.88c.21-1.09,0-2.19.13-3.27s0-2.24.17-3.37a16.83,16.83,0,0,0,0-2.75c0-.55.19-1.11.15-1.67,0-.19.06-.38-.09-.59-.37.28-.76.46-1.15,0-.11-.12-.25,0-.39,0s-.33.33-.51.16-.57-.32-.64-.66a.35.35,0,0,1,.28-.49c.25-.07.43-.06.4.29s.27.17.45.11c.56-.19,1-.66,1.68-.62.13,0,.09-.16.09-.26s-.76-.49-1-.37a1.61,1.61,0,0,1-1.4-.1c-.19-.15-.4-.31-.68-.13a.28.28,0,0,1-.37,0,.15.15,0,0,1,0-.23c.1-.14.23-.12.36,0s.39,0,.53-.17.34-.54.7-.69.65-.2.85.15c.07.13.12.16.25.07s.39,0,.63.09c-.08-.28-.17-.45-.43-.53s-.28-.1-.22-.25.19-.09.31,0,.25,0,.29-.08-.08-.22-.2-.29a1.61,1.61,0,0,0-1.55.49c-.2.26-.39.52-.6.77a.39.39,0,0,1-.51.15c-.17-.08-.13-.24,0-.37s.15-.17,0-.27-.32-.08-.24-.24.32-.14.49-.1a.4.4,0,0,0,.48-.2c.13-.19.23-.41.08-.59a.35.35,0,0,0-.64,0c-.08.14-.1.32-.36.25s-.22-.2-.21-.4a1.55,1.55,0,0,1,1-1.49c.38-.18.6-.63,1-1-.47.16-.8.23-.57-.28.06-.11,0-.24-.24-.2l-.18,0a1.14,1.14,0,0,1-1.23-1.48.34.34,0,0,1,.25-.2.69.69,0,0,0,.53-1c-.13-.36.14-.34.38-.32.57,0,.82-.19.82-.69-.22,0-.43.09-.66-.08a1.22,1.22,0,0,0-1.68.57c0,.12.08.32-.14.35s-.28-.13-.33-.27-.1-.3-.35-.27S58,75.84,58,75.7s.12-.23.3-.23a3,3,0,0,0,.42-.06c.76-.15.76-.15.44-.72-.1-.18-.11-.28.15-.4.49-.21.52-.44.15-.85-.07-.07-.12-.14,0-.22s.25-.29.46-.32.12.11.16.19a1,1,0,0,0,.21.36.39.39,0,0,0,.43.1c.15-.07.27-.16.28-.32s-.09-.23-.24-.26c-.53-.11-.11-.32-.07-.49s.26-.26.12-.42-.33-.08-.49,0S60,72,60,71.84c0-.5,0-1,0-1.51,0-.17.11-.25.28-.29s.38-.19.28-.27c-.36-.25-.25-.65-.46-.92s-.6-.09-.83.06-.15.37.12.5c0,.06,0,.18,0,.18-.55,0-.44.31-.45.59s0,.55,0,.83-.17.73.51.7c.17,0,.06.21.16.3,0,.29-.64.28-.26.76-.89-.31-.76-.9-.79-1.35a5.72,5.72,0,0,1,.07-2c.07-.23-.08-.33-.33-.28s-.42-.07-.33-.15c.28-.22.16-.58.48-.79a.78.78,0,0,1,.95,0c.1,0,.24.17.37,0s0-.26-.14-.34a2.49,2.49,0,0,0-.38-.25c-.29-.17-.66-.3-.08-.58.3-.14.09-.27-.11-.28-.74,0-.92-.38-.9-1,0-1,0-1.91,0-2.86a1.83,1.83,0,0,1,.07-.46c0-.08.15-.2.19-.14.32.45.9.13,1.29.35-.13.35-.48.26-.74.24s-.55,0-.54.39c.09-.12-.05-.35.21-.35a.36.36,0,0,1,.37.35,13.07,13.07,0,0,1,0,1.77,2,2,0,0,1-.18,1.24A1.7,1.7,0,0,1,60.05,66.57Z"/><path class="cls-64" d="M64.38,66.59a3.36,3.36,0,0,1,.08-2.53,3.93,3.93,0,0,0,0-2.6,2.26,2.26,0,0,1,.14-1.78.65.65,0,0,0,.12-.4,3.75,3.75,0,0,0,0-2.68,2.63,2.63,0,0,1,.27-2c.07-.8.09-1.6.12-2.4a3.19,3.19,0,0,1,.24-2.4c-.15-.16-.07-.34,0-.5a6.78,6.78,0,0,0,0-2c-.29-.61,0-1.18.13-1.77a8.83,8.83,0,0,0,.11-3c-.37-.61.19-1.11.25-1.67-.07-.2,0-.31.24-.36.39,0,.48.18.43.56-.06.53,0,1.06-.15,1.59a4,4,0,0,0-.26,1.22,2.93,2.93,0,0,0,.18.87,2.24,2.24,0,0,1,0,1.33c-.13,1-.1,1.94-.15,2.9s-.12,2.22-.23,3.32a20.19,20.19,0,0,0,0,2.58,1.83,1.83,0,0,1,0,.52,16.72,16.72,0,0,0-.27,2.73,10.16,10.16,0,0,1-.17,2.8,1.39,1.39,0,0,0,0,.92c0,1.16-.21,2.31-.21,3.47s-.13,2-.17,3.06a13.7,13.7,0,0,1-.17,2.3c-.1.48,0,1-.07,1.47s.08,1.19,0,1.78a7.7,7.7,0,0,0-.06,1.51c0,.73-.17,1.43-.12,2.16a24.32,24.32,0,0,1-.12,2.69c-.08,1.68-.11,3.35-.17,5,0,.87-.13,1.76-.15,2.63,0,1.09-.13,2.17-.14,3.26a18.5,18.5,0,0,1-.12,3c0,.24-.17.58.1.86s-.05.51-.07.77c-.07,1.08-.11,2.15-.13,3.23,0,1.6-.16,3.2-.19,4.8a19.35,19.35,0,0,0,0,3.23c.06.45-.16.85-.09,1.3.13.83-.13,1.67,0,2.53a7.62,7.62,0,0,1-.13,1.76,15.46,15.46,0,0,1-.29,2.45c-.14.55-.06,1.16-.44,1.66v-.31h0a5.46,5.46,0,0,0,.06-1.34c0-1.15-.07-2.31.06-3.46,0-3,.06-6,.16-8.94,0-.71.06-1.42.08-2.14,0-2.15,0-4.3.14-6.46.11-2.32.17-4.65.25-7,.07-1.8.15-3.61.24-5.41s.16-3.61.24-5.41c.11-2.63.34-5.27.36-7.91C64.31,67.77,64.42,67.18,64.38,66.59Z"/><path class="cls-65" d="M65.47,61.79c-.56-.25-.18-.69-.15-1a4.86,4.86,0,0,1,.19-1c.06-.19.15-.48-.16-.66-.11-.06-.09-.17,0-.28a3.78,3.78,0,0,0,.16-1.57,11.32,11.32,0,0,1,.16-1.54,2.2,2.2,0,0,0,.07-1.11,3.6,3.6,0,0,1,0-1q0-1.18.12-2.37a9.17,9.17,0,0,1,.21-2.15c.13-.39-.13-.81-.11-1.23,0-.58.19-1.17.19-1.73s.22-1.08-.09-1.65a2,2,0,0,1,0-1.52,2.57,2.57,0,0,0,.22-1.68c0-.1-.12-.21,0-.29.4-.32,0-.4-.2-.53a.31.31,0,0,1-.1-.28,12.73,12.73,0,0,0,0-2.31c-.35-.42-.14-.84,0-1.26a.36.36,0,0,1,0-.25,4.65,4.65,0,0,0,.11-2.56l-.22-.23c.47-1.48.12-3,.11-4.47,0-.38,0-.76,0-1.15.21.24.09.5.1.75a3.44,3.44,0,0,0,.52,1.92,4.55,4.55,0,0,1,.47,1.83c0,.17.16.26.21.4-.13.1-.27.13-.21.38a5,5,0,0,1,.15,1.46c-.12,1.06,0,2.12-.14,3.17a2.2,2.2,0,0,0,0,1.32.57.57,0,0,1-.1.49.43.43,0,0,0-.09.33,22.13,22.13,0,0,1-.15,3.73c0,.8,0,1.6-.07,2.4,0,.31-.27.69-.18.87.23.49,0,.92,0,1.37a6.68,6.68,0,0,1-.15,1.89,2.68,2.68,0,0,0,0,1.26,9.66,9.66,0,0,1-.1,1c0,.61-.16,1.2-.08,1.79a5.23,5.23,0,0,1,0,1.12,17.3,17.3,0,0,0-.1,2.88c0,.58-.22,1.18-.14,1.79-.41.23,0,.6-.19.89S65.69,61.55,65.47,61.79Z"/><path class="cls-66" d="M54.58,79.75c.16.24.05.5.08.75s0,.36.24.39C55,83,55,85,55.15,87.06s.15,4,.26,6c.1,1.8.16,3.59.28,5.39,0,.55,0,1.11.05,1.67,0,.14-.06.23-.24.25v-.49A17,17,0,0,1,55.44,98c0-.18.06-.37-.06-.55q-.15-3.15-.32-6.3c-.18-3.55-.35-7.09-.53-10.64,0-.19,0-.38,0-.57S54.45,79.81,54.58,79.75Z"/><path class="cls-67" d="M60.05,66.57l-1.59-.13c.4-.08.42-.32.41-.61,0-.73,0-1.46,0-2.18,0-.2.12-.5-.19-.53s-.05.33-.23.44c-.1-.72-.1-.71.7-.73.19,0,.41.07.56-.1.42-.21.48,0,.48.3,0,.84,0,1.68,0,2.52C60.18,65.89,60.45,66.26,60.05,66.57Z"/><path class="cls-68" d="M59.58,72c-.13-.08-.12-.35-.42-.18s-.4,0-.41-.25c0-.63,0-1.27,0-1.91,0-.24.14-.32.38-.18s.2.07.22-.08c.4-.15.61,0,.53.34-.12.58,0,1.17-.11,1.76C59.74,71.7,59.58,71.83,59.58,72Z"/><path class="cls-62" d="M66,37.89a4.1,4.1,0,0,1,.12,2.59l-.23.33c-.12,0-.24.08-.25-.1A7.74,7.74,0,0,1,66,37.89Z"/><path class="cls-62" d="M65.59,42.48a3.44,3.44,0,0,1-.11,3c-.25-.24-.15-.54-.11-.79A15.18,15.18,0,0,1,65.59,42.48Z"/><path class="cls-62" d="M66.07,33.82A2.78,2.78,0,0,1,66,36.63c-.27-.41-.09-.84,0-1.25A5.15,5.15,0,0,1,66.07,33.82Z"/><path class="cls-62" d="M65.35,47.28a3.67,3.67,0,0,1,0,2.51c-.09,0-.22.08-.23-.06A9.22,9.22,0,0,1,65.35,47.28Z"/><path class="cls-62" d="M65.11,52.19a3.54,3.54,0,0,1-.12,2.4A3.8,3.8,0,0,1,65.11,52.19Z"/><path class="cls-38" d="M62.83,111.59c0,1.45,0,2.91,0,4.36,0,.15,0,.32-.11.44,0-1.42,0-2.84,0-4.26C62.72,112,62.64,111.74,62.83,111.59Z"/><path class="cls-69" d="M69.2,19.73a1.69,1.69,0,0,0,0,1.36c.07.25-.22.37-.19.61A1.43,1.43,0,0,1,68.48,23c-.43,0-.63-.21-.61-.6A1.85,1.85,0,0,0,67.36,21a.29.29,0,0,1-.08-.23,3.86,3.86,0,0,0-.46-1.35c0-.07,0-.18-.11-.18-.44,0-.51-.37-.71-.6a1,1,0,0,0-1.17-.18.34.34,0,0,1-.21-.23c0-.25-.22-.49-.12-.75,0-.45-.41-.74-.48-1.15s-.23-.42-.32-.63c.3-.08.64,0,1-.16.12-.08.55-.14.58.28,0,.09.46.13.66.26s.86.12.83.65c0,.24.36,0,.5.24a9.55,9.55,0,0,0,1,1.57C68.63,18.88,68.56,19.51,69.2,19.73Z"/><path class="cls-70" d="M65.7,23.38a5,5,0,0,1-3.36-.07,14,14,0,0,0-1.43-.2,5.11,5.11,0,0,1-1.4-.22,2.52,2.52,0,0,0-1.39-.14,4.53,4.53,0,0,1-2.56-.51,3.71,3.71,0,0,0-1.62-.19,6.18,6.18,0,0,1-2.93-.7s-.11,0-.16,0a.89.89,0,0,1-.37-.74,21.31,21.31,0,0,0-.92-3.37c-.06-.18,0-.37-.09-.55s0-.33-.08-.47c.07-.22-.21-.38-.12-.6.55-.07.41.37.57.58a5.41,5.41,0,0,1,.27.77c.1.39.24.77.36,1.16.14.67.23.68,1,.85,2.17.52,4.41.59,6.6,1a23.35,23.35,0,0,0,4.12.55,1.77,1.77,0,0,1,.4.08,4.62,4.62,0,0,0,2.68.08c.06,0,.11,0,.17,0a2.52,2.52,0,0,1,.32,1.79Z"/><path class="cls-71" d="M53.35,62.41c-.24-3.14-.46-6.28-.72-9.41q-.75-9.28-1.54-18.57c-.39-4.59-.82-9.18-1.24-13.77a2,2,0,0,0-.2-.95c.52-.14.51.23.56.47.23,1.13.54,2.25.73,3.38.33,1.85.57,3.71.77,5.58a11.76,11.76,0,0,0,.16,2.37c.1,1.47.14,2.94.32,4.41a5.78,5.78,0,0,1,0,.93c0,1.46.29,2.91.24,4.37.07,1.73.21,3.45.35,5.17,0,.3,0,.59,0,.89,0,1.69.2,3.38.27,5.08.1,2,.19,4,.36,6,.08,1,.06,2,.18,3.06C53.64,61.76,53.85,62.17,53.35,62.41Z"/><path class="cls-72" d="M49.73,16.28c-.19-.18,0-.56-.46-.62v-.43c.18-.1,0-.31.18-.43.07.44.5.4.82.42.72,0,1.4.27,2.09.34.93.09,1.82.29,2.73.41,1.07.14,2.14.31,3.21.48.51.07,1,.19,1.52.22a25.23,25.23,0,0,1,2.63.38,9.3,9.3,0,0,1,2,.38,1.21,1.21,0,0,1,.24.73,1.75,1.75,0,0,1-1.33.05c-1.6-.37-3.26-.51-4.88-.79-1.39-.24-2.8-.36-4.19-.58A25.37,25.37,0,0,0,49.73,16.28Z"/><path class="cls-73" d="M53.35,62.41a3.1,3.1,0,0,0,.08-1.48c0-1-.15-1.94-.2-2.9-.1-1.75-.18-3.5-.27-5.25l-.33-5.5c.16-.11,0-.4.33-.42l.63,11.9c.14.49-.05,1,.1,1.47l0,1c.14.41-.05.85.1,1.26l0,.83c.14.52,0,1,.1,1.57l0,.83c.15.45-.05.91.1,1.36l0,1.25a4.81,4.81,0,0,1-.14,2.1c-.1-1.2-.21-2.4-.3-3.61C53.53,65.38,53.45,63.89,53.35,62.41Z"/><path class="cls-74" d="M51.54,29.12A64.78,64.78,0,0,0,50.17,21c-.08-.33-.16-.67-.21-1,0-.18-.15-.23-.31-.25l-.16-2.39a.84.84,0,0,1,0-.66,23.06,23.06,0,0,1,1.09,3.61c.08.38.17.75.25,1.12a1.78,1.78,0,0,0,.23.95c0,.45.15.89.22,1.34.14,1.24.29,2.47.42,3.7,0,.43.06.86.09,1.29C51.74,28.83,52,29.12,51.54,29.12Z"/><path class="cls-33" d="M54.18,70.67a.26.26,0,0,1,.12.27,33.13,33.13,0,0,0,.14,3.73c.05,1.08,0,2.15,0,3.23-.2-1.81-.27-3.63-.36-5.45A3.18,3.18,0,0,1,54.18,70.67Z"/><path class="cls-73" d="M54.18,70.67a13.2,13.2,0,0,0-.13,1.78,8.51,8.51,0,0,1-.12-1.89c.13-.13,0-.29.07-.43s0-.22.18-.19Z"/><path class="cls-33" d="M54.18,69.94c-.25.16,0,.47-.25.62a.08.08,0,0,1,0-.09c0-.7.09-1.4.14-2.1A4.38,4.38,0,0,1,54.18,69.94Z"/><path class="cls-33" d="M55.38,97.49a8.7,8.7,0,0,1,.11,2.44A14.2,14.2,0,0,1,55.38,97.49Z"/><path class="cls-33" d="M54.58,79.75l0,.23a9.66,9.66,0,0,1-.12-2c.27.38.08.81.14,1.21C54.57,79.37,54.57,79.56,54.58,79.75Z"/><path class="cls-3" d="M49.5,16.66v.66c-.22-.34-.1-.71-.1-1.06Z"/><path class="cls-59" d="M25.39,121.33h1.75A2.2,2.2,0,0,1,25.39,121.33Z"/><path class="cls-11" d="M44.45,121.19h1.66v.11H44.45Z"/><path class="cls-75" d="M64.89,18.36a.63.63,0,0,1,1-.05,1.79,1.79,0,0,0,.44.34c.3.14.07.19,0,.28.6-.1.65.34.87.64.08.11.15.08,0,.39.33,0,.31,0,.22.25a.76.76,0,0,0,.17.64c.41.3.16.88.67,1.11-.09.12-.31.15-.22.39a1.17,1.17,0,0,0,.53.61c.11.49-.14,1,0,1.46a.3.3,0,0,0-.24.32c-.21.24-.33.26-.52-.06a6.93,6.93,0,0,1-.79-2.47c-.48-.24-.37-.75-.67-1.09a17.68,17.68,0,0,0-1.14-1.48,2.67,2.67,0,0,1-.25-.58C64.81,18.83,64.63,18.59,64.89,18.36Z"/><path class="cls-76" d="M65.22,19.62c.11.1.23.19.33.3s.57.2.32.54c.18.07.11.47.49.28,0,0,.12.06.12.06-.25.4.31.63.26,1,0,.11,0,.33.3.21,0,0,.19.07.13.11-.42.23,0,.43,0,.65-.09.55.46,1,.39,1.53.39,0,0,.74.66.46l.07.07c-.42.42-.27,1-.38,1.46a.48.48,0,0,1-.29.34c0-.12,0-.25-.16-.3s-.26-.28-.28-.5a1.34,1.34,0,0,0-.34-1c-.19-.18.23-.19.21-.37s-.34.06-.33-.09c0-.43-.25-.77-.36-1.14s-.2-.36-.52-.43c.62-.15.2-.36.14-.57-.15.07-.09.28-.28.29l-.36-1.78c-.35-.16-.27-.45-.29-.72A.52.52,0,0,1,65.22,19.62Z"/><path class="cls-19" d="M19.7,115.35c.06.3.09.61.18.91s-.1.23-.23.31c-.74.46-.82.63-.6,1.39,0,.16.11.33,0,.46-.28.31-.65.59-.27,1,0,0,0,.11-.08.13-.82.35-.21.66,0,1a17.31,17.31,0,0,1-2-.1c-.49-.21-1.08-.08-1.56-.31,0,0,.15-.05.14-.06a3.09,3.09,0,0,1,.41-2.38c.05-.09.09-.24,0-.3-.37-.41,0-.69.21-1,.38-.72.31-1.54.76-2.27C17.57,114.64,18.69,114.89,19.7,115.35Z"/><path class="cls-77" d="M51.54,29.12c.28-.07.12-.32.26-.45.09.94.21,1.88.28,2.82.14,1.81.3,3.63.31,5.45-.17.13-.27,0-.35-.09Z"/><path class="cls-78" d="M52,36.85l.35.09a25.86,25.86,0,0,1,.23,3.29c0,.36,0,.73,0,1.09a6.26,6.26,0,0,1,0,1.78,7.48,7.48,0,0,1-.32-1.87C52.26,39.77,52,38.32,52,36.85Z"/><path class="cls-79" d="M52.27,41.23c.18.58.2,1.17.36,1.76V41.32a7,7,0,0,1,.19,1.93c.11,1.2,0,2.41.14,3.61-.15.12-.09.36-.33.42Z"/><path class="cls-70" d="M51.29,23.68a2.3,2.3,0,0,1-.22-1.34C51.2,22.78,51.48,23.2,51.29,23.68Z"/><path class="cls-33" d="M53.93,64.93a4.39,4.39,0,0,1-.1-1.57A4.16,4.16,0,0,1,53.93,64.93Z"/><path class="cls-33" d="M53.69,60.23a4,4,0,0,1-.1-1.47A3.65,3.65,0,0,1,53.69,60.23Z"/><path class="cls-33" d="M54.05,67.12c-.23-.44-.06-.91-.1-1.36C54.19,66.2,54,66.67,54.05,67.12Z"/><path class="cls-33" d="M53.81,62.53a3,3,0,0,1-.1-1.26C53.93,61.68,53.78,62.11,53.81,62.53Z"/><path class="cls-33" d="M61.34,80.93c.16,0,.26.06.25.21a1.59,1.59,0,0,1-.88.54c-.15,0-.33-.08-.36-.24s.13-.19.27-.24S61.09,81,61.34,80.93Z"/><path class="cls-33" d="M60.65,74.42c-.21,0-.47,0-.39-.19a1.05,1.05,0,0,1,.69-.51.31.31,0,0,1,.39.3C61.31,74.42,60.84,74.27,60.65,74.42Z"/><path class="cls-33" d="M63.42,79.71c.06.43-.43.63-.46,1,0,.13-.36,0-.51-.07s-.07-.3.12-.37A3.88,3.88,0,0,0,63.42,79.71Z"/><path class="cls-33" d="M62.16,78.61c-.47.17-.86,0-1.15.24-.09.07-.18,0-.23-.08s0-.27.11-.36C61.34,78.1,61.64,78.49,62.16,78.61Z"/><path class="cls-33" d="M63.31,81.38v.74c0,.15-.07.25-.26.21s-.24-.15-.15-.28a2.73,2.73,0,0,0,.23-.68Z"/><path class="cls-33" d="M60.6,78.11c-.05.19-.26.22-.44.26s-.23-.08-.19-.19a.53.53,0,0,1,.4-.35C60.52,77.82,60.55,78,60.6,78.11Z"/><path class="cls-33" d="M58.89,71.48V69.82H59v1.66Z"/><path class="cls-80" d="M64.89,18.36l.11.73a5.64,5.64,0,0,1-2.65-.15c-1.71-.36-3.46-.47-5.17-.77s-3.75-.45-5.59-.84A4.36,4.36,0,0,1,50,17c-.09-.24-.17-.49-.25-.73.45-.46,1-.13,1.45-.06,1.36.19,2.73.37,4.09.64.7.14,1.46.11,2.18.25,1.5.29,3,.41,4.54.66a9.1,9.1,0,0,0,2.75.39C64.77,18.24,64.77,18.33,64.89,18.36Z"/><path class="cls-81" d="M65.22,20c0,.25,0,.51.14.73a3.4,3.4,0,0,1-2.49.11c-.46-.11-.94-.08-1.37-.16-.73-.15-1.47-.26-2.21-.37-1.1-.17-2.21-.31-3.3-.52s-2.44-.22-3.65-.42c-.47-.08-.92-.23-1.42-.28s-.61-.54-.57-1c.11,0,.47.14.28-.22a.23.23,0,0,1,.13-.32.31.31,0,0,1,.36.13c.18.23.44.24.73.28,1.11.19,2.25.27,3.37.42,1.91.26,3.8.61,5.72.86,1,.13,1.93.25,2.88.46a2.71,2.71,0,0,0,1.06.11A.31.31,0,0,1,65.22,20Z"/><path class="cls-82" d="M65.22,20a19.41,19.41,0,0,1-3.4-.44c-1.38-.12-2.73-.43-4.09-.63s-3-.42-4.44-.58a8.52,8.52,0,0,0-1.95-.23c-.4.05-.17-.45-.56-.47-.09.26.2.56-.1.82-.18-.07-.06-.37-.33-.35A3.18,3.18,0,0,1,50,17c1.23,0,2.42.33,3.63.49.73.09,1.46.16,2.18.26s1.73.35,2.62.41c2,.14,3.87.72,5.85.87.25,0,.51-.12.74.05s.1.37.22.53Z"/></g></g></svg>