<svg xmlns="http://www.w3.org/2000/svg" viewBox="0 0 105.04 78.61"><defs><style>.cls-1{fill:#fdfcfb;}.cls-2{fill:#4a494a;}.cls-3{fill:#414142;}.cls-4{fill:#474648;}.cls-5{fill:#ece8dd;}.cls-6{fill:#424243;}.cls-7{fill:#3a3834;}.cls-8{fill:#ccbc95;}.cls-9{fill:#c9c8c5;}.cls-10{fill:#4c5da5;}.cls-11{fill:#ead396;}.cls-12{fill:#ecd28f;}.cls-13{fill:#eacd7e;}.cls-14{fill:#585759;}.cls-15{fill:#272727;}.cls-16{fill:#fcb517;}</style></defs><g id="Layer_2"><g id="Layer_1-2"><path class="cls-1" d="M92.21,5.45c1.67.26,2.39,1.6,3,3.18a131.17,131.17,0,0,1,9.16,36.61,90.48,90.48,0,0,1,.07,20.61c-.55,4.25-1.78,8.28-5.22,10.88a2.81,2.81,0,0,1-2.92.61A5.63,5.63,0,0,1,94.5,74.1c-1.16-3.81-2.29-7.62-3.44-11.44a8.63,8.63,0,0,0-.9-2.49L90,59.7l-.17-.36a11.8,11.8,0,0,0-1.11-3.15l-.24-.58A11.66,11.66,0,0,0,87.45,53l-.19-.35a.93.93,0,0,0-.36-.82c-.92-2.9-2.6-5.38-3.62-8.22a1.23,1.23,0,0,0-.39-.82,22.88,22.88,0,0,0-2.19-4.47,1.06,1.06,0,0,0-.43-.81,9,9,0,0,0-1.56-2.59c-.28-.44-.53-.89-.83-1.29a47.39,47.39,0,0,1-4.26-6.09c-.89-1.61-1.82-3.22-1.78-5.24.07-.87.11-1.74.2-2.6a111.17,111.17,0,0,1,2.5-14c.53-1.21-.14-2.28-1.8-2.77l.52,1.59a3.79,3.79,0,0,1-.06,1.74c-.83,4.79-1.62,9.59-2.49,14.37-.72,4-2.78,5.84-6.39,5.84H41.24c-4.56,0-6.38-1.71-7.22-6.71q-1.34-8-2.71-15.91C30.34,5,30.22,5.3,30.5,6.4a98.85,98.85,0,0,1,2.64,16.1,17.46,17.46,0,0,1-1,3.71L30,29.73a.77.77,0,0,0-.45.61A43.37,43.37,0,0,0,22,42.93,6.09,6.09,0,0,0,21,45a.63.63,0,0,0-.27.58c-1.32,3-2.69,5.9-3.94,8.89-2.7,6.45-4.45,13.3-6.52,20a4.81,4.81,0,0,1-1.7,2.83,2.71,2.71,0,0,1-2.72-.49c-3-2.06-4.12-5.5-5.08-9-.83-3-.7-6.19-.74-9.31A118,118,0,0,1,1.35,38.36,178.87,178.87,0,0,1,6.1,18.43,96.57,96.57,0,0,1,10,7.75a3.94,3.94,0,0,1,2.78-2.31l.31,0a5.23,5.23,0,0,0,2.33-.68L16,4.57l6.52-1.34A4.73,4.73,0,0,0,24.31,3,.82.82,0,0,0,25.1,3l.8-.08c.27.17.46,0,.66-.16l.07,0,.05-.06.08.06c2,.68,3.88-.23,5.74-.66a56.88,56.88,0,0,1,9.72-.9C47.6.91,53,.92,58.37,1.07c4,.11,7.9.3,11.85.61a29.34,29.34,0,0,1,4.84,1,5,5,0,0,0,3.07.07l.11,0,.12,0,.06.07.08,0a.76.76,0,0,0,.89.12l.55.07a.86.86,0,0,0,.79.08l1.82.2,4.7.92A32.81,32.81,0,0,0,92.21,5.45Zm.64,14.76-.3-.26a2,2,0,0,0-3.08-.05c-.61.2-1.08.51-.91,1.35-.66.29-.72.93-.67,1.56a3.44,3.44,0,0,0,2.25,3.07,2.78,2.78,0,0,0,3.24-1.19,4,4,0,0,0-.12-4ZM78.11,7.72h0c-.61-1-1-1-1.59,0h0c-1,.54-.64,1.67-.88,2.54-.28,1.05-.1,1.94.93,2.14s1.56-.58,1.53-1.76l.25-1C78.5,9,79,8.23,78.11,7.72ZM12,19.7l-.47.33c-1.22,1-.58,2.52-.64,3.8a1.84,1.84,0,0,0,1.85,2.11,6.16,6.16,0,0,0,4.83-2.07,1.49,1.49,0,0,0,.05-2.28A4.58,4.58,0,0,0,15,20a1.47,1.47,0,0,0-1.29-.26l-.35-.13H12.3Zm9,6.23c0-.21-.05-.33-.26-.3h0c-.4-1.32-1.28-1.66-2.05-.69a7.33,7.33,0,0,0-1.86,4.22L17,30.43l0,.44c-.3.65-.06.93.53,1v0a3.93,3.93,0,0,0,4.2,0v0c.31-.07.26-.36.29-.6a.54.54,0,0,0,.22,0,2.67,2.67,0,0,0,0-2.13V29a3.57,3.57,0,0,0-1.31-3.07Zm62.61,5.63a2.13,2.13,0,0,0,3,.33A3.24,3.24,0,0,0,88,27.44a2.8,2.8,0,0,0-4.35-1.23,3.22,3.22,0,0,0-.71,4.51A1,1,0,0,0,83.55,31.56Zm-56-11.62c-1.05-.79-2.13-.44-3.22-.14a5.83,5.83,0,0,0-2.66,1.74,1.47,1.47,0,0,0-.11,2.18,6.09,6.09,0,0,0,5.18,2.2,1.49,1.49,0,0,0,1.46-1.54,18.79,18.79,0,0,0-.06-3.75A1.08,1.08,0,0,0,27.55,19.94Zm59.79-5.88c-1.25-1.54-2.85-1.52-4.09,0a3.35,3.35,0,0,0,0,4.71,2.59,2.59,0,0,0,4.1-.09A3.18,3.18,0,0,0,87.34,14.06ZM22,17.14c.23,0,.27-.23.26-.44v-.05c.18-.91.56-1.84-.21-2.66l-.79-.68a4.75,4.75,0,0,0-3.59,0c-.6,0-.82.54-.86,1.08-.16,2,0,4,1.52,5.41h0c.33,1.24,1.2,1.56,2,.87A4.39,4.39,0,0,0,22,17.14Zm56.33,2.92c-.69-.08-1,.41-1.29,1-.92,2.15.51,4.77,2.63,4.87a3.09,3.09,0,0,0,3.09-2.82,3.79,3.79,0,0,0-2.29-3.78C79.65,19.08,78.82,19,78.32,20.06Zm-52-11.28c.18.9.32,1.82.55,2.71a1.17,1.17,0,0,0,1.55.92,1.26,1.26,0,0,0,1-1.61c-.13-.87-.28-1.73-.46-2.59S28.2,6.85,27.39,7,26.23,7.83,26.31,8.78Z"/><path class="cls-2" d="M32.1,26.21a17.46,17.46,0,0,0,1-3.71,2.49,2.49,0,0,1,.41.57,6.92,6.92,0,0,0,7.16,4.84c7.56,0,15.12-.07,22.68,0a9,9,0,0,0,6.35-2c-.16.59.54,1,.24,1.63s-.9-.47-1.32.12l.23.35c.2.28.79.19.67.72s-.53.42-.87.42c-.68,0-1,.35-1,1.14-4.45.6-7.91,7.61-5.34,12.52a10.18,10.18,0,0,0,5.6,4.88c.58.82,1.83.69,2.15,1.85.21.76.57.81,1.2.63,1.37-.37,2.66.18,3.94.65-13.07,1-26.15.09-39.22.47a5.88,5.88,0,0,1-3.07-.37c.33-.26,1.49.08.85-.81s0-.88.25-.89c1,0,1.8-.69,2.78-.53,1.3.21,2-.69,2.41-1.89a9.52,9.52,0,0,0,3.42-4.08c1.85-4.86.38-9.37-4-12.09-.55-.83-1.09-1.72-2.08-.6a9.88,9.88,0,0,0-2.87.26c-1-1.22-1-2.21.08-3a2.37,2.37,0,0,1,.36-.17c.23-.12.52-.24.4-.61A.38.38,0,0,0,34,26.3C33.35,26.65,32.74,26.22,32.1,26.21ZM52.05,44.65h0c-.69,0-1.38,0-2.08,0a.48.48,0,0,0-.48.56.47.47,0,0,0,.41.49c1.38,0,2.77,0,4.15,0a.54.54,0,0,0,.49-.59c0-.46-.35-.5-.66-.5Z"/><path class="cls-3" d="M21,45a6.09,6.09,0,0,1,1-2.11c.25.7,1.35,1.16,1,1.9a6,6,0,0,0-.3,2.49,20.86,20.86,0,0,0-.06,4.8c.12,1.08-.28,2.52,1,3.22-.39.56-.49,1.33-1.06,1.74-.13,0-.28-.23-.38,0,0,0,.21.18.33.28a1.21,1.21,0,0,1,0,.18c-.49.06-.58.55-.76.91a128.63,128.63,0,0,0-7,18.91c-.33.33-.42.91-.87,1.12a31.76,31.76,0,0,1-5.27-1.15,4.81,4.81,0,0,0,1.7-2.83c2.07-6.71,3.82-13.56,6.52-20,1.25-3,2.62-5.93,3.94-8.89C21,45.55,21.24,45.44,21,45Z"/><path class="cls-4" d="M23.55,55.34c-1.27-.7-.87-2.14-1-3.22a20.86,20.86,0,0,1,.06-4.8,6,6,0,0,1,.3-2.49c.39-.74-.71-1.2-1-1.9a43.37,43.37,0,0,1,7.6-12.59c.26-.1.92.16.45-.61l2.09-3.52c.64,0,1.25.44,1.91.09a.38.38,0,0,1,.56.18c.12.37-.17.49-.4.61a2.37,2.37,0,0,0-.36.17c-1.09.83-1.12,1.82-.08,3-3,1-4.85,3.14-5.73,6.5-.94,3.56.91,8.09,3.83,9.77a7.74,7.74,0,0,0,7.38.24c-.44,1.2-1.11,2.1-2.41,1.89-1-.16-1.82.51-2.78.53-.27,0-.83.07-.25.89s-.52.55-.85.81c-2.38-.26-4.68-.12-6.73,1.5A3.92,3.92,0,0,0,23.82,55Z"/><path class="cls-3" d="M86.9,51.78a.93.93,0,0,1,.36.82l.19.35a11.66,11.66,0,0,1,1.07,2.66c-.28.38-.06.5.24.58a11.8,11.8,0,0,1,1.11,3.15l.17.36.12.47a3.49,3.49,0,0,0,.9,2.49c1.15,3.82,2.28,7.63,3.44,11.44a5.63,5.63,0,0,0,1.84,3.24c-2,.53-3.89,1.31-6,.94.23-.5-.05-.86-.25-1.25l-.22-.62a.14.14,0,0,0-.06-.21c-.87-2.74-1.75-5.47-2.62-8.2l-.17-.35-1.4-3.75-.16-.36L85.32,63c.17-.09.49-.08.38-.4s-.42-.18-.66-.18l-.52-1.17c.42-.57,1-.95,1-1.89a48.36,48.36,0,0,0-.1-6.48C85.31,51.33,85.65,51.17,86.9,51.78Z"/><path class="cls-4" d="M75.21,50.83c-1.28-.47-2.57-1-3.94-.65-.63.18-1,.13-1.2-.63-.32-1.16-1.57-1-2.15-1.85a15.71,15.71,0,0,0,2.57-.17,8.91,8.91,0,0,0,6.29-5.45c.35-.07.5-.32.54-.7s.1-.72.53-.63a.67.67,0,0,1,.49.76,63.86,63.86,0,0,0,0,7.45c0,.22-.18.44-.24.67-.14.61.67,2.43,1.1,2.35,1.55-.28,1.44.86,1.43,2-.53-.36-.75-1.18-1.47-1.28h0c-.13-.45-.45-.3-.73-.3A7.59,7.59,0,0,0,75.21,50.83Z"/><path class="cls-4" d="M22.48,3.23,16,4.57a2.17,2.17,0,0,0-1.17-2.43A15.2,15.2,0,0,1,24.94.2c.41.07.88,0,1.21.42A16,16,0,0,0,22.7.38c-.33,0-1,.06-.84.37C22.17,1.56,21.73,2.6,22.48,3.23Zm-6.37-1.1A1.4,1.4,0,0,0,15.93,2s-.08.07-.07.08a1.18,1.18,0,0,0,.11.19Z"/><path class="cls-5" d="M14.69,77.38a128.63,128.63,0,0,1,7-18.91c.18-.36.27-.85.76-.91-.2,2.07-1.13,3.85-1.76,5.75a127,127,0,0,1-5.56,14.12Z"/><path class="cls-5" d="M84.52,61.23,85,62.4a.65.65,0,0,0,.28.58l.17.56.16.36,1.4,3.75.17.35c.87,2.73,1.75,5.46,2.62,8.2a.17.17,0,0,0,.06.21l.22.62-.48.09a139,139,0,0,1-6.78-17.83l.43-.42Z"/><path class="cls-6" d="M87.25,4.18l-4.7-.92C83.1.86,82.79.39,80.64.38H79.48a12.39,12.39,0,0,1,7.23.36c.14.59-.43.73-.71,1.39,1.28-.64,1.26.2,1.24,1.05C87.24,3.51,87.25,3.84,87.25,4.18Z"/><path class="cls-7" d="M87.25,4.18c0-.34,0-.67,0-1,0-.85,0-1.69-1.24-1.05.28-.66.85-.8.71-1.39a16.45,16.45,0,0,1,3.76,1.57,2.72,2.72,0,0,1,1.74,3.14A32.81,32.81,0,0,1,87.25,4.18Z"/><path class="cls-7" d="M22.48,3.23c-.75-.63-.31-1.67-.62-2.48-.12-.31.51-.34.84-.37a16,16,0,0,1,3.45.24.39.39,0,0,1,.28.44l.12,1,.12.68h0l-.05.06-.07,0a.66.66,0,0,0-.66.16L25.1,3c-.28-.31-.55-.31-.79.06A4.73,4.73,0,0,1,22.48,3.23Z"/><path class="cls-7" d="M79.48.38h1.16c2.15,0,2.46.48,1.91,2.88l-1.82-.2c-.24-.33-.5-.39-.79-.08l-.55-.07a1,1,0,0,0-.89-.12l-.08,0-.06-.07c0-.26,0-.52,0-.77,0-.49-.17-1.08.4-1.38l.3-.1Z"/><path class="cls-7" d="M14.79,2.14A2.17,2.17,0,0,1,16,4.57l-.53.15a2.7,2.7,0,0,0-2.33.68l-.31,0C12.36,3.5,13.53,2.78,14.79,2.14Z"/><path class="cls-8" d="M79.14,52.66c.72.1.94.92,1.47,1.28h0l.81,1.1.17.29.38.59h0c0,.07,0,.14,0,.21l-.32.07C80.84,55,79.75,54,79.14,52.66Z"/><path class="cls-8" d="M23.82,55a3.92,3.92,0,0,1,2.37-2.6A9.24,9.24,0,0,1,23.82,55Z"/><path class="cls-9" d="M81.61,56.2l.32-.07.34.37.88,2h-.57Z"/><path class="cls-8" d="M14.69,77.38l.48.05c-.45,1.25-.53,1.31-1.35,1.07C14.27,78.29,14.36,77.71,14.69,77.38Z"/><path class="cls-9" d="M89.64,77.12l.48-.09c.2.39.48.75.25,1.25A1.81,1.81,0,0,1,89.64,77.12Z"/><path class="cls-5" d="M82.58,58.51h.57l.14.36-.43.42C82.76,59,82.67,58.77,82.58,58.51Z"/><path class="cls-4" d="M26.55,2l-.12-1A1.11,1.11,0,0,1,26.55,2Z"/><path class="cls-8" d="M78.42,52.37c.28,0,.6-.15.73.3C78.83,52.83,78.64,52.56,78.42,52.37Z"/><path class="cls-6" d="M78.37,2c0,.25,0,.51,0,.77l-.12,0-.11,0Z"/><path class="cls-4" d="M22.44,57.38c-.12-.1-.34-.25-.33-.28.1-.25.25-.06.38,0Z"/><polygon class="cls-4" points="26.68 2.71 26.67 2.71 26.71 2.67 26.76 2.77 26.68 2.71"/><path class="cls-6" d="M79.07.51l-.3.1Z"/><path class="cls-6" d="M83.29,58.87l-.14-.36c-.29-.67-.58-1.34-.88-2a.64.64,0,0,0-.3-.58h0a.59.59,0,0,0-.38-.59l-.17-.29c.4-1,0-1.2-.81-1.1h0c0-1.1.12-2.24-1.43-2-.43.08-1.24-1.74-1.1-2.35.06-.23.25-.45.24-.67a63.86,63.86,0,0,1,0-7.45.67.67,0,0,0-.49-.76c-.43-.09-.49.28-.53.63s-.19.63-.54.7a6.89,6.89,0,0,1,.52-2.63c1-.23,1.21-1,1-1.94a2.64,2.64,0,0,1,.45-2.64,9,9,0,0,1,1.56,2.59c-.06.41,0,.7.43.81a22.88,22.88,0,0,1,2.19,4.47c-.07.39,0,.69.39.82,1,2.84,2.7,5.32,3.62,8.22-1.25-.61-1.59-.45-1.45,1.08a48.36,48.36,0,0,1,.1,6.48c0,.94-.61,1.32-1,1.89Zm-1.86-5.75c0-.19-.09-.31-.25-.26s-.12.15-.13.24.09.29.25.23S81.39,53.19,81.43,53.12Z"/><path class="cls-10" d="M69.74,25.92a9,9,0,0,1-6.35,2c-7.56-.1-15.12-.06-22.68,0a6.92,6.92,0,0,1-7.16-4.84,2.49,2.49,0,0,0-.41-.57A98.85,98.85,0,0,0,30.5,6.4c-.28-1.1-.16-1.37.81-2.56q1.36,8,2.71,15.91c.84,5,2.66,6.71,7.22,6.71H64.32c3.61,0,5.67-1.84,6.39-5.84.87-4.78,1.66-9.58,2.49-14.37a3.79,3.79,0,0,0,.06-1.74,1.9,1.9,0,0,1,1.28,1.18,111.17,111.17,0,0,0-2.5,14c-.09.86-.13,1.73-.2,2.6-.55,1.09-1.1,2.18-1.64,3.27l0,.05A.46.46,0,0,0,69.74,25.92Z"/><path class="cls-4" d="M69.74,25.92a.46.46,0,0,1,.42-.35l.14.05-.1-.1c.54-1.09,1.09-2.18,1.64-3.27,0,2,.89,3.63,1.78,5.24a47.39,47.39,0,0,0,4.26,6.09c.3.4.55.85.83,1.29a2.64,2.64,0,0,0-.45,2.64c.25,1,0,1.71-1,1.94-.11-6.59-5-10.34-9.64-9.15,0-.79.35-1.14,1-1.14.34,0,.78,0,.87-.42s-.47-.44-.67-.72l-.23-.35c.42-.59,1,.6,1.32-.12S69.58,26.51,69.74,25.92Z"/><path class="cls-9" d="M22.23,31.15a.54.54,0,0,1-.22,0,.64.64,0,0,0-.29.59H17.53v0l-.53-1,0-.44c.41-.56.23-1.22.28-1.85a17.75,17.75,0,0,1,1.13-2.42c.66-1.12,1.32-1.46,2.28-.53h0c0,.19.1.29.26.3h0A9.44,9.44,0,0,0,22.25,29V29C22.24,29.73,22.23,30.44,22.23,31.15Z"/><path class="cls-9" d="M21.24,13.31,22,14a6.64,6.64,0,0,1,.21,2.66v.05c-.09.14-.18.29-.26.44h0c-.7.1-.56.89-.84,1.33-1.25,1.89-.9,2.27-2.84,1.31h0c.1-1-.57-1.68-.83-2.53-.55-1.75-.27-3.08.83-3.68C19.29,13.5,20.3,13.92,21.24,13.31Z"/><path class="cls-9" d="M79.66,25.93c-2.12-.1-3.55-2.72-2.63-4.87.25-.59.6-1.08,1.29-1A4.64,4.64,0,0,0,79,20a2.47,2.47,0,0,1,3.16,2.07,2.66,2.66,0,0,1-1.83,3.28C80,25.46,79.71,25.52,79.66,25.93Z"/><path class="cls-11" d="M15,20a4.58,4.58,0,0,1,2.55,1.63,1.49,1.49,0,0,1-.05,2.28,6.16,6.16,0,0,1-4.83,2.07,1.84,1.84,0,0,1-1.85-2.11c.06-1.28-.58-2.76.64-3.8l.08.07c0,1.26,0,2.52-.05,3.78,0,1,.4,1.29,1.15,1.37a5.5,5.5,0,0,0,4.28-1.64,1.05,1.05,0,0,0,.08-1.7,16.54,16.54,0,0,0-2.11-1.66Z"/><path class="cls-12" d="M28.14,20.63a18.79,18.79,0,0,1,.06,3.75,1.49,1.49,0,0,1-1.46,1.54,6.09,6.09,0,0,1-5.18-2.2,1.47,1.47,0,0,1,.11-2.18,5.83,5.83,0,0,1,2.66-1.74v.36c-.68.5-1.37,1-2,1.52a1.1,1.1,0,0,0-.38,1.59c.71,1.16,3.56,2.33,4.78,2a1.28,1.28,0,0,0,1-1.44c0-1.06,0-2.13,0-3.2Z"/><path class="cls-12" d="M82.93,30.72a3.22,3.22,0,0,1,.71-4.51A2.8,2.8,0,0,1,88,27.44a3.24,3.24,0,0,1-1.41,4.45.38.38,0,0,1-.14-.14c.07-.37.36-.52.58-.74a2.84,2.84,0,0,0,.56-3.08,2.24,2.24,0,0,0-2.24-1.66,2.33,2.33,0,0,0-2.26,1.6,4.26,4.26,0,0,0,0,2.69A1.29,1.29,0,0,1,82.93,30.72Z"/><path class="cls-12" d="M26.31,8.78c-.08-.95.29-1.57,1.08-1.75s1.35.29,1.53,1.18.33,1.72.46,2.59a1.26,1.26,0,0,1-1,1.61,1.17,1.17,0,0,1-1.55-.92C26.63,10.6,26.49,9.68,26.31,8.78Zm2.44,1.87c0-.72-.06-1.29-.09-1.86a1,1,0,0,0-1-1.06c-.71-.05-.74.51-.71,1.07a12.53,12.53,0,0,1,.17,1.71c-.07.89.31,1.3,1,1.29S28.74,11.06,28.75,10.65Z"/><path class="cls-11" d="M93.26,20.65a4,4,0,0,1,.12,4,2.78,2.78,0,0,1-3.24,1.19,3.44,3.44,0,0,1-2.25-3.07c0-.63,0-1.27.67-1.56h0c0,.58,0,1.16,0,1.74a2.36,2.36,0,0,0,2.57,2.38c1.4-.08,2.13-1,2.15-2.65a4.25,4.25,0,0,0-.55-2.06Z"/><path class="cls-9" d="M78.36,9.69c-.08.34-.17.67-.25,1a.62.62,0,0,0-.49.42c-.18.59-.55.9-1.09.7s-.42-.8-.33-1.33c.13-.9.22-1.8.33-2.71h1.58C78.15,8.42,78.54,9,78.36,9.69Z"/><path class="cls-11" d="M79.66,25.93c0-.41.33-.47.63-.59a2.66,2.66,0,0,0,1.83-3.28A2.47,2.47,0,0,0,79,20a4.64,4.64,0,0,1-.64.07c.5-1,1.33-1,2.14-.73a3.79,3.79,0,0,1,2.29,3.78A3.09,3.09,0,0,1,79.66,25.93Z"/><path class="cls-12" d="M87.35,18.73a2.59,2.59,0,0,1-4.1.09,3.35,3.35,0,0,1,0-4.71l.16.17c-.29.94-.79,1.8-.46,2.9a2.52,2.52,0,0,0,4.2,1.32Z"/><path class="cls-12" d="M76.53,7.72c-.11.9-.2,1.81-.33,2.71-.09.53-.31,1.1.33,1.33s.91-.11,1.09-.7a.62.62,0,0,1,.49-.42c0,1.18-.4,2-1.53,1.76s-1.21-1.09-.93-2.14C75.89,9.39,75.54,8.26,76.53,7.72Z"/><path class="cls-11" d="M18.31,13.57c-1.1.6-1.38,1.93-.83,3.68.26.85.93,1.53.83,2.53-1.51-1.45-1.68-3.38-1.52-5.41,0-.54.26-1,.86-1.08Z"/><path class="cls-12" d="M20.68,25.63c-1-.93-1.62-.59-2.28.53a17.75,17.75,0,0,0-1.13,2.42l-.5.58a7.33,7.33,0,0,1,1.86-4.22C19.4,24,20.28,24.31,20.68,25.63Z"/><path class="cls-11" d="M18.31,19.78c1.94,1,1.59.58,2.84-1.31.28-.44.14-1.23.84-1.33a4.39,4.39,0,0,1-1.73,3.51C19.51,21.34,18.64,21,18.31,19.78Z"/><path class="cls-9" d="M74.54,5.69a1.9,1.9,0,0,0-1.28-1.18c-.17-.51-.34-1-.52-1.59C74.4,3.41,75.07,4.48,74.54,5.69Z"/><path class="cls-12" d="M83.25,14.11c1.24-1.57,2.84-1.59,4.09,0l-.15.18a3.06,3.06,0,0,0-3.78,0Z"/><path class="cls-12" d="M87.34,14.06a3.18,3.18,0,0,1,0,4.67l-.2-.23a4.15,4.15,0,0,0,0-4.26Z"/><path class="cls-13" d="M17.53,31.77h4.2A3.93,3.93,0,0,1,17.53,31.77Z"/><path class="cls-13" d="M18.31,13.57l-.66-.28a4.75,4.75,0,0,1,3.59,0C20.3,13.92,19.29,13.5,18.31,13.57Z"/><path class="cls-12" d="M89.46,19.89a2,2,0,0,1,3.09.06l-.14.19a3.71,3.71,0,0,0-2.76,0Z"/><path class="cls-13" d="M24.34,20.16V19.8c1.09-.3,2.17-.65,3.22.14l-.12.15Z"/><path class="cls-13" d="M86.58,31.89a2.13,2.13,0,0,1-3-.33l.11-.12a5.85,5.85,0,0,0,2.78.31A.38.38,0,0,0,86.58,31.89Z"/><path class="cls-12" d="M22.25,29a9.35,9.35,0,0,1-1.31-3.07A3.57,3.57,0,0,1,22.25,29Z"/><path class="cls-13" d="M13.73,19.7A1.47,1.47,0,0,1,15,20c0,.1-.07.19-.11.28a14.45,14.45,0,0,0-3.35-.14L11.48,20,12,19.7l.35-.13h1.07Z"/><path class="cls-4" d="M13.1,5.4a2.7,2.7,0,0,1,2.33-.68A5.23,5.23,0,0,1,13.1,5.4Z"/><path class="cls-12" d="M78.12,7.77H76.53C77.11,6.8,77.51,6.8,78.12,7.77Z"/><path class="cls-14" d="M91.06,62.66a3.49,3.49,0,0,1-.9-2.49A8.63,8.63,0,0,1,91.06,62.66Z"/><path class="cls-11" d="M22.24,16.65A6.64,6.64,0,0,0,22,14C22.8,14.81,22.42,15.74,22.24,16.65Z"/><path class="cls-12" d="M88.56,21.25c-.17-.84.3-1.15.9-1.35l.18.25-1.09,1.09Z"/><path class="cls-11" d="M16.77,29.16l.5-.58c-.05.63.13,1.3-.28,1.85Z"/><path class="cls-12" d="M78.36,9.64c.18-.69-.21-1.27-.25-1.92C79,8.23,78.5,9,78.36,9.64Z"/><path class="cls-12" d="M22.23,31.19c0-.71,0-1.42,0-2.13A2.67,2.67,0,0,1,22.23,31.19Z"/><path class="cls-13" d="M17,30.87l.53,1C17,31.8,16.71,31.52,17,30.87Z"/><path class="cls-4" d="M24.31,3c.24-.37.51-.37.79-.06A.82.82,0,0,1,24.31,3Z"/><path class="cls-6" d="M79.94,3c.29-.31.55-.25.79.08A.86.86,0,0,1,79.94,3Z"/><path class="cls-13" d="M83.55,31.56a1,1,0,0,1-.62-.84,1.29,1.29,0,0,0,.18-.16,1.17,1.17,0,0,1,.55.88Z"/><path class="cls-2" d="M30,29.73c.47.77-.19.51-.45.61A.77.77,0,0,1,30,29.73Z"/><path class="cls-13" d="M28.14,20.63h-.4l-.31-.55.12-.15A1.08,1.08,0,0,1,28.14,20.63Z"/><path class="cls-4" d="M80.7,38.27c-.38-.11-.49-.4-.43-.81A1.06,1.06,0,0,1,80.7,38.27Z"/><path class="cls-4" d="M83.28,43.56c-.38-.13-.46-.43-.39-.82A1.23,1.23,0,0,1,83.28,43.56Z"/><path class="cls-6" d="M88.76,56.19c-.3-.08-.52-.2-.24-.58Z"/><path class="cls-4" d="M21,45c.26.4,0,.51-.27.58A.63.63,0,0,1,21,45Z"/><path class="cls-4" d="M25.9,2.9a.66.66,0,0,1,.66-.16C26.36,2.91,26.17,3.07,25.9,2.9Z"/><path class="cls-6" d="M78.5,2.79a1,1,0,0,1,.89.12A.76.76,0,0,1,78.5,2.79Z"/><path class="cls-13" d="M21.72,31.83a.65.65,0,0,1,.29-.6C22,31.47,22,31.76,21.72,31.83Z"/><path class="cls-12" d="M93.26,20.65h-.52l-.09-.22.2-.22Z"/><path class="cls-12" d="M92.55,20l.3.26-.2.22-.24-.29Z"/><path class="cls-6" d="M87.45,53l-.19-.35Z"/><path class="cls-12" d="M20.94,25.93c-.16,0-.25-.11-.26-.3C20.89,25.6,21,25.72,20.94,25.93Z"/><path class="cls-11" d="M12.3,19.57,12,19.7Z"/><path class="cls-11" d="M22,17.14c.08-.15.17-.3.26-.44C22.26,16.91,22.22,17.1,22,17.14Z"/><path class="cls-11" d="M13.73,19.7l-.36-.13Z"/><path class="cls-6" d="M90,59.7l-.17-.36Z"/><path class="cls-15" d="M67.66,30.3c4.64-1.19,9.53,2.56,9.64,9.15a6.89,6.89,0,0,0-.52,2.63,8.91,8.91,0,0,1-6.29,5.45,15.71,15.71,0,0,1-2.57.17,10.18,10.18,0,0,1-5.6-4.88C59.75,37.91,63.21,30.9,67.66,30.3Zm4.69,15a7.67,7.67,0,0,0,3.57-6.47c-.14-3-1.79-5.94-4.34-6.73-2.77-1.63-6.66.52-7.92,3.48-1.66,3.92-.65,7.66,2.7,9.72a4.44,4.44,0,0,0,1,.57C69.09,46.26,70.82,46.76,72.35,45.31Z"/><path class="cls-15" d="M39.21,46.81a7.74,7.74,0,0,1-7.38-.24c-2.92-1.68-4.77-6.21-3.83-9.77.88-3.36,2.74-5.54,5.73-6.5A9.88,9.88,0,0,1,36.6,30a6.62,6.62,0,0,0,2.08.6c4.33,2.72,5.8,7.23,4,12.09A9.52,9.52,0,0,1,39.21,46.81Zm-3.14-15a.76.76,0,0,0-.79-.26c-1.52.32-3.1.51-4.16,2-.2.25-.42.5-.62.74-2.46,3-1.75,8.4,1.37,10.47a4.77,4.77,0,0,0,6.32.56,2.07,2.07,0,0,0,1.31-.56,7.87,7.87,0,0,0,1.57-9.52c-1.06-1.81-2.32-3.39-4.48-3.44Z"/><path class="cls-16" d="M52.05,44.65h1.83c.31,0,.64,0,.66.5a.54.54,0,0,1-.49.59c-1.38,0-2.77,0-4.15,0a.47.47,0,0,1-.41-.49.48.48,0,0,1,.48-.56c.7,0,1.39,0,2.08,0Z"/><path class="cls-4" d="M38.68,30.64A6.62,6.62,0,0,1,36.6,30C37.59,28.92,38.13,29.81,38.68,30.64Z"/><path class="cls-6" d="M85.32,63A.65.65,0,0,1,85,62.4c.24,0,.55-.12.66.18S85.49,62.89,85.32,63Z"/><path class="cls-6" d="M85.65,63.9l-.16-.36Z"/><path class="cls-6" d="M87.22,68l-.17-.35Z"/><path class="cls-9" d="M89.9,76.41a.17.17,0,0,1-.06-.21A.14.14,0,0,1,89.9,76.41Z"/><path class="cls-7" d="M16.11,2.13,16,2.28a1.18,1.18,0,0,1-.11-.19s.06-.09.07-.08A1.4,1.4,0,0,1,16.11,2.13Z"/><path class="cls-4" d="M80.63,54c.77-.1,1.21.11.81,1.1Z"/><path class="cls-4" d="M81.61,55.34a.59.59,0,0,1,.38.59Z"/><path class="cls-4" d="M82,55.92a.64.64,0,0,1,.3.58l-.34-.37C81.94,56.06,82,56,82,55.92Z"/><path class="cls-4" d="M81.43,53.12c0,.07-.07.19-.13.21s-.25-.07-.25-.23.07-.22.13-.24S81.41,52.93,81.43,53.12Z"/><path class="cls-2" d="M70.2,25.52l.1.1-.14-.05Z"/><path class="cls-9" d="M11.56,20.1a14.45,14.45,0,0,1,3.35.14A17.57,17.57,0,0,1,17,21.91a1.05,1.05,0,0,1-.08,1.7,5.5,5.5,0,0,1-4.28,1.64c-.75-.08-1.19-.41-1.15-1.37C11.57,22.62,11.55,21.36,11.56,20.1Z"/><path class="cls-9" d="M27.43,20.09l.31.55c0,1.07,0,2.14,0,3.2a1.28,1.28,0,0,1-1,1.44c-1.22.32-4.07-.85-4.78-2a1.1,1.1,0,0,1,.38-1.59c.67-.53,1.36-1,2-1.52Z"/><path class="cls-9" d="M83.66,31.44a1.17,1.17,0,0,0-.55-.88,4.26,4.26,0,0,1,0-2.69,2.33,2.33,0,0,1,2.26-1.6,2.24,2.24,0,0,1,2.24,1.66A2.84,2.84,0,0,1,87,31c-.22.22-.51.37-.58.74A5.85,5.85,0,0,1,83.66,31.44Z"/><path class="cls-9" d="M28.75,10.65c0,.41.19,1.14-.62,1.15s-1.08-.4-1-1.29A12.53,12.53,0,0,0,27,8.8c0-.56,0-1.12.71-1.07a1,1,0,0,1,1,1.06C28.69,9.36,28.72,9.93,28.75,10.65Z"/><path class="cls-9" d="M92.41,20.14l.24.29.09.22a4.25,4.25,0,0,1,.55,2.06c0,1.64-.75,2.57-2.15,2.65A2.36,2.36,0,0,1,88.57,23c0-.58,0-1.16,0-1.74l1.09-1.09A3.74,3.74,0,0,1,92.41,20.14Z"/><path class="cls-9" d="M87.19,14.24a4.15,4.15,0,0,1,0,4.26A2.52,2.52,0,0,1,83,17.18c-.33-1.1.17-2,.46-2.9A3.06,3.06,0,0,1,87.19,14.24Z"/><path class="cls-6" d="M66.36,45.31c-3.35-2.06-4.36-5.8-2.7-9.72,1.26-3,5.15-5.11,7.92-3.48-.63.53-1.37.12-2,.33-.42.13-1.21-.18-1.1.86-1.32.82-2.77,1.43-3.44,3.15-1.65,4.24.86,8.29,4.73,8-.18.71-.7.54-1.15.59C67.85,45.12,67.06,44.78,66.36,45.31Z"/><path class="cls-14" d="M68.46,33.3c-.11-1,.68-.73,1.1-.86.65-.21,1.39.2,2-.33,2.55.79,4.2,3.76,4.34,6.73a7.67,7.67,0,0,1-3.57,6.47c-.55-.15-.56-.52-.27-1a1.89,1.89,0,0,0,.52-1.12c1.07-1.69,2-3.43,1.44-5.65C73.34,34.72,71.79,33.53,68.46,33.3Z"/><path class="cls-2" d="M72.6,43.23a1.89,1.89,0,0,1-.52,1.12c-.29.44-.28.81.27,1-1.53,1.45-3.26.95-4.95.57a4.44,4.44,0,0,1-1-.57c.7-.53,1.49-.19,2.24-.28.45-.05,1,.12,1.15-.59C70.83,44.42,71.6,43.49,72.6,43.23Z"/><path class="cls-3" d="M36.59,31.83c2.16.05,3.42,1.63,4.48,3.44a7.87,7.87,0,0,1-1.57,9.52,2.07,2.07,0,0,1-1.31.56c-.27-.35-.59-.21-.93-.16-.75.11-1.5.13-2-.75,3.91-.18,5.88-3.5,4.71-7.94.3-.06.45-.2.33-.59a4.81,4.81,0,0,0-2.74-3.15C37.14,32.55,36.66,32.5,36.59,31.83Z"/><path class="cls-14" d="M31.87,44.79C28.75,42.72,28,37.28,30.5,34.32c.2-.24.42-.49.62-.74a4.91,4.91,0,0,0,2.57-.66c.47-.28.9-.35,1.09.38-4.08,1.08-4.89,5.88-3.13,9.06C31.3,43.22,32.52,43.9,31.87,44.79Z"/><path class="cls-2" d="M34.78,33.3c-.19-.73-.62-.66-1.09-.38a4.91,4.91,0,0,1-2.57.66c1.06-1.52,2.64-1.71,4.16-2,.15.54.41.66.79.26l.52,0c.07.67.55.72,1,.93a4.81,4.81,0,0,1,2.74,3.15c.12.39,0,.53-.33.59a2.21,2.21,0,0,0-.75-1.3A6.37,6.37,0,0,0,34.78,33.3Z"/><path class="cls-2" d="M31.87,44.79c.65-.89-.57-1.57-.22-2.43a4.91,4.91,0,0,0,3.64,2.08c.47.88,1.22.86,2,.75.34,0,.66-.19.93.16A4.77,4.77,0,0,1,31.87,44.79Z"/><path class="cls-3" d="M36.07,31.81c-.38.4-.64.28-.79-.26A.76.76,0,0,1,36.07,31.81Z"/><path class="cls-15" d="M72.6,43.23c-1,.26-1.77,1.19-2.85,1.21-3.87.3-6.38-3.75-4.73-8,.67-1.72,2.12-2.33,3.44-3.15,3.33.23,4.88,1.42,5.58,4.28C74.59,39.8,73.67,41.54,72.6,43.23Z"/><path class="cls-15" d="M35.29,44.44a4.91,4.91,0,0,1-3.64-2.08c-1.76-3.18-.95-8,3.13-9.06a6.37,6.37,0,0,1,4.47,1.9A2.21,2.21,0,0,1,40,36.5C41.17,40.94,39.2,44.26,35.29,44.44Z"/></g></g></svg>