<svg xmlns="http://www.w3.org/2000/svg" viewBox="0 0 89.59 89.49"><defs><style>.cls-1{fill:#fffdfd;}.cls-2{fill:#365981;}.cls-3{fill:#fefefe;}.cls-4{fill:#fefeff;}.cls-5{fill:#3e648e;}</style></defs><g id="Layer_2" data-name="Layer 2"><g id="Layer_1-2" data-name="Layer 1"><circle class="cls-1" cx="44.66" cy="44.85" r="44.5"/><path class="cls-2" d="M46.89,89.35H42.16c-.08-.12-.21-.08-.32-.08a63.41,63.41,0,0,1-10.65-1.73,3.19,3.19,0,0,1-.44-.13Q8.92,79.19,2,58.42c-.17-.48-.3-1-.47-1.57l.69.28,16.45,6.76a.12.12,0,0,1,.05,0,12.62,12.62,0,0,0,25-3,.07.07,0,0,1,0-.06Q51.29,55.5,58.83,50.1l.05,0c6.54,0,12-3,15.82-9.72a2.21,2.21,0,0,0,.12-.27c2.55-7.43,1.13-13.36-3-18.06A16.77,16.77,0,0,0,52.51,17.8C46,20.87,42.6,26.1,42.41,33.4l0,0L31.7,48.77a.05.05,0,0,1-.05,0A12.47,12.47,0,0,0,24,50.9h0a4.78,4.78,0,0,1-1.7-.61l-21.91-9c-.25-.1-.38-.2-.35-.51a46.88,46.88,0,0,1,1.06-6.45C4.27,21.12,12.37,10.93,25.5,4l.42-.19C35.72-.09,45.4-1.06,54.8,1.2A43.91,43.91,0,0,1,77.53,14.63,44.05,44.05,0,0,1,89,41a5.29,5.29,0,0,0,.16,1.48v4.64c-.13.1-.08.24-.09.37a44.06,44.06,0,0,1-2.75,12.92A44.67,44.67,0,0,1,48.24,89.2,4.09,4.09,0,0,0,46.89,89.35Z"/><path class="cls-3" d="M89.58,42.58a6.24,6.24,0,0,1-.16-1.49A44,44,0,0,0,78,14.76,44.49,44.49,0,0,0,41.24.29a43.82,43.82,0,0,0-25,10.3A44,44,0,0,0,1.48,34.42a46.86,46.86,0,0,0-1,6.45c0,.31.09.4.34.51l21.92,9a5.77,5.77,0,0,0,1.56.6c.53,0,.95-.48,1.43-.73a12.18,12.18,0,0,1,6-1.39.72.72,0,0,0,.69-.36q5.1-7.35,10.24-14.69a1.24,1.24,0,0,0,.23-.69c.3-7.11,3.68-12.23,10.09-15.24a16.76,16.76,0,0,1,19.35,4.22A16.82,16.82,0,0,1,70.82,46a16.42,16.42,0,0,1-11.15,4.24,1.21,1.21,0,0,0-.74.24L44.49,60.75a.78.78,0,0,0-.37.72,12.62,12.62,0,0,1-24.89,3.09,1,1,0,0,0-.64-.74l-16-6.56L1.93,57c.18.59.31,1.08.47,1.57A44.22,44.22,0,0,0,24.06,84.31,43.5,43.5,0,0,0,38.4,89a38.52,38.52,0,0,0,3.86.39c.11,0,.24,0,.33.08H.73c-.32,0-.42,0-.42-.4Q.33,44.77.31.47C.31.11.38,0,.75,0Q44.94,0,89.14,0c.4,0,.45.11.45.47Q89.57,21.53,89.58,42.58ZM70.89,33.26A11.21,11.21,0,1,0,59.66,44.45,11.23,11.23,0,0,0,70.89,33.26ZM28.2,52.62c.08.15.25.16.38.21,1.71.71,3.43,1.4,5.14,2.12a7,7,0,0,1-4.17,13.3A21.68,21.68,0,0,1,26.35,67c-1.11-.44-2.21-.9-3.36-1.37a9.31,9.31,0,0,0,12,4.67A9.48,9.48,0,0,0,28.2,52.62Z"/><path class="cls-4" d="M47.31,89.48a4.13,4.13,0,0,1,1.35-.16A44.56,44.56,0,0,0,89.49,47.58c0-.12,0-.27.09-.37q0,20.94,0,41.87c0,.33-.08.41-.41.41Z"/><path class="cls-5" d="M70.89,33.26A11.21,11.21,0,1,1,59.7,22.05,11.17,11.17,0,0,1,70.89,33.26ZM59.66,41.62a8.38,8.38,0,1,0-8.44-8.41A8.38,8.38,0,0,0,59.66,41.62Z"/><path class="cls-5" d="M28.2,52.62a9.48,9.48,0,0,1,6.74,17.72A9.31,9.31,0,0,1,23,65.67c1.15.47,2.25.93,3.36,1.37a21.68,21.68,0,0,0,3.2,1.21A7,7,0,0,0,33.72,55c-1.71-.72-3.43-1.41-5.14-2.12C28.45,52.78,28.28,52.77,28.2,52.62Z"/><path class="cls-3" d="M59.66,41.62a8.38,8.38,0,1,1,8.51-8.36A8.35,8.35,0,0,1,59.66,41.62Z"/></g></g></svg>