<svg xmlns="http://www.w3.org/2000/svg" viewBox="0 0 135.8 86.68"><defs><style>.cls-1{fill:#454e5c;}.cls-2{fill:#30a6c9;}.cls-3{fill:#fb5364;}.cls-4{fill:#2e313a;}.cls-5{fill:#2c2f38;}.cls-6{fill:#2c323b;}.cls-7{fill:#2c323c;}.cls-8{fill:#2c343e;}.cls-9{fill:#303039;}.cls-10{fill:#313039;}.cls-11{fill:#36313a;}.cls-12{fill:#35303a;}.cls-13{fill:#f8f8f8;}.cls-14{fill:#f5f5f5;}</style></defs><g id="Layer_2"><g id="Layer_1-2"><path class="cls-1" d="M49.24,7.06h57.23c.41,0,.81,0,1.21,0v29.6q0,24.95,0,49.9c-3.65,0-7.3.06-11,.06H29.59c-.47,0-.95-.05-1.42-.07,0-.44,0-.88,0-1.32q0-38.09,0-76.19c0-.69-.05-1.38-.08-2.07h.07ZM67.9,16.49H40.36c-2.15,0-3,.82-3,3V74.35c0,2.06.87,3,2.91,3H95.52c2,0,2.89-.86,2.89-2.85V19.37c0-2-.85-2.88-2.85-2.88Z"/><path class="cls-2" d="M28.06,7c0,.69.08,1.38.08,2.07q0,38.1,0,76.19c0,.44,0,.88,0,1.32l-13.27.07a18.52,18.52,0,0,1-4.56-.54A13.84,13.84,0,0,1,.08,73.48C0,66.57,0,59.65,0,52.74,0,42.31.11,31.89,0,21.46a14.23,14.23,0,0,1,10.65-14,15.65,15.65,0,0,1,3.8-.42ZM13.91,39.79a4.59,4.59,0,0,0,4.82-4.58,4.69,4.69,0,1,0-4.82,4.58Zm4.88-23.33c-.84,0-1.68,0-2.52,0a2.15,2.15,0,0,0-2.17,2.27,2.12,2.12,0,0,0,2.1,2.33c1.68.07,3.36.07,5,0a2.22,2.22,0,0,0,2.14-2.33,2.19,2.19,0,0,0-2.18-2.28C20.4,16.43,19.6,16.46,18.79,16.46Zm2.3,39.74a2.36,2.36,0,0,0-2.43-2.3,2.42,2.42,0,0,0-2.3,2.44,2.37,2.37,0,0,0,4.73-.14Zm-4.74-4.63A2.22,2.22,0,0,0,14,49.2a2.32,2.32,0,0,0-2.33,2.27A2.44,2.44,0,0,0,14,54,2.38,2.38,0,0,0,16.35,51.57ZM11.7,56.19A2.31,2.31,0,0,0,9.4,53.9,2.53,2.53,0,0,0,7,56.23a2.62,2.62,0,0,0,2.43,2.38A2.39,2.39,0,0,0,11.7,56.19Zm7.06,18.72a2.34,2.34,0,0,0,2.33-2.26,2.37,2.37,0,0,0-4.73,0A2.33,2.33,0,0,0,18.76,74.91ZM14.09,58.63a2.21,2.21,0,0,0-2.38,2.28,2.31,2.31,0,0,0,2.35,2.34A2.21,2.21,0,0,0,16.34,61,2.15,2.15,0,0,0,14.09,58.63Z"/><path class="cls-3" d="M107.66,86.61q0-24.94,0-49.9V7.11c5,0,10.09-.19,15.13,0a13.73,13.73,0,0,1,12.91,13.26c.14,11.15.06,22.3.06,33.45,0,6.21,0,12.43,0,18.64A13.88,13.88,0,0,1,124.2,86.42a16.7,16.7,0,0,1-2.73.25c-4.39,0-8.77,0-13.16,0C108.09,86.68,107.88,86.63,107.66,86.61Zm14.07-25.74a4.65,4.65,0,1,0-4.66-4.64A4.64,4.64,0,0,0,121.73,60.87Zm0-42a2.11,2.11,0,0,0-1.4-2.22,1.62,1.62,0,0,1-1.09-1.07,2.31,2.31,0,0,0-4.3,0,1.45,1.45,0,0,1-1,1,2.13,2.13,0,0,0-1.49,2.19A2.17,2.17,0,0,0,114,21a1.33,1.33,0,0,1,1,1,2.29,2.29,0,0,0,4.29,0,1.47,1.47,0,0,1,1.08-1.05A2,2,0,0,0,121.72,18.86ZM117.07,32.8a2.42,2.42,0,0,0-2.35,2.4,2.37,2.37,0,0,0,4.73,0A2.42,2.42,0,0,0,117.07,32.8Zm9.35,0a2.36,2.36,0,0,0,.1,4.71,2.49,2.49,0,0,0,2.3-2.35A2.42,2.42,0,0,0,126.42,32.81Zm-7-2.26a2.32,2.32,0,0,0,2.29,2.3,2.38,2.38,0,0,0,2.35-2.38,2.34,2.34,0,0,0-2.39-2.32A2.2,2.2,0,0,0,119.46,30.55ZM117,74.92a2.32,2.32,0,1,0-2.31-2.36A2.28,2.28,0,0,0,117,74.92Zm2.42-35.06a2.21,2.21,0,0,0,2.33,2.32,2.31,2.31,0,0,0,2.31-2.27,2.28,2.28,0,0,0-2.31-2.37A2.2,2.2,0,0,0,119.46,39.86Z"/><path class="cls-4" d="M49.24,7.06,28.13,7c0-.76,0-1.53,0-2.29A4.56,4.56,0,0,1,32.64.06c4-.08,8-.08,12,0a4.64,4.64,0,0,1,4.52,4.71C49.22,5.53,49.23,6.3,49.24,7.06Z"/><path class="cls-5" d="M67.9,16.49H95.56c2,0,2.85.86,2.85,2.88V74.45c0,2-.87,2.85-2.89,2.85H40.31c-2,0-2.91-.89-2.91-3V19.48c0-2.17.81-3,3-3ZM44.52,39.86A2.22,2.22,0,0,0,46,42a2.29,2.29,0,0,0,2.68-.65q6.86-6.86,13.71-13.72a2.28,2.28,0,0,0,.13-3.49,2.36,2.36,0,0,0-3.42.17C54.47,28.86,49.91,33.44,45.33,38A2.45,2.45,0,0,0,44.52,39.86ZM49,23.49a1.61,1.61,0,0,0-1,.29,16.59,16.59,0,0,0-3.16,3.16,2.3,2.3,0,0,0,3.22,3.14A14.7,14.7,0,0,0,51.14,27a2.09,2.09,0,0,0,0-2.39A2.28,2.28,0,0,0,49,23.49Z"/><path class="cls-6" d="M13.91,39.79a4.64,4.64,0,1,1,4.82-4.58A4.59,4.59,0,0,1,13.91,39.79Z"/><path class="cls-7" d="M18.79,16.46c.81,0,1.61,0,2.41,0a2.19,2.19,0,0,1,2.18,2.28,2.22,2.22,0,0,1-2.14,2.33c-1.68.06-3.36.06-5,0a2.12,2.12,0,0,1-2.1-2.33,2.15,2.15,0,0,1,2.17-2.27C17.11,16.43,18,16.46,18.79,16.46Z"/><path class="cls-8" d="M21.09,56.2a2.37,2.37,0,1,1-2.43-2.3A2.36,2.36,0,0,1,21.09,56.2Z"/><path class="cls-8" d="M16.35,51.57A2.38,2.38,0,0,1,14,54a2.44,2.44,0,0,1-2.28-2.48A2.32,2.32,0,0,1,14,49.2,2.22,2.22,0,0,1,16.35,51.57Z"/><path class="cls-8" d="M11.7,56.19a2.39,2.39,0,0,1-2.31,2.42A2.62,2.62,0,0,1,7,56.23,2.53,2.53,0,0,1,9.4,53.9,2.31,2.31,0,0,1,11.7,56.19Z"/><path class="cls-8" d="M18.76,74.91a2.33,2.33,0,0,1-2.4-2.29,2.37,2.37,0,0,1,4.73,0A2.34,2.34,0,0,1,18.76,74.91Z"/><path class="cls-8" d="M14.09,58.63A2.15,2.15,0,0,1,16.34,61a2.21,2.21,0,0,1-2.28,2.26,2.31,2.31,0,0,1-2.35-2.34A2.21,2.21,0,0,1,14.09,58.63Z"/><path class="cls-9" d="M121.73,60.87a4.65,4.65,0,1,1,4.72-4.58A4.63,4.63,0,0,1,121.73,60.87Z"/><path class="cls-10" d="M121.72,18.86a2,2,0,0,1-1.42,2A1.47,1.47,0,0,0,119.22,22a2.29,2.29,0,0,1-4.29,0,1.33,1.33,0,0,0-1-1,2.17,2.17,0,0,1-1.53-2.18,2.13,2.13,0,0,1,1.49-2.19,1.45,1.45,0,0,0,1-1,2.31,2.31,0,0,1,4.3,0,1.62,1.62,0,0,0,1.09,1.07A2.11,2.11,0,0,1,121.72,18.86Z"/><path class="cls-11" d="M117.07,32.8a2.42,2.42,0,0,1,2.38,2.39,2.37,2.37,0,0,1-4.73,0A2.42,2.42,0,0,1,117.07,32.8Z"/><path class="cls-11" d="M126.42,32.81a2.42,2.42,0,0,1,2.4,2.36,2.49,2.49,0,0,1-2.3,2.35,2.36,2.36,0,0,1-.1-4.71Z"/><path class="cls-11" d="M119.46,30.55a2.2,2.2,0,0,1,2.25-2.4,2.34,2.34,0,0,1,2.39,2.32,2.38,2.38,0,0,1-2.35,2.38A2.32,2.32,0,0,1,119.46,30.55Z"/><path class="cls-12" d="M117,74.92a2.28,2.28,0,0,1-2.31-2.36A2.36,2.36,0,1,1,117,74.92Z"/><path class="cls-11" d="M119.46,39.86a2.2,2.2,0,0,1,2.33-2.32,2.28,2.28,0,0,1,2.31,2.37,2.31,2.31,0,0,1-2.31,2.27A2.21,2.21,0,0,1,119.46,39.86Z"/><path class="cls-13" d="M44.52,39.86A2.45,2.45,0,0,1,45.33,38c4.58-4.57,9.14-9.15,13.73-13.71a2.36,2.36,0,0,1,3.42-.17,2.28,2.28,0,0,1-.13,3.49q-6.84,6.87-13.71,13.72A2.29,2.29,0,0,1,46,42,2.22,2.22,0,0,1,44.52,39.86Z"/><path class="cls-14" d="M49,23.49a2.28,2.28,0,0,1,2.14,1.12,2.09,2.09,0,0,1,0,2.39,14.7,14.7,0,0,1-3.07,3.08,2.3,2.3,0,0,1-3.22-3.14A16.59,16.59,0,0,1,48,23.78,1.61,1.61,0,0,1,49,23.49Z"/></g></g></svg>