<svg xmlns="http://www.w3.org/2000/svg" width="50" height="50" viewBox="0 0 50 50">
  <g id="icons8-telegram-app" transform="translate(-4 -4)">
    <path id="Path_74" data-name="Path 74" d="M29,4A25,25,0,1,0,54,29,25,25,0,0,0,29,4Z" fill="#29b6f6"/>
    <path id="Path_75" data-name="Path 75" d="M36.989,15.127,32.768,36.68a1.315,1.315,0,0,1-1.4.985,1.508,1.508,0,0,1-.984-.309l-9.144-7.587-4.474-2.255-5.742-1.527S10,25.692,10,24.846c0-.7,1.051-1.04,1.051-1.04l24.021-9.543A4.59,4.59,0,0,1,36.341,14c.329,0,.7.141.7.563A3.294,3.294,0,0,1,36.989,15.127Z" transform="translate(2.608 3.861)" fill="#fff"/>
    <path id="Path_76" data-name="Path 76" d="M23.507,30.824l-3.861,3.8a.737.737,0,0,1-.392.135.557.557,0,0,1-.247-.048l1.086-6.722Z" transform="translate(3.957 6.52)" fill="#b0bec5"/>
    <path id="Path_77" data-name="Path 77" d="M31.66,18.221a.564.564,0,0,0-.79-.1L16,27.015s2.373,6.64,2.735,7.789.654,1.178.654,1.178l1.086-6.722,11.08-10.25A.562.562,0,0,0,31.66,18.221Z" transform="translate(3.795 4.644)" fill="#cfd8dc"/>
  </g>
</svg>
