<svg xmlns="http://www.w3.org/2000/svg" viewBox="0 0 190 190"><defs><style>.cls-1{fill:#1a7d3f;}.cls-2{fill:#fefefd;}.cls-3{fill:#fdfefc;}</style></defs><g id="Layer_2"><g id="Layer_1-2"><path class="cls-1" d="M95,.05q46.77,0,93.54,0c1.34,0,1.5.41,1.5,1.79q0,93.21,0,186.44c0,1.4-.2,1.77-1.51,1.77Q95,189.93,1.59,190C.21,190,0,189.57,0,188.11Q.06,95,0,1.88C0,.4.24,0,1.59,0Q48.29.09,95,.05Zm1.3,164.81A71.34,71.34,0,0,0,107,163.72a59.14,59.14,0,0,0,30.76-16.89,8.54,8.54,0,0,0,2.37-7.58,23.42,23.42,0,0,0-1.93-6.44,108.34,108.34,0,0,0-16.4-25.28c-7.87-9.29-16.23-18-24.53-26.81-.89-1-1.39-.93-2.25,0-3.68,4-7.43,8-11.15,12-9.06,9.73-18.12,19.47-25.13,31.36-2.72,4.62-5.47,9.22-6.49,14.83a8.51,8.51,0,0,0,2.34,8C66.9,159.23,81.34,164.87,96.26,164.86ZM46.11,137.19a55.6,55.6,0,0,1,.81-8.42c2.13-11.72,6.59-22.31,12-32.44A144.4,144.4,0,0,1,80.3,66.12c.68-.75,1.09-1.18.08-2.12C75,58.9,69.57,53.73,63.62,49.43a24.07,24.07,0,0,0-7.25-3.94,3.44,3.44,0,0,0-3.7,1.07C35.28,64,28.68,91.4,35.9,116.48A62.18,62.18,0,0,0,46.11,137.19Zm100.3-.05a.64.64,0,0,0,.24-.2A70.18,70.18,0,0,0,159.31,95.4c-.2-18-6.14-33.42-17.23-46.17-4.28-4.91-5.06-5.07-10.46-1.71-7.3,4.54-13.56,10.73-19.93,16.74-.85.8-.36,1.14.12,1.65a105.8,105.8,0,0,1,9.45,11.36C133.92,94.85,144.33,113.69,146.41,137.14ZM128.87,36.78a50.78,50.78,0,0,0-21.17-9.54C91.91,24,77.09,27.18,63.22,36.53c.15.16.22.29.32.33a.81.81,0,0,0,.46.06,21.71,21.71,0,0,1,10.89.89c7.25,2.27,13.72,6.37,19.79,11.35,1.17,1,1.94.94,3,0a47.25,47.25,0,0,1,7.23-5.28C112.39,39.27,120,35.4,128.87,36.78Z"/><path class="cls-2" d="M96.26,164.86c-14.92,0-29.36-5.63-41.67-18a8.51,8.51,0,0,1-2.34-8c1-5.61,3.77-10.21,6.49-14.83,7-11.89,16.07-21.63,25.13-31.36,3.72-4,7.47-7.94,11.15-12,.86-.94,1.36-1,2.25,0,8.3,8.78,16.66,17.52,24.53,26.81a108.34,108.34,0,0,1,16.4,25.28,23.42,23.42,0,0,1,1.93,6.44,8.54,8.54,0,0,1-2.37,7.58A59.14,59.14,0,0,1,107,163.72,71.34,71.34,0,0,1,96.26,164.86Z"/><path class="cls-3" d="M46.11,137.19A62.18,62.18,0,0,1,35.9,116.48C28.68,91.4,35.28,64,52.67,46.56a3.44,3.44,0,0,1,3.7-1.07,24.07,24.07,0,0,1,7.25,3.94C69.57,53.73,75,58.9,80.38,64c1,.94.6,1.37-.08,2.12A144.4,144.4,0,0,0,58.89,96.33c-5.38,10.13-9.84,20.72-12,32.44A55.6,55.6,0,0,0,46.11,137.19Z"/><path class="cls-3" d="M146.41,137.14c-2.08-23.45-12.49-42.29-25.15-59.87a105.8,105.8,0,0,0-9.45-11.36c-.48-.51-1-.85-.12-1.65,6.37-6,12.63-12.2,19.93-16.74,5.4-3.36,6.18-3.2,10.46,1.71,11.09,12.75,17,28.15,17.23,46.17a70.18,70.18,0,0,1-12.66,41.54A.64.64,0,0,1,146.41,137.14Z"/><path class="cls-3" d="M128.87,36.78c-8.86-1.38-16.48,2.49-23.93,7a47.25,47.25,0,0,0-7.23,5.28c-1.09,1-1.86,1-3,0-6.07-5-12.54-9.08-19.79-11.35A21.71,21.71,0,0,0,64,36.92a.81.81,0,0,1-.46-.06c-.1,0-.17-.17-.32-.33C77.09,27.18,91.91,24,107.7,27.24A50.78,50.78,0,0,1,128.87,36.78Z"/></g></g></svg>