<svg xmlns="http://www.w3.org/2000/svg" viewBox="0 0 153.32 102.32"><defs><style>.cls-1{fill:#1c7c3f;}.cls-2{fill:#389044;}.cls-3{fill:#dce6da;}.cls-4{fill:#95c891;}.cls-5{fill:#f7f8f8;}</style></defs><g id="Layer_2"><![CDATA[
    Layer 2
    ]]><g id="Layer_1-2"><path class="cls-1" d="M48.55,76.4c-5.38,1.37-9.3,5-13.18,8.63-5.41,5.1-10.6,10.44-16.13,15.43a6,6,0,0,1-7,1.24C4.35,98.41.76,92.29.15,84c-.73-9.86,1.26-19.35,4-28.69C7.78,43.11,12.07,31.1,16.79,19.25a7,7,0,0,1,3.6-3.88A70.55,70.55,0,0,1,41.83,8.09a7.69,7.69,0,0,1,6.82,2c2.57,2.33,5,4.78,7.52,7.21l1.89,2.47c-4,0-8,.09-12,0a2.62,2.62,0,0,0-2.7,1.4c-.72-.28-1.43-.62-2.17-.84-4.36-1.32-8.35-1-11.6,2.64a11.39,11.39,0,0,0-1,15.69c3.38,3.89,9.48,4.89,14.82,2.41.85.82.48,1.89.43,2.81-.08,1.5.47,2,2,1.93,2.47-.1,4.95,0,7.42,0A37,37,0,0,0,53.4,50c.34,2.22-.35,3.34-2.72,3.06l-4.64,0c-1.14.54-.79,1.56-.8,2.46v1.28c-.34,1.78.37,2.46,2.18,2.3,1.48-.12,3,.1,4.46,0,1.68-.15,2.07.56,2,2.08-.12,1.9,0,3.82,0,5.74C51.49,69.74,50.17,73.15,48.55,76.4Z"/><path class="cls-1" d="M112.09,8.28c7.23.84,13.74,3.76,20.26,6.75a8.22,8.22,0,0,1,4.52,5c5.5,14.66,11.15,29.26,14.63,44.57A61.48,61.48,0,0,1,153,85.68c-.88,7.29-4.45,12.68-11.28,15.81-3,1.37-5.37,1.11-7.9-1.2-6.7-6.11-12.86-12.79-19.77-18.68-1.5-1.29-3.11-2.44-4.67-3.66,0-6.54,0-13.08.13-19.61,0-1.7-1-1.54-2.06-1.54a16.77,16.77,0,0,0-.24-5.43c-1.3-5.53-5.22-7.9-10.51-8.58.71-3.21,2.61-5.82,4.3-8.53,3.49,3.35,7.24,3,9.14-.88l.19-.81a2.1,2.1,0,0,0,0-2.15l-.15-.82a1.39,1.39,0,0,0-.7-1.27,1.3,1.3,0,0,0-.88-.87c-.86-1.1-2.24-.86-3.36-1.31a5,5,0,0,1,1.07-2.5,17.16,17.16,0,0,0,3.14-12.73C109.12,8.68,110,8,112.09,8.28Zm10.55,19.58v0l-.37.42,0,.06c-.22,0-.33.13-.28.37l-.18.38a.33.33,0,0,0-.23.47l-.17.84c-.46,2.68.56,4.68,2.86,5.65a4.94,4.94,0,0,0,6.2-1.69,5.07,5.07,0,0,0-.3-6.43,5.21,5.21,0,0,0-6.51-.9l-.1.06a.33.33,0,0,0-.43.33l0,0Zm-9.35-11c-1.14,0-1.27,1-1.69,1.66l0,0a4.43,4.43,0,0,0,0,5.44l0,.06.35.45.42.42c2.55,2.15,5.49,2,7.39-.48a4.79,4.79,0,0,0-1-7.18l0,0a4.51,4.51,0,0,0-5.45-.4Zm-1.66,22.08,0,.07c-1.47,2.63-.9,5.32,1.43,6.8a5.24,5.24,0,0,0,7.15-1.34,5.17,5.17,0,0,0-1.38-7.07.34.34,0,0,0-.34-.19.37.37,0,0,0-.49-.27l-.45-.13a3.68,3.68,0,0,0-4.22.42A2.27,2.27,0,0,0,112,38.47Z"/><path class="cls-2" d="M101,34.26c-1.69,2.71-3.59,5.32-4.3,8.53-2.91.38-5.79.56-8.16,2.86-4.7,4.56-5.27,12.05-1,16.12.15.14.29.29.43.43l.37.36A3.42,3.42,0,0,0,89.86,64c7.24,4.28,15.36,1,17.55-7.16,1.07,0,2.09-.16,2.06,1.54-.11,6.53-.1,13.07-.13,19.61-2.55-1.29-5.31-1.37-8.08-1.37q-25.51,0-51-.09c-.57,0-1.13-.06-1.7-.09,1.62-3.25,2.94-6.66,5.27-9.5,1.19.14,2.37.34,3.56.42,1.54.1,2.35-.5,2.19-2.23-.15-1.54,0-3.1,0-4.65,0-1.08.35-1.53,1.46-1.49,1.69.06,3.38,0,5.07,0,.63,0,1.54.31,1.53-.88l.12-1.68a.66.66,0,0,0,0-.84l-.08-1.29c.21-1.35-.48-1.7-1.69-1.67-1.68,0-3.35,0-5-.05l1.32-2.62c1.31-2.62.46-4-2.58-4.14-1.39-1.83-5.12-1.83-6.43,0-2.47,0-4.95-.09-7.42,0-1.48.06-2-.43-2-1.93,0-.92.42-2-.43-2.81a.71.71,0,0,0,0-.41c1.37,0,2.09-1.08,2.82-2,4.51-5.57,3.35-12.43-2.93-17.5a2.62,2.62,0,0,1,2.7-1.4c4,.1,8,0,12,0l.51.17c1.44,1.25,2.16,3.34,4.61,3.32,9-.07,18,0,27-.06.62,0,1.3.17,1.77-.44,4.46-4.11,8.27-8.88,13-12.75,2.2-1.81,4.45-2.62,7.2-1.72-2-.3-3,.4-2.67,2.64a17.16,17.16,0,0,1-3.14,12.73,5,5,0,0,0-1.07,2.5C100.93,27,99.28,30.14,101,34.26ZM68.83,31.31a3.55,3.55,0,1,0-7.09-.14,3.55,3.55,0,0,0,7.09.14Zm19.25-3.67a3.49,3.49,0,0,0-3.48,3.73,3.38,3.38,0,0,0,3.46,3.26,3.47,3.47,0,0,0,3.52-3.46A3.59,3.59,0,0,0,88.08,27.64Z"/><path class="cls-1" d="M84.76,3.7a2.68,2.68,0,0,1,1.68,0,16.69,16.69,0,0,1-3.35,5.89,2.68,2.68,0,0,1-.4-.49C82,7.63,81,7.74,79.82,8.59s-.8,1.62-.13,2.58a32.68,32.68,0,0,1,1.74,3.06l-1.05.94c-1.07-.85-1.67-2.19-2.95-2.82l-.15-.12c-.85-1.13-1.27-.2-1.77.36l-.1.1-.32.31-.11.1-.32.33-.1.1-.32.32-.11.11-.3.32-.1.13-.14,0,.09.25-.82.93c-1.85,2.06-1.84,2.08.61,4.06l-13.1.15a.76.76,0,0,1-.81-.44,10.34,10.34,0,0,0-2.88-3c-2.61-2.89-5.31-5.71-7.82-8.68a5.23,5.23,0,0,0-5.45-1.91,66.46,66.46,0,0,0-20,6.78,13.2,13.2,0,0,1-1.33.6c-.08,0-.24-.11-.56-.27a3.16,3.16,0,0,0,1.35-1.72c.7-3.37,3.35-4.67,6.09-6C34.37,2.59,39.88.25,46.09.1A12.09,12.09,0,0,1,52.8,1.66a12.72,12.72,0,0,0,5.55,2c.51.55,1.17.4,1.79.4q11.4,0,22.81,0C83.57,4,84.23,4.2,84.76,3.7ZM70.6,16.52c.51-1.08.93-2.12,1.48-3.08a35.53,35.53,0,0,1,2-3c.81-1.12-.2-1.48-.82-2s-1.48-1-2.34,0A6.75,6.75,0,0,0,70.6,16.52ZM79.46,6.39A6.42,6.42,0,0,0,74,6.48C75.85,8.09,77.54,8,79.46,6.39Z"/><path class="cls-2" d="M60.37,19.84l13.1-.15c.94.08,1.78.77,2.78.47l.85,0a2.27,2.27,0,0,0,2-.43c2.86-1.09,3.11-1.53,1.89-3.4l-.63-1.18,1.05-.94c.72.6.52,1.75,1.43,2.36,1.6-2.33,1.28-4.65.23-7a16.69,16.69,0,0,0,3.35-5.89c1.2,0,2.4-.1,3.59,0C94.4,4,98.52,3.46,102.3.91c2-1.38,4.48-.87,6.79-.53.74,1.71.16,3.52.38,5.27L108,5.4h-.49l-1,.35-.41.25c-4.15,4.47-8.28,9-12.46,13.38-1,1.07-2.21,2-3.32,3-8.15,0-16.3-.11-24.45,0A6,6,0,0,1,60.37,19.84Z"/><path class="cls-1" d="M109.47,5.65c-.22-1.75.36-3.56-.38-5.27,3.82,0,7.27,1.49,10.78,2.75.66.24,1.29.58,1.94.85,4.38,1.79,8.73,3.63,9.39,9.38C124.62,9.18,117.16,7.06,109.47,5.65Z"/><path class="cls-3" d="M60.37,19.84a6,6,0,0,0,5.47,2.5c8.15-.11,16.3,0,24.45,0,.42.61,1.07.32,1.62.41-.47.61-1.15.44-1.77.44-9,0-18,0-27,.06-2.45,0-3.17-2.07-4.61-3.32a.86.86,0,0,1,1-.53A.76.76,0,0,0,60.37,19.84Z"/><path class="cls-2" d="M84.76,3.7C84.23,4.2,83.57,4,83,4q-11.4,0-22.81,0c-.62,0-1.28.15-1.79-.4Z"/><path class="cls-4" d="M59.56,19.4a.86.86,0,0,0-1,.53l-.51-.17-1.89-2.47c.61-.08.53-.53.51-.94A10.34,10.34,0,0,1,59.56,19.4Z"/><path class="cls-1" d="M107.5,5.4h0Z"/><path class="cls-1" d="M106.07,6l.41-.25Z"/><path class="cls-3" d="M53.23,45.78c1.31-1.83,5-1.83,6.43,0a40.65,40.65,0,0,0-.11,5.84c0,1,.55,1.15,1.37.92,1.67,0,3.34.09,5,.05,1.21,0,1.9.32,1.69,1.67A2.15,2.15,0,0,0,65.42,53c-1,.09-2.11,0-3.16,0-2.14,0-3.87,2.88-3,4.88a.93.93,0,0,0,1,.59c2.44-.13,4.92.4,7.33-.42,0,1.19-.9.86-1.53.88-1.69,0-3.38.06-5.07,0-1.11,0-1.5.41-1.46,1.49,0,1.55-.11,3.11,0,4.65.16,1.73-.65,2.33-2.19,2.23-1.19-.08-2.37-.28-3.56-.42,0-1.92-.09-3.84,0-5.74.09-1.52-.3-2.23-2-2.08-1.48.14-3-.08-4.46,0-1.81.16-2.52-.52-2.18-2.3a3.67,3.67,0,0,0,4.59,1.67c1.66-.49.7-1.9.87-2.89a13.48,13.48,0,0,0,0-2.54c2.37.28,3.06-.84,2.72-3.06A37,37,0,0,1,53.23,45.78Zm3,14.86c-.08-.69.28-1.73-1-1.62-1,.08-.86,1-.7,1.63.46,1.67,1.09-.48,1.65,0-.51,1.16-1.08,2.29-1.51,3.48-.66,1.82-.18,2.34,1.74,2.51s2.63-.44,2.37-2.35c-.12-.83.06-1.7,0-2.54s.6-2.21-.54-2.67S57.14,60.37,56.24,60.64Zm.23-10.22c1.22.1,2.41.26,2.38-1.79-.05-2.61-2.16-1.54-3.27-1.87s-1.45.82-1.52,2C53.94,50.65,55.14,50.51,56.47,50.42Z"/><path class="cls-4" d="M43.35,21.15c6.28,5.07,7.44,11.93,2.93,17.5-.73.91-1.45,1.94-2.82,2l-.06-.08.49-.78c5.64-4.72,5.67-12.24.08-17.13a5.44,5.44,0,0,0-1-.78c-4.66-2.4-9-2.15-13,1.47L29.58,23c3.25-3.61,7.24-4,11.6-2.64C41.92,20.53,42.63,20.87,43.35,21.15Z"/><path class="cls-5" d="M50.68,53.06a13.48,13.48,0,0,1,0,2.54c-.17,1,.79,2.4-.87,2.89a3.67,3.67,0,0,1-4.59-1.67V55.54a3.13,3.13,0,0,0,.8-2.46Z"/><path class="cls-4" d="M43.46,40.64a.71.71,0,0,1,0,.41C38.09,43.53,32,42.53,28.61,38.64a11.39,11.39,0,0,1,1-15.69l.39.39-1.13,1.54a10.35,10.35,0,0,0,3.35,15.61c3.72,2,7.46,1.62,11.21.07Z"/><path class="cls-3" d="M46,53.08a3.13,3.13,0,0,1-.8,2.46C45.25,54.64,44.9,53.62,46,53.08Z"/><path class="cls-4" d="M107.41,56.8C105.22,64.92,97.1,68.24,89.86,64a3.42,3.42,0,0,1-1.54-1.4l.43-.39a35.33,35.33,0,0,0,3.1,1.77c6.36,2.82,13.26-.58,14.61-7.14,2-5.59-2.75-14.17-11-13.14a5.63,5.63,0,0,0-2.89.44c-6.82,2.56-8.94,10.51-4.6,17.23l-.4.44c-4.29-4.07-3.72-11.56,1-16.12,2.37-2.3,5.25-2.48,8.16-2.86,5.29.68,9.21,3.05,10.51,8.58A16.77,16.77,0,0,1,107.41,56.8Z"/><path class="cls-5" d="M112.4,24.92,112,24.5l-.35-.45,0-.06c0-1.81,0-3.63,0-5.44l0,0a1.84,1.84,0,0,0,1.69-1.66l0,0a18.15,18.15,0,0,1,5.45.4l0,0c0,2.24.7,4.83-.19,6.63C117.46,26.24,114.51,24.43,112.4,24.92Z"/><path class="cls-3" d="M123.61,27.05a5.21,5.21,0,0,1,6.51.9,5.07,5.07,0,0,1,.3,6.43,4.94,4.94,0,0,1-6.2,1.69c-2.3-1-3.32-3-2.86-5.65.12.17.31.32.35.51.49,2.65.73,2.74,4.23,2.52,2.24-.15,1.35-1.8,1.36-2.82C127.33,26.57,128,27,123.61,27.05Z"/><path class="cls-3" d="M118.79,37.7a5.17,5.17,0,0,1,1.38,7.07A5.24,5.24,0,0,1,113,46.11c-2.33-1.48-2.9-4.17-1.43-6.8-.29,2.93-.29,2.93,2.7,2.93h.22C118.93,42.24,118.93,42.24,118.79,37.7Z"/><path class="cls-3" d="M101,34.26c-1.68-4.12,0-7.28,4.25-8.11,1.12.45,2.5.21,3.36,1.31-3.13-.54-3.11-.54-4.43,2.43a16.6,16.6,0,0,1-1,1.62c-.72,1.2-.71,2,1,1.93,2-.07,3.94,0,5.91-.06C108.2,37.25,104.45,37.61,101,34.26Z"/><path class="cls-5" d="M110.1,33.38c-2,0-3.94,0-5.91.06-1.74.05-1.75-.73-1-1.93a16.6,16.6,0,0,0,1-1.62c1.32-3,1.3-3,4.43-2.43a1.3,1.3,0,0,1,.88.87c0,.58,0,1.13.7,1.27l.15.82a1.5,1.5,0,0,0,0,2.15Z"/><path class="cls-5" d="M118.79,37.7c.14,4.54.14,4.54-4.28,4.54h-.22c-3,0-3,0-2.7-2.93l0-.07.34-.47a2.27,2.27,0,0,1,1.32-1.24l4.22-.42.45.13.49.27A.34.34,0,0,1,118.79,37.7Z"/><path class="cls-5" d="M123.61,27.05c4.38-.05,3.72-.48,3.69,3.58,0,1,.88,2.67-1.36,2.82-3.5.22-3.74.13-4.23-2.52,0-.19-.23-.34-.35-.51l.17-.84.23-.47.18-.38.28-.37,0-.06.37-.42v0l.41-.39,0,0,.43-.33Z"/><path class="cls-3" d="M112.4,24.92c2.11-.49,5.06,1.32,6.23-1,.89-1.8.18-4.39.19-6.63a4.79,4.79,0,0,1,1,7.18C117.89,26.88,115,27.07,112.4,24.92Z"/><path class="cls-3" d="M111.58,18.55c0,1.81,0,3.63,0,5.44A4.43,4.43,0,0,1,111.58,18.55Z"/><path class="cls-3" d="M118.79,17.23a18.15,18.15,0,0,0-5.45-.4A4.51,4.51,0,0,1,118.79,17.23Z"/><path class="cls-3" d="M117.51,36.81l-4.22.42A3.68,3.68,0,0,1,117.51,36.81Z"/><path class="cls-3" d="M113.29,16.86a1.84,1.84,0,0,1-1.69,1.66C112,17.82,112.15,16.83,113.29,16.86Z"/><path class="cls-3" d="M110.29,32.57a1.5,1.5,0,0,1,0-2.15A2.1,2.1,0,0,1,110.29,32.57Z"/><path class="cls-3" d="M110.15,29.6c-.74-.14-.74-.69-.7-1.27A1.39,1.39,0,0,1,110.15,29.6Z"/><path class="cls-3" d="M123.51,27.11l-.43.33A.33.33,0,0,1,123.51,27.11Z"/><path class="cls-3" d="M111.63,24.05l.35.45Z"/><path class="cls-3" d="M122.22,28.36l-.28.37C121.89,28.49,122,28.39,122.22,28.36Z"/><path class="cls-3" d="M121.76,29.11l-.23.47A.33.33,0,0,1,121.76,29.11Z"/><path class="cls-3" d="M122.63,27.88l-.37.42Z"/><path class="cls-3" d="M118.45,37.21l-.49-.27A.37.37,0,0,1,118.45,37.21Z"/><path class="cls-3" d="M112,38.47l-.34.47Z"/><path class="cls-3" d="M123.05,27.47l-.41.39Z"/><path class="cls-5" d="M67.59,58.07c-2.41.82-4.89.29-7.33.42a.93.93,0,0,1-1-.59c-.87-2,.86-4.85,3-4.88,1.05,0,2.12.07,3.16,0a2.15,2.15,0,0,1,2.21,1.26l.08,1.29q-.61.42,0,.84Z"/><path class="cls-3" d="M68.83,31.31a3.55,3.55,0,0,1-7.09-.14,3.55,3.55,0,1,1,7.09.14Z"/><path class="cls-5" d="M88.08,27.64a3.59,3.59,0,0,1,3.5,3.53,3.47,3.47,0,0,1-3.52,3.46,3.38,3.38,0,0,1-3.46-3.26A3.49,3.49,0,0,1,88.08,27.64Z"/><path class="cls-1" d="M60.92,52.54c-.82.23-1.39.1-1.37-.92a40.65,40.65,0,0,1,.11-5.84c3,.16,3.89,1.52,2.58,4.14Z"/><path class="cls-3" d="M67.71,56.39q-.61-.42,0-.84A.66.66,0,0,1,67.71,56.39Z"/><path class="cls-4" d="M88,62.2c-.14-.14-.28-.29-.43-.43.14-.14.27-.29.4-.44l.41.42Z"/><path class="cls-4" d="M88.32,62.56,88,62.2l.38-.45.42.42Z"/><path class="cls-5" d="M77.1,20.18l-.85,0c0-2.91,0-2.93-2.48-2-1,.4-1.3-.1-1.26-.95a10.18,10.18,0,0,1,.35-1.62l.82-.93a.31.31,0,0,0,0-.29l.1-.13.3-.32.1-.11.33-.32.1-.1L75,13.1l.11-.1.32-.31.1-.1a3,3,0,0,0,1.77-.36l.15.12-.51.92c-1.36,2.39-1,3.1,1.76,3.11.78,0,1.55,0,2.33,0,1.22,1.87,1,2.31-1.89,3.4C78.43,19.81,77.67,19.55,77.1,20.18Z"/><path class="cls-3" d="M83.09,9.58c1,2.36,1.37,4.68-.23,7-.91-.61-.71-1.76-1.43-2.36a32.68,32.68,0,0,0-1.74-3.06c-.67-1-1.18-1.68.13-2.58s2.13-1,2.87.5A2.68,2.68,0,0,0,83.09,9.58Z"/><path class="cls-3" d="M70.6,16.52a6.75,6.75,0,0,1,.35-8c.86-1,1.58-.63,2.34,0s1.63.84.82,2a35.53,35.53,0,0,0-2,3C71.53,14.4,71.11,15.44,70.6,16.52Z"/><path class="cls-3" d="M81,16.35c-.78,0-1.55,0-2.33,0-2.72,0-3.12-.72-1.76-3.11l.51-.92c1.28.63,1.88,2,2.95,2.82Z"/><path class="cls-3" d="M72.86,15.63a10.18,10.18,0,0,0-.35,1.62c0,.85.24,1.35,1.26.95,2.45-1,2.45-.95,2.48,2-1,.3-1.84-.39-2.78-.47C71,17.71,71,17.69,72.86,15.63Z"/><path class="cls-3" d="M79.46,6.39C77.54,8,75.85,8.09,74,6.48A6.42,6.42,0,0,1,79.46,6.39Z"/><path class="cls-3" d="M77.28,12.23a3,3,0,0,1-1.77.36C76,12,76.43,11.1,77.28,12.23Z"/><path class="cls-3" d="M75.41,12.69l-.32.31Z"/><path class="cls-3" d="M75,13.1l-.32.33Z"/><path class="cls-3" d="M74.13,14l-.3.32Z"/><path class="cls-3" d="M74.56,13.53l-.33.32Z"/><path class="cls-3" d="M73.73,14.41a.31.31,0,0,1,0,.29l-.09-.25Z"/><path class="cls-3" d="M77.1,20.18c.57-.63,1.33-.37,2-.43A2.27,2.27,0,0,1,77.1,20.18Z"/><path class="cls-5" d="M56.24,60.64c.9-.27.91-2,2-1.55s.42,1.75.54,2.67-.08,1.71,0,2.54c.26,1.91-.52,2.51-2.37,2.35s-2.4-.69-1.74-2.51c.43-1.19,1-2.32,1.51-3.48Z"/><path class="cls-5" d="M56.47,50.42c-1.33.09-2.53.23-2.41-1.7.07-1.14.39-2.3,1.52-2s3.22-.74,3.27,1.87C58.88,50.68,57.69,50.52,56.47,50.42Z"/><path class="cls-5" d="M56.23,60.66c-.56-.49-1.19,1.66-1.65,0-.16-.58-.34-1.55.7-1.63,1.24-.11.88.93,1,1.62Z"/><path class="cls-1" d="M43.4,40.56c-3.75,1.55-7.49,2-11.21-.07a10.35,10.35,0,0,1-3.35-15.61L30,23.34c4-3.62,8.37-3.87,13-1.47a5.44,5.44,0,0,1,1,.78c0,1.07-.09,2.14-.13,3.22-.82-.27-1.05-1.41-2.06-1.4h0c0-.26-.18-.35-.44-.28L41,24c-.06-.26-.23-.33-.47-.24l-.69-.23a5.84,5.84,0,0,0-5.2.1l-.52.2c-.21-.1-.32,0-.36.2l-.47.18-.32.26-.09.08c-.24,0-.37.09-.36.34l-.07.06c-.26,0-.39.1-.38.36l-.05.05c-.26,0-.39.11-.37.38l-.47.6-.17.05,0,.17c-2.77,3.9-2,8.42,1.8,11.11,3.58,2.35,7,2.07,10.66-.88.86.89.28,2,.44,3Z"/><path class="cls-2" d="M43.84,25.87c0-1.08.08-2.15.13-3.22,5.59,4.89,5.56,12.41-.08,17.13-.16-1,.42-2.08-.44-3C46.32,33.26,46.18,29.6,43.84,25.87Z"/><path class="cls-2" d="M88.75,62.17l-.42-.42-.41-.42c-4.34-6.72-2.22-14.67,4.6-17.23a5.63,5.63,0,0,1,2.89-.44c.22,1-.83,1.56-.85,2.48-.64.22-1.37.23-1.84.82a7.68,7.68,0,0,0-4.62,7.67,7,7,0,0,0,4.73,6.88.67.67,0,0,0,.86.29l.73.19a.37.37,0,0,0,.54.16,4.91,4.91,0,0,0,2.58,0l.58-.15,1.12-.28c.23.09.35,0,.41-.23a4.84,4.84,0,0,0,3-2.5l.33-.48a.2.2,0,0,0,.16-.25.48.48,0,0,0,.28-.6l.15-.39.46-.48h2.42c-1.35,6.56-8.25,10-14.61,7.14A35.33,35.33,0,0,1,88.75,62.17Z"/><path class="cls-1" d="M94.56,46.14c0-.92,1.07-1.48.85-2.48,8.3-1,13,7.55,11,13.14H104c.66-6.32-1.33-9.37-6.93-10.69a1.16,1.16,0,0,0-1.71,0Z"/><path class="cls-5" d="M31.14,26.36l.47-.6.37-.38.05-.05.38-.36.07-.06.36-.34.09-.08.32-.26.47-.18.36-.2.52-.2,5.2-.1.69.23L41,24l.37.16.44.28h0c.75,2.57.31,5.2.41,7.8,0,1-.56,1.16-1.38,1.16-1.77,0-3.54.07-5.31,0-1.38-.08-1.89.39-1.85,1.8,0,.85.63,2.08-.86,2.48C29,35,28.22,30.48,31,26.58A.19.19,0,0,0,31.14,26.36Z"/><path class="cls-3" d="M32.79,37.69c1.49-.4.88-1.63.86-2.48,0-1.41.47-1.88,1.85-1.8,1.77.09,3.54,0,5.31,0,.82,0,1.42-.2,1.38-1.16-.1-2.6.34-5.23-.41-7.8,1,0,1.24,1.13,2.06,1.4,2.34,3.73,2.48,7.39-.39,10.94C39.78,39.76,36.37,40,32.79,37.69Z"/><path class="cls-3" d="M39.8,23.55l-5.2.1A5.84,5.84,0,0,1,39.8,23.55Z"/><path class="cls-3" d="M31.14,26.36a.19.19,0,0,1-.15.22l0-.17Z"/><path class="cls-3" d="M32,25.38l-.37.38C31.59,25.49,31.72,25.37,32,25.38Z"/><path class="cls-3" d="M32.41,25l-.38.36C32,25.07,32.15,25,32.41,25Z"/><path class="cls-3" d="M32.84,24.57l-.36.34C32.47,24.66,32.6,24.56,32.84,24.57Z"/><path class="cls-3" d="M41.77,24.46l-.44-.28C41.59,24.11,41.74,24.2,41.77,24.46Z"/><path class="cls-3" d="M33.25,24.23l-.32.26Z"/><path class="cls-3" d="M41,24l-.47-.24C40.73,23.69,40.9,23.76,41,24Z"/><path class="cls-3" d="M34.08,23.85l-.36.2C33.76,23.85,33.87,23.75,34.08,23.85Z"/><path class="cls-5" d="M102.66,59a4.84,4.84,0,0,1-3,2.5l-.41.23L98.12,62l-.58.15a4.91,4.91,0,0,1-2.58,0L94.42,62l-.73-.19a.76.76,0,0,0-.86-.29,7,7,0,0,1-4.73-6.88A7.68,7.68,0,0,1,92.72,47c1.78.87.36,1.92,0,2.73-.58,1.42-1.55,2.69-2.18,4.1a2.09,2.09,0,0,0,2.13,3,15.53,15.53,0,0,0,2.5-.8c-2.9-.73-1.69-2.67-1.92-4.09-.15-1,.28-1.45,1.31-1.43,2,0,4,0,5.94,0,.61,0,1.28.11,1.21.85-.16,1.69,1.07,3.79-1.59,4.77l3.43,1.24-.15.39-.28.6a.2.2,0,0,1-.16.25Zm-4.4-2.93c-.63-.71-1.17-.57-1.91-.17A1.4,1.4,0,0,0,98.26,56.07Z"/><path class="cls-3" d="M103.58,57.28,100.15,56c2.66-1,1.43-3.08,1.59-4.77.07-.74-.6-.85-1.21-.85-2,0-4,0-5.94,0-1,0-1.46.48-1.31,1.43.23,1.42-1,3.36,1.92,4.09a15.53,15.53,0,0,1-2.5.8,2.09,2.09,0,0,1-2.13-3c.63-1.41,1.6-2.68,2.18-4.1.33-.81,1.75-1.86,0-2.73.47-.59,1.2-.6,1.84-.82l.84,0,1.71,0c5.6,1.32,7.59,4.37,6.93,10.69Z"/><path class="cls-3" d="M92.83,61.51a.76.76,0,0,1,.86.29A.67.67,0,0,1,92.83,61.51Z"/><path class="cls-3" d="M99.24,61.73l.41-.23C99.59,61.72,99.47,61.82,99.24,61.73Z"/><path class="cls-3" d="M94.42,62l.54.16A.37.37,0,0,1,94.42,62Z"/><path class="cls-3" d="M97.54,62.16l.58-.15Z"/><path class="cls-3" d="M103.15,58.27l.28-.6A.48.48,0,0,1,103.15,58.27Z"/><path class="cls-3" d="M102.66,59l.33-.48Z"/><path class="cls-2" d="M97.11,46.11l-1.71,0A1.16,1.16,0,0,1,97.11,46.11Z"/><path class="cls-3" d="M98.26,56.07a1.4,1.4,0,0,1-1.91-.17C97.09,55.5,97.63,55.36,98.26,56.07Z"/></g></g></svg>